<svg version="1.1" xmlns="http://www.w3.org/2000/svg" viewBox="0 0 72.02049611560994 24.83008279211822" width="72.02049611560994" height="24.83008279211822" filter="invert(93%) hue-rotate(180deg)">
  <!-- svg-source:excalidraw -->
  
  <defs>
    <style class="style-fonts">
      @font-face {
        font-family: "Virgil";
        src: url("https://excalidraw.com/Virgil.woff2");
      }
      @font-face {
        font-family: "Cascadia";
        src: url("https://excalidraw.com/Cascadia.woff2");
      }
    </style>
    
  </defs>
  <g stroke-linecap="round"><g transform="translate(10.272630297541582 11.41709263145924) rotate(0 25.73761776026339 0.9979487645998688)"><path d="M2.06 0.68 C10.46 1.4, 43.36 3.41, 51.75 3.41 M-0.27 -1.42 C7.67 -1.38, 41.17 -1.28, 49.73 -0.47" stroke="#1e1e1e" stroke-width="1" fill="none"></path></g><g transform="translate(10.272630297541582 11.41709263145924) rotate(0 25.73761776026339 0.9979487645998688)"><path d="M26.23 7.87 C36.8 5.68, 41.44 -0.19, 52.58 -4.11 M26.46 8.53 C34.56 3.24, 42.52 0.67, 49.95 -2.24" stroke="#1e1e1e" stroke-width="1" fill="none"></path></g><g transform="translate(10.272630297541582 11.41709263145924) rotate(0 25.73761776026339 0.9979487645998688)"><path d="M26.98 -9.68 C37.18 -5.74, 41.56 -5.5, 52.58 -4.11 M27.21 -9.02 C35.38 -7.92, 43.07 -4.11, 49.95 -2.24" stroke="#1e1e1e" stroke-width="1" fill="none"></path></g></g><mask></mask></svg>