<?xml version="1.0" encoding="UTF-8" standalone="no"?>
<!-- Generator: Adobe Illustrator 24.2.0, SVG Export Plug-In . SVG Version: 6.00 Build 0)  -->

<svg
   version="1.1"
   id="Capa_2"
   x="0px"
   y="0px"
   viewBox="0 0 298 56.9"
   style="enable-background:new 0 0 298 56.9;"
   xml:space="preserve"
   sodipodi:docname="cancel.svg"
   inkscape:version="1.2.1 (9c6d41e410, 2022-07-14)"
   xmlns:inkscape="http://www.inkscape.org/namespaces/inkscape"
   xmlns:sodipodi="http://sodipodi.sourceforge.net/DTD/sodipodi-0.dtd"
   xmlns="http://www.w3.org/2000/svg"
   xmlns:svg="http://www.w3.org/2000/svg"><defs
   id="defs13" /><sodipodi:namedview
   id="namedview11"
   pagecolor="#ffffff"
   bordercolor="#000000"
   borderopacity="0.25"
   inkscape:showpageshadow="2"
   inkscape:pageopacity="0.0"
   inkscape:pagecheckerboard="0"
   inkscape:deskcolor="#d1d1d1"
   showgrid="false"
   inkscape:zoom="3.8748503"
   inkscape:cx="133.55355"
   inkscape:cy="20.645959"
   inkscape:window-width="1920"
   inkscape:window-height="1046"
   inkscape:window-x="-11"
   inkscape:window-y="-11"
   inkscape:window-maximized="1"
   inkscape:current-layer="Capa_2" />
<style
   type="text/css"
   id="style2">
	.st0{fill:none;stroke:#F0F7FC;stroke-linecap:round;}
</style>

<path
   style="fill:#ffff00;stroke-width:0.182486"
   d="m 14.987287,27.345657 c -0.147066,-0.45637 0.158976,-0.593345 1.342188,-0.600718 0.696966,-0.0043 0.383398,-0.05848 -0.859982,-0.148472 -1.803101,-0.130499 -1.955392,-0.169398 -1.937582,-0.494897 0.02625,-0.479794 -0.006,-0.478841 10.89177,-0.321601 5.122351,0.07391 15.271485,0.214798 22.55363,0.313088 7.282145,0.09829 20.184556,0.272415 28.672023,0.386946 9.989395,0.134796 29.968676,0.162899 56.650996,0.07968 80.80563,-0.252015 122.27929,-0.319284 142.56483,-0.231243 12.54596,0.05445 12.54089,0.05433 12.6801,0.309802 0.31771,0.583078 -0.38692,0.668592 -5.14672,0.624599 -7.55101,-0.06979 -44.69779,-0.123081 -55.18895,-0.07917 -6.93695,0.02903 -10.11927,0.03741 -24.0363,0.06328 -7.99196,0.01485 -17.28639,0.03551 -20.6543,0.04589 -3.36791,0.01038 -8.46774,0.02604 -11.33297,0.03479 -12.41426,0.03791 -18.85084,0.09995 -17.91046,0.172628 2.98288,0.230548 97.04796,1.264538 120.90448,1.329021 11.60328,0.03136 12.17037,0.04547 12.31249,0.306292 0.0698,0.128087 0.0385,0.312119 -0.0695,0.408961 -0.49865,0.446892 -42.35034,0.09517 -137.31759,-1.15401 -2.41069,-0.03171 -15.51809,-0.217108 -29.12756,-0.411997 -31.746834,-0.454617 -25.803637,-0.414759 -51.42784,-0.3449 -13.118836,0.03577 -52.761058,0.04232 -53.373233,0.0088 -0.05252,-0.0029 -0.137784,-0.13643 -0.18946,-0.29679 z"
   id="path242" /><path
   style="fill:#ffff00"
   d="M 283.58359,26.642988 C 13.139008,30.110227 13.139008,30.110227 13.139008,30.110227"
   id="path1106" /></svg>
