<?xml version="1.0" encoding="utf-8"?>
<!-- Generator: Adobe Illustrator 24.2.0, SVG Export Plug-In . SVG Version: 6.00 Build 0)  -->
<svg version="1.1" id="Capa_1" xmlns="http://www.w3.org/2000/svg" xmlns:xlink="http://www.w3.org/1999/xlink" x="0px" y="0px"
	 viewBox="0 0 444.2 302.6" style="enable-background:new 0 0 444.2 302.6;" preserveAspectRatio="none">
<style type="text/css">
	.st0{fill:none;stroke:#D0BFFF;stroke-width:0.5;stroke-linecap:round;}
	.st1{fill:none;stroke:#79B1C9;stroke-linecap:round;}
</style>
<g transform="translate(10 10) rotate(0 149 220.66665649414062)">
	<path class="st0" d="M424.8,0.5L424.8,0.5 M424.8,0.5L424.8,0.5 M413.9-3.7c0.5,1.2,11,7.8,16.6,14.4 M413.9-3.7
		c3.5,4.3,9.3,7.7,16.6,14.4 M406.8-4.6c4.2,0.9,11,11.8,24.9,21.6 M406.8-4.6c4.6,3.9,10.3,9.2,24.9,21.6 M399.6-5.5
		c7.1,8.5,21.4,17.7,33.2,28.9 M399.6-5.5c9.6,8.4,15.7,14.3,33.2,28.9 M393.2-5.8c10.3,10.3,28.6,24.6,37.7,32.8 M393.2-5.8
		c10.7,7.7,18.7,14.2,37.7,32.8 M387.6-5.4c13.8,13.5,32.4,27.9,43,37.4 M387.6-5.4c17.5,12.8,33.5,26.8,43,37.4 M381.2-5.6
		c16.3,14.1,29.4,29.3,49.8,43.3 M381.2-5.6c18.1,13.4,34.3,27.5,49.8,43.3 M374.8-5.9c10.2,8.1,30.2,18.7,55.9,48.5 M374.8-5.9
		c14.4,12.1,24.4,21.2,55.9,48.5 M369.1-5.5c15,13.8,32.1,26.7,61.9,53.8 M369.1-5.5c14.6,15.4,33.2,30.1,61.9,53.8 M362.7-5.8
		c25,24.5,54.5,44.6,67.9,59 M362.7-5.8c17.1,15.1,34.2,29.7,67.9,59 M357.1-5.4c25.1,15.4,46.1,36.2,74,64.3 M357.1-5.4
		c16.5,12.7,33.4,30.3,74,64.3 M350.7-5.6c18.7,14,31.5,25.8,80,69.5 M350.7-5.6c22.3,21.3,43.5,40.9,80,69.5 M344.3-5.9
		c20,22.3,47.1,38.8,86.8,75.5 M344.3-5.9c18.8,16.1,39.9,33.5,86.8,75.5 M338.6-5.5c26.4,20.7,50.1,45.4,92.1,80 M338.6-5.5
		c26.7,23,50.5,46,92.1,80 M332.2-5.7c29.9,22.5,54.7,48.8,98.9,85.9 M332.2-5.7c24.6,21.9,48.5,41.3,98.9,85.9 M326.6-5.4
		c26.9,25.9,59.6,49.7,104.1,90.5 M326.6-5.4c23.2,21.3,50.9,46,104.1,90.5 M320.2-5.6c28.5,28.1,58.2,46.1,110.9,96.4 M320.2-5.6
		c34.8,32,68.8,60.8,110.9,96.4 M313.8-5.9c33.3,29.7,78.5,64,117,101.7 M313.8-5.9c26.5,22.6,52.4,44.2,117,101.7 M308.2-5.5
		c33.7,29.4,57.4,56.3,123,106.9 M308.2-5.5c27.9,23.9,55.6,49.3,123,106.9 M301.8-5.7c45.3,39.4,97.2,86.1,129.1,112.2 M301.8-5.7
		c37.5,35.3,75.4,63.9,129.1,112.2 M296.1-5.3c32.2,32.3,71.7,60.7,135.1,117.4 M296.1-5.3c29,24.9,53.8,51.7,135.1,117.4
		 M289.7-5.6c33.8,25,69.4,54.3,141.1,122.7 M289.7-5.6c35,29.4,67.7,56.4,141.1,122.7 M283.3-5.9c49.3,45.9,92.8,80.3,147.9,128.6
		 M283.3-5.9c42.8,37.4,86.8,72.8,147.9,128.6 M277.7-5.5c30.8,30.4,68.1,62.9,153.2,133.2 M277.7-5.5
		c39,33.5,76.6,67.2,153.2,133.2 M271.3-5.7C328.4,41,384,96.6,431.3,133.3 M271.3-5.7c42.2,38.3,87.4,74.3,160,139.1 M265.6-5.3
		c45.3,34.5,83.7,71.4,165.3,143.7 M265.6-5.3c38.4,31.4,77,65.1,165.3,143.7 M259.2-5.6c57.3,51.7,115,104.1,171.3,148.9
		 M259.2-5.6c38.4,32.2,73.5,62.2,171.3,148.9 M252.8-5.9C300,31.9,349.3,77.4,431,149 M252.8-5.9C294.5,31.9,336.2,67.5,431,149
		 M247.2-5.5c62,55,119.2,111.9,183.4,159.4 M247.2-5.5C305,45.4,362.2,98.4,430.6,154 M240.8-5.7C277.2,22.4,316,57.6,431,159.6
		 M240.8-5.7C299.7,47.9,362.1,99.6,431,159.6 M235.2-5.3c50.3,45.3,101,92,195.5,169.9 M235.2-5.3
		c47.5,42.8,100.2,87.9,195.5,169.9 M228.8-5.6C281.6,41.1,332.4,84.8,431,170.2 M228.8-5.6c50.4,40.9,99.7,83.7,202.3,175.8
		 M222.4-5.9c73.5,66.2,145.2,128.5,208.3,181.1 M222.4-5.9c54.9,48.3,110.5,97,208.3,181.1 M216.7-5.5
		c81.8,70,159.5,144.5,214.3,186.3 M216.7-5.5C287.9,56.8,359.6,118,431.1,180.9 M210.3-5.7C259,30.4,304.2,73,430.7,185.8
		 M210.3-5.7c83.8,72,167.8,145.8,220.4,191.6 M204.7-5.3C254.5,42,310,90.5,431.1,191.5 M204.7-5.3
		C276.9,53.6,345.8,114,431.1,191.5 M198.3-5.6c50.1,43.3,104.4,90.7,232.4,202.1 M198.3-5.6c60.5,55.7,122,110.6,232.4,202.1
		 M191.9-5.9c53,49.5,105.3,94.9,239.2,208 M191.9-5.9c92,80.5,184.1,160.6,239.2,208 M186.2-5.5c90.2,75.3,180.5,159.6,244.5,212.6
		 M186.2-5.5c97.9,82.8,193.9,166.4,244.5,212.6 M179.8-5.7c57.4,51,116.8,103.6,251.3,218.5 M179.8-5.7
		c97.5,80.5,193.8,161.9,251.3,218.5 M174.2-5.3C267,82.5,363.1,159.3,430.8,217.7 M174.2-5.3c102.6,88.4,206.2,178.7,256.6,223.1
		 M167.8-5.6c86.9,73.2,167.4,144.2,263.4,229 M167.8-5.6c62,49.6,121.2,102.9,263.4,229 M161.4-5.9C243.9,69,331,142.8,430.8,228.4
		 M161.4-5.9c98.8,88.3,201.4,179.1,269.4,234.2 M155.8-5.5C261.1,85.6,360,170.9,431.2,234 M155.8-5.5
		C228.8,53.9,299.5,115.4,431.2,234 M149.4-5.7C227.6,63.7,306.8,135.6,430.9,239 M149.4-5.7C255.8,88,362.5,180.7,430.9,239
		 M143.7-5.3c88.5,79.8,179.4,155.1,287.5,250 M143.7-5.3c89.9,78.1,180.5,157.6,287.5,250 M137.3-5.6
		c93.4,82.2,181.6,161.3,293.6,255.2 M137.3-5.6c87.9,80.7,177.3,156.9,293.6,255.2 M130.9-5.8c90,79.5,180.2,157.2,300.4,261.1
		 M130.9-5.8c71.3,57.2,138.7,117,300.4,261.1 M125.3-5.5c120.9,108,240.4,208.4,306.4,266.4 M125.3-5.5
		C190.7,51,256.6,106.2,431.7,260.9 M118.9-5.7C194.4,63,272.1,128.5,430.6,265.2 M118.9-5.7c113.2,96.2,223.2,192.2,311.7,270.9
		 M113.2-5.3c109,95.1,214.9,184.8,317,275.5 M113.2-5.3c67.6,55.8,133.4,112.7,317,275.5 M106.8-5.6
		C229.1,99.5,353.3,208.7,429.1,274.6 M106.8-5.6c78.8,72.2,158.3,141.8,322.3,280.1 M100.4-5.8c90.4,71.4,174.9,145,326,283.4
		 M100.4-5.8C220.9,96,338.9,201.1,426.5,277.6 M94.8-5.4c82.1,71.6,168.9,146,329.8,286.7 M94.8-5.4
		C212.9,97,334.2,200.6,424.6,281.2 M88.4-5.7c109.2,94.2,218.1,184.6,333.6,290 M88.4-5.7c65.9,59,134.8,118.3,333.6,290 M82.8-5.3
		C196.1,94.2,305.4,188,419.4,287.3 M82.8-5.3C203.1,99.5,323.6,205.3,419.4,287.3 M76.4-5.6C204.1,104.2,333.8,212,414.5,288.3
		 M76.4-5.6C145.5,54,215.5,114.6,414.5,288.3 M70-5.8c71.3,61.8,142.3,124.4,339.6,295.2 M70-5.8
		c136.5,118.1,271.9,236,339.6,295.2 M64.3-5.4c107.3,92,214.3,185.9,340.4,295.9 M64.3-5.4c96.1,87.5,196,172.6,340.4,295.9
		 M57.9-5.7C186.1,105,312.5,214.1,399.8,291.5 M57.9-5.7C144.5,71.2,232,147.1,399.8,291.5 M52.3-5.3
		C170.6,95.9,285.7,197.5,394.2,291.9 M52.3-5.3c122,102.6,239.3,205.7,341.9,297.2 M45.9-5.6C137.7,79,233,160,387.8,291.6
		 M45.9-5.6c70.4,59.7,140.9,121,341.9,297.2 M39.5-5.8C130.6,74.1,226.7,158,382.1,292 M39.5-5.8C147.9,88.5,256.4,184.1,382.1,292
		 M33.8-5.4c84,76.9,169.1,150.8,341.9,297.2 M33.8-5.4c116.2,99,230,197.8,341.9,297.2 M27.4-5.7c95.2,83.4,189.7,165,341.9,297.2
		 M27.4-5.7c102.1,88.1,205.8,179.4,341.9,297.2 M21.8-5.3c132.6,114.2,264.9,226,341.9,297.2 M21.8-5.3
		c74.6,66.8,147.5,129,341.9,297.2 M16.9-4.3c103.8,92.3,209.7,183.8,340.4,295.9 M16.9-4.3c79.4,67.9,161.5,139.7,340.4,295.9
		 M12-3.2c82.9,71.5,168.4,145,339.6,295.2 M12-3.2C94.9,68.2,177.6,140,351.6,292 M7.1-2.2C90.4,73.2,175,144.8,345.3,291.8
		 M7.1-2.2c78.4,69.2,160.7,138.8,338.1,293.9 M2.3-1.1c128,107.8,253.9,215.9,336.6,292.6 M2.3-1.1
		c108.3,89.9,213.3,182.4,336.6,292.6 M0.4,2.6c73.4,67.9,145,129.8,332.8,289.3 M0.4,2.6C90.3,78.7,177,155.8,333.2,291.9
		 M-2.2,5.6c120.9,101.8,238.6,206.3,329.1,286 M-2.2,5.6c103.8,89,209.9,182.6,329.1,286 M-4.9,8.6C72.3,77.2,151,149.1,321.2,292
		 M-4.9,8.6c70.1,61.9,141.3,122.2,326,283.4 M-7.5,11.6c67.7,52.5,129.8,108.1,322.3,280.1 M-7.5,11.6
		c89.4,74.2,178.2,151.9,322.3,280.1 M-7.9,16.6c116,104.6,234.7,204.2,316.2,274.9 M-7.9,16.6c88.3,77.8,176.5,155,316.2,274.9
		 M-9,20.9c100.1,88.8,203.6,174.7,311.7,270.9 M-9,20.9c120.1,102.6,239,207,311.7,270.9 M-9.3,25.9
		c114.6,98.9,228.7,195.9,305.7,265.7 M-9.3,25.9c113.6,94.6,222.2,188.8,305.7,265.7 M-9.7,30.9C96.5,125.5,204.5,220.1,290.7,292
		 M-9.7,30.9C97.6,122,201.3,211.4,290.7,292 M-9.3,36.6c67.8,56,134.4,112.8,293.6,255.2 M-9.3,36.6
		c75.6,67.6,148.9,128.7,293.6,255.2 M-9.7,41.6c110.8,94.2,222.9,189.7,287.5,249.9 M-9.7,41.6c83.5,71.1,169.6,145.8,287.5,249.9
		 M-9.3,47.2c68.6,63.8,140,120,281.5,244.7 M-9.3,47.2c75.5,69.3,150.3,136.2,281.5,244.7 M-9.6,52.2
		c69.9,56.5,143.3,121.1,275.5,239.5 M-9.6,52.2c70,56.5,137.4,116.1,275.5,239.5 M-9.2,57.8c99.7,87.5,197,173.4,269.4,234.2
		 M-9.2,57.8C47,109.8,107.2,160.3,260.2,292 M-9.6,62.8c79.8,68.1,159.9,140.7,263.4,229 M-9.6,62.8c58.4,53.7,121,106.9,263.4,229
		 M-9.2,68.5C57.4,124.6,118,178.4,247.4,291.5 M-9.2,68.5c57,50.7,114.8,101.2,256.6,223.1 M-9.6,73.4
		c60.9,50.7,118.9,100.3,251.3,218.5 M-9.6,73.4c95.9,79.9,189.4,161.3,251.3,218.5 M-9.2,79.1C71.8,154.5,154.6,223,235.4,291.6
		 M-9.2,79.1c71.4,60.2,144.7,123.4,244.5,212.6 M-9.5,84.1c48.3,40,100,83.9,239.2,208 M-9.5,84.1c52,42.7,102.6,88,239.2,208
		 M-9.1,89.7c57.7,48.7,109.9,96.3,232.4,202.1 M-9.1,89.7C80.5,168.3,168.7,246,223.3,291.8 M-9.5,94.7
		c82,70.2,162.7,140.4,226.4,196.8 M-9.5,94.7C78.9,172,167.8,249.3,216.9,291.5 M-9.1,100.3c79.2,69.4,161.2,143,220.4,191.6
		 M-9.1,100.3c61.6,53.5,120.4,104.5,220.4,191.6 M-9.4,105.3c66.5,56.8,128.7,113.6,214.3,186.3 M-9.4,105.3
		c76.6,66,155.1,133.6,214.3,186.3 M-9.1,111c49.5,47.3,98.6,89.1,208.3,181.1 M-9.1,111C64.2,171.1,135.8,236.5,199.2,292
		 M-9.4,116c46.5,44.3,90.7,82.7,202.3,175.8 M-9.4,116c52.9,46.8,104.3,94,202.3,175.8 M-9,121.6c39.8,36.3,84.9,74.6,195.5,169.9
		 M-9,121.6c44.2,37.6,87.4,77.1,195.5,169.9 M-9.4,126.6c62.3,57.6,130.8,119.5,190.2,165.3 M-9.4,126.6
		c44.4,43.8,92.6,84.4,190.2,165.3 M-9.7,131.6c67,63.9,137.6,118.8,184.2,160.1 M-9.7,131.6c48.9,41.8,95.8,85.2,184.2,160.1
		 M-9.3,137.2c59.8,47.4,119.8,95.3,177.4,154.2 M-9.3,137.2c66.9,59.7,135,118.9,177.4,154.2 M-9.7,142.2
		c33.5,30.4,70,56.9,172.1,149.6 M-9.7,142.2c45.6,42.2,91.3,84.7,172.1,149.6 M-9.3,147.9C22.3,178.5,65,214.7,156,291.5
		 M-9.3,147.9c59,48.6,113.8,97.7,165.3,143.7 M-9.7,152.8c45.8,46.4,98.7,87.9,160,139.1 M-9.7,152.8
		c39.5,34.7,82.1,71.9,160,139.1 M-9.3,158.5c50.1,45.9,99.5,85.1,153.2,133.2 M-9.3,158.5c41.2,36.3,82,75.5,153.2,133.2
		 M-9.6,163.5c53.3,41.6,95.6,86.2,147.2,127.9 M-9.6,163.5c37.7,31.8,72.3,63.2,147.2,127.9 M-9.2,169.1
		c43.7,42.7,92.3,79.3,141.1,122.7 M-9.2,169.1c52.9,46.4,103.6,94.4,141.1,122.7 M-9.6,174.1c26.8,26.4,55.8,54.2,135.1,117.4
		 M-9.6,174.1c28.9,29.1,61.3,54.3,135.1,117.4 M-9.2,179.7c41.5,36.7,91.3,80.1,129,112.2 M-9.2,179.7
		c37.3,33.6,76.9,66.2,129,112.2 M-9.6,184.7c41.4,39.8,87.4,79.4,123,106.9 M-9.6,184.7c29,22.8,58.4,46.9,123,106.9 M-9.2,190.4
		c43.7,38.4,87.7,79.3,116.2,101 M-9.2,190.4c40.8,32.5,80.3,65.6,116.2,101 M-9.5,195.4c20.6,15.1,41.4,37.4,110.9,96.5
		 M-9.5,195.4c27.9,26.6,58.9,53,110.9,96.5 M-9.1,201c31.3,25.2,70.3,53.7,104.1,90.5 M-9.1,201C21.6,227.5,50,255.2,95,291.5
		 M-9.5,206c31.4,27.3,63.3,56.4,98.9,86 M-9.5,206c37.4,34.8,76.1,68.7,98.9,86 M-9.1,211.6c19.5,18.8,40.9,33.4,92.1,80
		 M-9.1,211.6c32.7,26.9,63.3,53.3,92.1,80 M-9.5,216.6c28.6,23.9,55.1,50.8,86,74.8 M-9.5,216.6c31.8,29.3,65.2,60.1,86,74.8
		 M-9.1,222.3c22.7,20.7,39.4,33.8,80,69.5 M-9.1,222.3c30.2,24.2,62.6,50.2,80,69.5 M-9.4,227.2c17.9,20.9,37.4,33.2,74,64.3
		 M-9.4,227.2c27.9,24.2,51.9,45.7,74,64.3 M-9,232.9c21,11.6,34.7,32.8,67.9,59 M-9,232.9c21.6,19.1,42,37.9,67.9,59 M-9.4,237.9
		c14.1,15.4,38.1,34.3,61.9,53.8 M-9.4,237.9c19.2,15.5,34.7,31.1,61.9,53.8 M-9.8,242.9c17.7,13.1,29,25.1,55.8,48.5 M-9.8,242.9
		c20.8,16.7,38.9,35.6,55.8,48.5 M-9.4,248.5c12.4,9,24.2,20,49.8,43.3 M-9.4,248.5c12.3,9.5,22.8,21,49.8,43.3 M-9.7,253.5
		c15.7,15,28.4,26,43.8,38 M-9.7,253.5c16.3,11.7,29,23.6,43.8,38 M-9.3,259.1C3,268,5.9,273.9,28.4,291.9 M-9.3,259.1
		c9.7,8.4,22.7,18.6,37.7,32.8 M-7.4,266.1c4.9,6.3,17.6,11.3,30.2,26.2 M-7.4,266.1c10.4,9.1,19.1,15.2,30.2,26.2 M-6.3,272.4
		c5.6,7.2,17.6,16.1,21.1,18.4 M-6.3,272.4c7.3,3.6,11.4,10.2,21.1,18.4"/>
	<path class="st1" d="M433,24.7c-0.8,88.2,1.9,176,0,234 M433,24.7c-2.7,60.5-2,118.4,0,234 M433,258.7c3.8,23.2-14.6,35.6-32,32
		 M433,258.7c2.2,19-7.6,32.6-32,32 M401,290.7c-96.9-1.2-197.2-2.8-377.3,0 M401,290.7c-84-2.4-167.5-2.9-377.3,0 M23.7,290.7
		c-23-0.6-34.4-14.7-32-32 M23.7,290.7c-25.2-2.3-28-15.3-32-32 M-8.3,258.7c5-57.9,2.3-122.2,0-234 M-8.3,258.7
		c4.1-82.7,2.1-167.6,0-234 M-8.3,24.7c2.9-17.8,13.3-34,32-32 M-8.3,24.7c0.2-24.5,10-34.2,32-32 M23.7-7.3
		c126.2,1.1,256.1,1.1,377.3,0 M23.7-7.3c120.4-2.5,238.7-3.2,377.3,0 M401-7.3c23,2.6,35.9,14,32,32 M401-7.3
		c22.1-0.4,29,8.8,32,32"/>
</g>
</svg>
