<?xml version="1.0" encoding="UTF-8" standalone="no"?>
<!-- Generator: Adobe Illustrator 24.2.0, SVG Export Plug-In . SVG Version: 6.00 Build 0)  -->

<svg
   version="1.1"
   id="Capa_1"
   x="0px"
   y="0px"
   viewBox="0 0 221.65852 184.39756"
  preserveAspectRatio="none"
   sodipodi:docname="container4.svg"
   width="221.65852"
   height="184.39757"
   inkscape:version="1.2.1 (9c6d41e410, 2022-07-14)"
   xmlns:inkscape="http://www.inkscape.org/namespaces/inkscape"
   xmlns:sodipodi="http://sodipodi.sourceforge.net/DTD/sodipodi-0.dtd"
   xmlns="http://www.w3.org/2000/svg"
   xmlns:svg="http://www.w3.org/2000/svg"><defs
   id="defs13" /><sodipodi:namedview
   id="namedview11"
   pagecolor="#ffffff"
   bordercolor="#000000"
   borderopacity="0.25"
   inkscape:showpageshadow="2"
   inkscape:pageopacity="0.0"
   inkscape:pagecheckerboard="0"
   inkscape:deskcolor="#d1d1d1"
   showgrid="false"
   inkscape:zoom="4.6011936"
   inkscape:cx="158.87182"
   inkscape:cy="92.150002"
   inkscape:window-width="1920"
   inkscape:window-height="1046"
   inkscape:window-x="-11"
   inkscape:window-y="-11"
   inkscape:window-maximized="1"
   inkscape:current-layer="Capa_1" />
<style
   type="text/css"
   id="style2">
	.st0{fill:none;stroke:#428B8E;stroke-width:0.5;stroke-linecap:round;}
	.st1{fill:none;stroke:#D1E7E8;stroke-linecap:round;}
</style>
<g
   transform="matrix(0.69779122,0,0,1.0008952,6.9737081,9.9567998)"
   id="g8">
	<path
   class="st0"
   d="m -4.2,-0.7 v 0 m 0,0 v 0 M -7.6,11.7 C -5.3,8 -1,1.5 2.2,-6.4 M -7.6,11.7 C -3.8,6.7 -2.2,0.4 2.2,-6.4 M -7.3,17.4 C -3.7,7.4 -0.7,5.2 6.1,-7.5 M -7.3,17.4 C -1.9,6.6 2.4,-3.2 6.1,-7.5 M -7.5,23.8 C -4.8,12 3.5,7.7 10,-8.7 M -7.5,23.8 C -3.7,13.9 2.9,5.4 10,-8.7 M -7.2,29.4 C -0.7,20.3 6.6,3.6 12.3,-6.8 M -7.2,29.4 c 5.9,-8 9.1,-17.1 19.5,-36.2 M -7.4,35.8 C -4.3,24.1 3.5,17.2 15.4,-6.4 M -7.4,35.8 C 2,22.8 8.9,8.7 15.4,-6.4 m -23,48.6 C -2.3,27.3 9.4,15.8 18.8,-6.9 M -7.6,42.2 C 2.6,24.1 11,10 18.9,-6.8 M -7.3,47.9 C 3.1,33.5 14.5,11.6 22,-6.5 M -7.3,47.9 C -0.6,35.7 5.3,24.8 22,-6.5 M -7.5,54.3 C -1.2,42.1 7.2,26.4 25.5,-6.9 m -33,61.2 C 6,31.3 16.3,7.8 25.5,-6.9 M -7.2,59.9 C 5.5,42.4 17.8,20.3 28.5,-6.5 M -7.2,59.9 C 4.3,37.8 16.2,15.6 28.5,-6.5 M -7.4,66.3 C 6.9,39 19.9,14.7 32,-6.9 M -7.4,66.3 C 6.5,41 19.8,12.9 32,-6.9 M -7.6,72.7 C 4.1,48.5 15.7,29.8 35.1,-6.5 M -7.6,72.7 C 8.3,48.4 22,21 35.1,-6.5 M -7.3,78.4 C 2.8,54.6 16.4,38.7 38.6,-6.9 M -7.3,78.4 C 3.8,61.2 13,40.3 38.6,-6.9 M -7.5,84.7 C 11.8,50 27,18.7 41.7,-6.6 M -7.5,84.7 C 8.7,54.2 25.8,22.2 41.7,-6.6 m -48.9,97 C 8.1,60.9 21.5,36.6 45.2,-7 M -7.2,90.4 C 11.1,57.4 26.9,23.6 45.2,-7 M -7.4,96.8 C 4,73.2 16.5,48.5 48.3,-6.6 M -7.4,96.8 C 9.9,64.3 29.2,29.5 48.3,-6.6 M -7.6,103.2 C 3.8,76.3 16,52.4 51.8,-7 M -7.6,103.2 C 10.8,64.9 30.6,31.2 51.8,-7 M -7.3,108.8 C 7.1,79.8 22.1,57.9 54.9,-6.6 M -7.3,108.8 C 11.4,76.4 30.2,39.4 54.9,-6.6 M -7.5,115.2 C 9.6,88.3 26.9,58.8 58.4,-7 M -7.5,115.2 C 6.5,82.5 22.7,55 58.4,-7 M -7.2,120.9 C 7.4,90.2 24.1,52.6 61.5,-6.7 M -7.2,120.9 C 17.5,74.5 42,28.8 61.5,-6.7 m -68.9,134 C 9.9,98.7 25,73.1 65,-7.1 M -7.4,127.3 C 9.1,90.6 27.4,55.6 65,-7.1 M -7.6,133.7 C 22.6,80.4 49.6,22.7 68.1,-6.7 M -7.6,133.7 C 13,101.8 30.5,68.1 68.1,-6.7 m -75.4,146 C 7.8,110.5 26.2,74.6 71.6,-7.1 M -7.3,139.3 C 17.4,94.4 42.9,48.3 71.6,-7.1 M -8.7,148 C 25.6,88.8 53.3,33 74.7,-6.7 M -8.7,148 C 18,100.2 42.6,50.6 74.7,-6.7 M -7.6,152.1 C 11.6,109.7 34,71.4 78.2,-7.1 M -7.6,152.1 C 14.3,107.8 37.5,65.6 78.2,-7.1 M -7,157 C 13.6,110.7 40.1,69.5 81.3,-6.8 M -7,157 C 11,122.7 29.1,88.3 81.2,-6.8 M -5.5,160.4 C 22.4,108.7 46.9,58 84.3,-6.4 M -5.5,160.4 C 27.6,96.8 63.3,30.1 84.3,-6.4 M -3.6,163 C 33,99.8 64.7,38.3 87.8,-6.8 M -3.6,163 C 16.2,122.7 35.5,83.9 87.8,-6.8 M -1.8,165.6 C 25.8,108.8 58,51.1 90.9,-6.5 M -1.8,165.6 C 22.3,118.1 46.2,74.3 90.9,-6.5 M 0.1,168.2 C 39.2,102 73.6,33.3 94.4,-6.8 M 0.1,168.2 C 28.3,113.8 57,62.2 94.4,-6.8 M 2,170.9 C 27.1,122.6 51.4,77.7 97.5,-6.5 M 2,170.9 C 21,133.2 42.6,94.5 97.6,-6.5 M 5.1,171.2 C 41.9,99.1 82.3,30.9 101,-6.9 M 5.1,171.2 C 27.7,131.9 49,87.7 101,-6.9 M 8.1,171.6 c 32.1,-61.8 62.3,-120 96,-178.1 M 8.1,171.6 C 44.3,107.7 79.8,43.9 104.1,-6.5 M 10.8,172.7 C 33.9,123.4 60.2,75.5 107.6,-6.9 M 10.8,172.7 C 37.9,122 62.6,75.3 107.6,-6.9 M 14.3,172.3 C 34.4,132 56.6,91.5 110.7,-6.6 M 14.3,172.3 C 45.2,113.4 78.3,51.5 110.7,-6.6 M 17.4,172.7 C 43.2,122.8 74.1,72.7 114.2,-6.9 M 17.4,172.7 C 47.9,115.2 78.5,59.1 114.2,-6.9 M 20.9,172.3 C 53.5,114.7 85.9,54 117.3,-6.6 M 20.9,172.3 C 56.1,111 91.3,43.5 117.3,-6.6 M 24,172.6 C 57.4,107.3 92.1,45.2 120.8,-7 M 24,172.6 C 55.7,116.3 88.4,58.9 120.8,-7 M 27.5,172.2 C 66.9,107.8 102.9,42.2 123.9,-6.7 M 27.5,172.2 C 65.8,107.1 102,37.2 123.9,-6.7 M 30.6,172.6 C 62.1,114.5 90.6,61.4 127.4,-7 M 30.6,172.6 C 60.3,116.3 89,59.8 127.4,-7 M 33.7,173 C 66.7,110.4 101.4,51.4 130.5,-6.6 M 33.7,173 C 63.1,115 92.1,59.7 130.5,-6.7 M 37.2,172.6 C 59.8,130.8 83.6,86.2 134,-7.1 M 37.2,172.6 C 68.5,114.4 100.8,57.1 134,-7.1 m -93.7,180 C 69.8,110.8 102.5,53.5 137.1,-6.7 M 40.3,172.9 C 57.8,133.4 79.5,95.6 137.1,-6.7 M 43.8,172.5 C 66.8,135 84.6,94.3 140.6,-7.1 M 43.8,172.5 C 70.5,126 96.8,74 140.6,-7.1 m -93.7,180 C 78.8,110.6 114.1,54.3 143.7,-6.7 M 46.9,172.9 C 75.7,121.5 104.2,69.7 143.7,-6.7 M 50.4,172.5 c 30.5,-51 56.1,-106 96.8,-179.6 M 50.4,172.5 C 85.5,113.1 120.1,49.6 147.2,-7.1 m -93.8,180 c 25,-41.8 48,-84.7 96.8,-179.6 M 53.4,172.9 C 86.2,113.9 118,54.4 150.2,-6.7 M 57,172.5 C 90.6,111.2 122.9,49.9 153.8,-7.1 M 57,172.5 C 90.6,108.7 125.6,44.7 153.8,-7.1 M 60,172.8 C 82.8,129.9 106.7,89.4 156.8,-6.8 M 60,172.8 c 25.3,-47 48.7,-92.3 96.8,-179.6 M 63.5,172.4 C 85.1,136.8 106.2,94.1 159.9,-6.5 M 63.5,172.4 C 97.7,104.8 135.9,35.5 159.9,-6.5 M 66.6,172.8 C 102.9,100.5 140,36.2 163.4,-6.8 M 66.6,172.8 C 97.3,115.9 127.5,56.7 163.4,-6.8 M 70.1,172.4 C 103.6,111.3 138,44.8 166.5,-6.5 M 70.1,172.4 C 104.4,115.7 134.7,54.6 166.5,-6.5 M 73.2,172.8 C 102.3,122.9 126.1,73.9 170,-6.8 M 73.2,172.8 C 110.5,101.5 147.8,36.1 170,-6.9 M 76.7,172.4 C 99.7,128 124.2,85 173.1,-6.5 M 76.7,172.4 c 17.7,-37 37.1,-75.6 96.4,-178.9 M 79.8,172.7 c 38.1,-72.1 76,-138.8 96.8,-179.6 M 79.8,172.7 C 119.3,101.2 158.2,30.3 176.6,-6.9 M 83.3,172.3 C 115,114.6 143.8,56.7 179.7,-6.5 M 83.3,172.3 C 104,129.9 124.6,88.9 179.7,-6.6 M 86.4,172.7 c 26.5,-52.3 58,-103.5 96.8,-179.6 M 86.4,172.7 C 117,116.4 145.3,60.5 183.2,-6.9 M 89.9,172.3 c 20.7,-37.4 39,-80.6 96.4,-178.9 M 89.9,172.3 C 115.7,122.5 142.6,71.7 186.3,-6.6 M 93,172.7 C 120.3,122.9 146.3,78.5 189.8,-6.9 M 93,172.7 c 22.4,-39 42.9,-78.8 96.8,-179.6 M 96.5,172.3 C 131.4,104.4 165.6,41 192.9,-6.6 M 96.5,172.3 c 29.7,-55.1 59.2,-110 96.4,-178.9 M 99.6,172.6 C 125.2,125.2 149.7,81.1 196.4,-7 M 99.6,172.6 C 133.7,110.1 167.9,45.6 196.4,-7 M 103.1,172.2 C 126.5,131.7 149.9,84.7 199.5,-6.7 M 103.1,172.2 C 134,118.9 165.6,60.8 199.4,-6.6 M 106.2,172.6 C 136.9,111.8 169.2,50.1 203,-7 M 106.2,172.6 C 136.3,122 164.6,68 202.9,-7 M 109.3,172.9 C 135.8,128.8 158.1,78 206,-6.7 M 109.3,172.9 C 140.3,114.1 172.7,54.3 206,-6.7 m -93.3,179.2 c 27.5,-50.6 51.6,-95.1 96.8,-179.6 m -96.8,179.6 c 22.5,-38.9 43,-78.8 96.8,-179.6 m -93.7,180 c 27.6,-43.1 51.4,-89.8 96.8,-179.6 m -96.8,179.6 c 23,-45 48.8,-92.6 96.8,-179.6 m -93.3,179.2 c 31.6,-54 60.1,-112.8 96.8,-179.6 M 119.3,172.5 C 138,136.4 159.2,95.9 216.1,-7.1 m -93.7,180 c 23.5,-40.3 44.8,-85.8 96.8,-179.6 m -96.8,179.6 c 22.3,-41.2 45.9,-87.8 96.8,-179.6 m -93.3,179.2 c 20.3,-35.7 39.6,-73.3 96.8,-179.6 m -96.8,179.6 c 33.4,-56.6 66,-113.9 96.8,-179.6 M 129,172.8 C 156.8,120.6 183.3,73 225.8,-6.8 M 129,172.8 C 159.8,119.5 187.9,65.7 225.8,-6.8 M 132.5,172.4 C 152.7,134.3 173,94.9 228.9,-6.5 M 132.5,172.4 C 168.5,105 205.1,39.3 228.9,-6.5 M 135.6,172.8 C 173,104.1 209,34.9 232.4,-6.8 M 135.6,172.8 C 163.3,117.7 192.1,66 232.4,-6.8 m -93.3,179.2 c 27,-49.6 55.2,-94.6 96.4,-178.9 M 139.1,172.4 C 167.9,116.7 196.5,62.6 235.5,-6.5 m -93.3,179.3 c 34.5,-64 68,-124 96.8,-179.6 M 142.2,172.8 C 175.3,115.7 207.3,56.3 239,-6.9 M 145.7,172.4 C 170.1,127.7 193.8,87.1 242.1,-6.5 M 145.7,172.4 C 171.5,124.8 193.6,81.9 242.1,-6.5 M 148.8,172.7 C 166.9,134.1 190,92 245.6,-6.9 M 148.8,172.7 C 185.2,107.6 218.5,42.6 245.6,-6.9 M 152.3,172.3 C 175,126 197.1,84.7 248.7,-6.6 m -96.4,178.9 c 22.2,-41 46.9,-86.7 96.4,-178.9 M 155.4,172.7 C 191.8,98.9 229.6,27.1 252.2,-6.9 M 155.4,172.7 C 177.1,131.8 198,93.1 252.2,-6.9 m -93.3,179.2 c 32.3,-53.4 63,-114.6 96.4,-178.9 M 158.9,172.3 C 190,110.4 222.7,50.9 255.2,-6.6 M 162,172.7 C 191.7,118.4 223.2,63 258.7,-7 M 162,172.7 C 197.1,109.1 232.4,43.2 258.7,-7 m -93.2,179.3 c 20.2,-38.6 42,-81.6 96.4,-178.9 M 165.5,172.3 C 192.3,118.9 221.9,66.8 261.9,-6.6 M 168.5,172.6 C 202.3,112.4 234.3,50.9 265.3,-7 M 168.5,172.6 C 200.9,115.8 233.1,58.7 265.3,-7 M 172.1,172.2 C 210.8,107.5 247.5,36.4 268.5,-6.7 M 172.1,172.2 C 195.4,131.7 217,92.1 268.5,-6.7 M 175.1,172.6 C 206.4,120 233.9,59.4 271.9,-7 M 175.1,172.6 C 202.8,121.5 228.5,69.4 271.9,-7 M 178.2,173 C 205.6,116 237.3,64.3 275,-6.6 M 178.2,173 C 200.7,128.5 224.7,87 275,-6.6 M 181.7,172.6 C 199.9,138 222.8,96.3 278.5,-7 M 181.7,172.6 C 206.7,127.9 233.5,82.4 278.5,-7 M 184.8,172.9 C 207.3,131.5 227.1,93.3 281.6,-6.7 M 184.8,172.9 C 218,112.2 250.1,52.2 281.6,-6.7 M 188.3,172.5 C 215.5,128.8 239.6,82.6 285.9,-8.6 M 188.3,172.5 C 222.6,112.6 257,48.8 285.9,-8.6 M 191.4,172.9 C 216,124.6 243.3,74.2 289,-8.2 M 191.4,172.9 C 224.4,117.4 255.2,58.5 289,-8.2 M 194.9,172.5 C 217.2,129 240.9,90.7 291.7,-7.1 M 194.9,172.5 C 221.5,122.4 249.6,71.4 291.7,-7.1 M 198,172.9 C 220.6,129.6 244,81.3 294.8,-6.7 M 198,172.9 c 29,-58.7 60.1,-114 96.8,-179.6 M 201.5,172.5 C 233,119.3 264.1,60.9 297.1,-4.9 m -95.6,177.4 c 23.8,-44 47.7,-87.1 95.6,-177.4 m -92.5,177.7 c 24.2,-48.5 53.6,-98 94.3,-175.1 M 204.6,172.8 C 225.2,132 247,93.4 298.9,-2.3 m -90.8,174.7 c 34.2,-60 64.6,-116.7 93.1,-172.8 M 208.1,172.4 C 235.9,123.9 261,77.5 301.2,-0.4 m -90,173.2 C 248.4,107.7 281.5,38.3 302.3,3.7 M 211.2,172.8 C 236.8,125.2 261.7,76.2 302.3,3.7 M 214.7,172.4 C 237.9,133 261.5,88.9 303.3,7.9 M 214.7,172.4 C 239.8,128 264.3,78.3 303.3,7.9 m -85.5,164.9 c 27.3,-45.5 50.3,-88.5 87,-161.5 m -87,161.5 c 28.5,-45.9 53.1,-95.2 87,-161.5 m -83.5,161.1 c 23.6,-39.6 44.2,-80.7 84.2,-156.2 m -84.2,156.2 c 18.2,-33 37,-65.5 84.2,-156.2 M 224.4,172.7 C 255.2,118.4 285.7,60.3 305.7,21.8 m -81.3,150.9 c 17.1,-35 34.6,-67.9 81.3,-150.9 M 227.8,172.3 C 254,129.2 279.2,81.9 305.5,28.2 M 227.8,172.3 C 248.4,137 269.5,96.2 305.5,28.2 M 230.9,172.7 C 257,129.8 280.4,78.5 305.7,33.8 M 230.9,172.7 C 253.8,126 279.7,81.9 305.7,33.8 m -71.3,138.5 c 16.9,-31.6 34.1,-57.7 71.2,-132.1 m -71.2,132.1 c 19.2,-41.7 40.7,-78.1 71.2,-132.1 m -68.1,132.4 c 23.3,-51.5 50.2,-95.1 68.3,-126.8 m -68.3,126.8 c 22,-41.5 42.5,-82 68.3,-126.8 M 241,172.3 c 22.5,-36 40,-78.8 64.7,-120 m -64.7,120 c 12.2,-27.3 27.7,-49.4 64.7,-120 M 244.1,172.6 C 256.5,142.5 274,117 305.9,57.9 M 244.1,172.6 C 268.5,130 289.3,88.4 305.9,57.9 M 247.2,173 c 15.6,-28 28,-49.8 58.6,-108.7 M 247.2,173 C 269.6,132.7 291,91.9 305.8,64.3 M 250.7,172.6 C 263.2,145 279.2,123.4 305.6,70.7 M 250.7,172.6 C 265,144.2 277.8,119.7 305.6,70.7 m -51.8,102.2 c 15.8,-24 29.4,-52.3 52,-96.6 m -52,96.6 C 273,136.2 293.4,97 305.8,76.3 m -48.5,96.2 c 16.4,-32.4 32.2,-68.4 48.4,-89.8 m -48.4,89.8 c 13,-26 27.8,-52.5 48.4,-89.8 m -45.3,90.2 c 13.7,-20.1 22.1,-43.8 45.5,-84.5 m -45.5,84.5 c 16.3,-27.4 29.6,-55.1 45.5,-84.5 m -42,84.1 c 16,-22.9 26.9,-48.9 41.9,-77.7 m -41.9,77.7 C 279.1,144.8 295,116.8 305.8,94.8 M 267,172.9 c 13.4,-20.2 21.6,-41.1 39,-72.5 m -39,72.5 c 12,-22.3 26.5,-48.9 39,-72.5 m -35.5,72.1 c 10.3,-13.5 14.7,-28.2 35.4,-65.7 m -35.4,65.7 c 10.1,-19.5 19,-34.3 35.4,-65.7 m -32.3,66 c 14.6,-26.2 25.4,-43 32.1,-59.6 m -32.1,59.6 c 10.3,-18.9 22.5,-42.8 32.1,-59.6 m -28.6,59.2 c 4.8,-17.5 11.9,-23.7 28.9,-53.6 m -28.9,53.6 c 11.6,-22.9 22.3,-40 28.9,-53.6 m -25.8,54 c 8.1,-13.3 11,-26.8 25.6,-47.5 m -25.6,47.5 c 6.2,-8.5 11.5,-20.6 25.6,-47.5 m -22.2,47.1 c 4.2,-8.3 10.4,-19.5 22.4,-41.5 m -22.4,41.5 c 5.5,-9.6 11.1,-19.3 22.4,-41.5 m -19.7,42.6 c 2.6,-8.3 8.7,-17.5 19.5,-36.2 m -19.5,36.2 c 5.6,-8.3 7.6,-18 19.5,-36.2 m -15.2,34.3 c 2.4,-7.2 8.2,-20.9 16.3,-30.2 m -16.3,30.2 c 6.5,-10.4 11,-18.9 16.3,-30.2 m -12.3,29.1 c 5.7,-10.3 10.3,-13.1 11.4,-21.1 m -11.4,21.1 c 2.4,-5.6 6.6,-12.4 11.4,-21.1"
   id="path4" />
	<path
   class="st1"
   d="m 10.8,-8.8 c 99,0.4 199.3,1.9 275.2,0 m -275.2,0 c 80.3,3.6 161.4,2 275.2,0 m 0,0 c 13.9,1.1 22.3,10.4 19.8,32 M 286,-8.8 c 15.7,1.1 18.2,6.1 19.8,32 m 0,0 c 2.8,42.6 0.5,75.7 0,117.3 m 0,-117.3 c 0.7,28 0.6,55 0,117.3 m 0,0 c 1.5,24 -4.9,34.6 -19.8,32 m 19.8,-32 c 1.9,17.8 -7.9,30.6 -19.8,32 m 0,0 c -57.6,1.4 -117.3,2 -275.2,0 m 275.2,0 c -93.6,-3 -188.1,-3.5 -275.2,0 m 0,0 C -4,173.1 -9.8,163.1 -9,140.5 m 19.8,32 c -11.1,-0.1 -18.3,-14 -19.8,-32 m 0,0 C -8.6,98.3 -6,59.3 -9,23.2 m 0,117.3 C -9.5,96.6 -9.8,48.9 -9,23.2 m 0,0 c 0.7,-21.9 7.9,-35.9 19.8,-32 M -9,23.2 c -1.3,-24.8 6.6,-27.6 19.8,-32"
   id="path6" />
</g>
</svg>
