<?xml version="1.0" encoding="UTF-8" standalone="no"?>
<!-- Generator: Adobe Illustrator 24.2.0, SVG Export Plug-In . SVG Version: 6.00 Build 0)  -->

<svg
   version="1.1"
   id="Capa_1"
   x="0px"
   y="0px"
   viewBox="0 0 397.4797 157.71028"
   preserveAspectRatio="none"
   sodipodi:docname="containerOblong2.svg"
   width="320"
   height="157.71028"
   inkscape:version="1.2.1 (9c6d41e410, 2022-07-14)"
   xmlns:inkscape="http://www.inkscape.org/namespaces/inkscape"
   xmlns:sodipodi="http://sodipodi.sourceforge.net/DTD/sodipodi-0.dtd"
   xmlns="http://www.w3.org/2000/svg"
   xmlns:svg="http://www.w3.org/2000/svg"><defs
   id="defs26" /><sodipodi:namedview
   id="namedview24"
   pagecolor="#ffffff"
   bordercolor="#000000"
   borderopacity="0.25"
   inkscape:showpageshadow="2"
   inkscape:pageopacity="0.0"
   inkscape:pagecheckerboard="0"
   inkscape:deskcolor="#d1d1d1"
   showgrid="false"
   inkscape:zoom="3.9771066"
   inkscape:cx="268.03405"
   inkscape:cy="68.894306"
   inkscape:window-width="1920"
   inkscape:window-height="1046"
   inkscape:window-x="-11"
   inkscape:window-y="-11"
   inkscape:window-maximized="1"
   inkscape:current-layer="Capa_1" />
<style
   type="text/css"
   id="style15">
	.st0{fill:none;stroke:#64618E;stroke-width:0.4706;stroke-linecap:round;stroke-miterlimit:3.7647;}
	.st1{fill:none;stroke:#8BCAD8;stroke-width:0.9412;stroke-linecap:round;stroke-miterlimit:3.7647;}
</style>
<g
   transform="matrix(0.98512019,0,-0.01737561,0.92192763,9.4075576,4.2174112)"
   id="g21">
	<path
   class="st0"
   d="m 0.3,6.9 v 0 m 0,0 v 0 m -4.5,13 C -2.9,19 2.6,7.7 8.7,1 M -4.2,19.9 C -0.4,15.8 2.6,9.4 8.7,1 M -3.8,25.8 C -3,21.4 5.8,14.3 13.8,-0.1 M -3.8,25.8 C -0.7,21 3.7,15 13.8,-0.2 M -4,32.4 C 2.8,25.3 10.1,10.6 19,-1.4 M -4,32.4 C 2.8,22.6 7.4,16.4 19,-1.4 M -3.7,38.3 C 4.3,28.2 15.6,9.6 22,0.6 M -3.7,38.3 C 2.3,27.5 7.3,19.6 22,0.6 M -3.9,44.9 C 6.9,30.9 18.4,11.8 26,1 M -3.9,44.9 C 6.3,27 17.5,10.7 26,1 M -4.1,51.6 C 7.2,34.9 19.4,21.4 30.6,0.6 m -34.7,51 C 6.6,33 17.9,16.5 30.6,0.6 M -3.8,57.5 C 2.5,47.3 10.9,26.8 34.7,0.9 M -3.8,57.5 C 5.8,42.8 13,32.8 34.7,0.9 M -4,64.1 C 7.1,48.7 17.4,31.1 39.3,0.5 M -4,64.1 C 8.3,49.1 20.2,30 39.2,0.5 M -3.7,70 C 15.9,44.6 31.8,14.4 43.3,0.9 M -3.7,70 C 8.3,52.6 20,35.2 43.3,0.9 M -3.9,76.7 C 8.4,50.8 25.3,29.1 47.9,0.5 M -3.9,76.7 C 6.3,59.7 20.5,42.4 47.9,0.5 m -52,82.8 C 7.2,64 16.6,50.9 52,0.9 M -4.1,83.3 C 13,60.4 28.9,38.5 52,0.9 M -3.8,89.2 C 14.1,68.8 27.3,41 56.6,0.4 M -3.8,89.2 C 9,70 23,48.4 56.6,0.4 M -4,95.8 C 12.7,68.5 32.7,44.2 60.7,0.8 M -4,95.8 C 14.6,68.2 33.1,43.7 60.7,0.8 M -3.7,101.7 C 14.3,71 35.4,45.7 65.2,0.4 M -3.7,101.7 C 13.9,76.6 29.4,52 65.2,0.4 m -69.1,108 C 17.1,80.6 36.3,46.8 69.3,0.8 M -3.9,108.4 C 13.3,84.4 33.3,55.8 69.3,0.8 M -4.1,115 C 18.7,85.6 33.2,54.9 73.9,0.4 M -4.1,115 C 21.7,79 45,43.9 73.9,0.4 M -3.8,120.9 C 20.1,86.8 47.6,40.2 77.9,0.8 M -3.8,120.9 C 14.4,93.7 31.7,67 77.9,0.8 M -4,127.6 C 19.8,92.7 41.5,68.3 82.5,0.3 M -4,127.6 C 15.3,98.7 35.8,70 82.5,0.3 M -3.7,133.4 C 28,86.9 65.6,33.4 86.6,0.7 M -3.7,133.4 C 24.7,94.9 47.7,55.9 86.6,0.7 m -90,138.6 c 26,-33.1 48.8,-73.8 94.6,-139 m -94.6,139 C 16.6,109.5 38.2,84 91.2,0.3 M -2,143.6 C 17.8,109.4 41,73.2 95.3,0.7 M -2,143.6 C 21.4,108.2 42.7,75.1 95.3,0.7 m -97,148.8 C 34.7,99.7 61.7,55.9 99.9,0.3 M -1.7,149.5 C 27.9,106.4 55.8,61.9 99.9,0.3 M 0.8,152.2 C 24.4,122.4 49.8,85.1 103.9,0.6 M 0.8,152.2 C 26.7,113.6 52.8,76.5 103.9,0.6 M 3.2,154.9 C 38.1,99.7 81.2,46.3 108.5,0.2 M 3.2,154.9 C 32.3,114.3 59.4,70.1 108.5,0.2 M 5.7,157.7 C 31.2,114.4 58.6,78.4 112.6,0.6 M 5.7,157.7 C 29,121.2 54.3,84.2 112.6,0.6 M 8.7,159.6 C 46.3,106.6 84.5,53.2 116.7,1 M 8.7,159.6 C 32.1,123.8 53.8,91.3 116.6,1 M 11.2,162.3 C 37.6,119.7 70.5,74.9 121.2,0.6 M 11.2,162.3 C 38.2,124.6 63.2,86.9 121.3,0.5 M 14.7,163.5 C 52.8,108.3 92.8,58.7 125.3,0.9 M 14.7,163.5 C 49.9,112.3 87,61.9 125.3,0.9 M 18.7,163.9 C 36.8,133.1 60.7,99.8 129.9,0.6 M 18.7,163.9 C 54.9,113.6 89.6,59.3 129.9,0.5 M 22.3,165 C 51.9,122.9 83,80.8 134,0.9 M 22.3,165 C 50.4,125.7 80.3,80.9 134,0.9 M 26.9,164.6 C 57.2,121.8 84.7,80.6 138.6,0.5 M 26.9,164.6 C 52.5,123.3 79.7,83.2 138.6,0.5 M 30.9,165 C 72.4,106.9 110.9,50.2 142.6,0.9 M 30.9,165 C 60.5,121.8 91.2,77.2 142.6,0.9 M 35.5,164.6 C 76.7,101.3 122.4,43.8 147.2,0.5 M 35.5,164.6 C 73.1,110.3 109.2,55.5 147.2,0.5 M 39.6,165 C 59.6,127.8 85.5,94.3 151.3,0.9 M 39.6,165 C 81.4,102.6 124.4,40.3 151.3,0.8 M 44.2,164.6 C 70.9,129.8 98.9,88.8 155.9,0.4 M 44.2,164.6 C 77.6,111.5 111.6,62.2 155.9,0.4 M 48.2,164.9 C 72,129.7 99.2,90.1 159.9,0.8 M 48.2,164.9 C 79.3,122.5 110,79.5 159.9,0.8 M 52.8,164.5 C 79.9,128.4 103,94.4 164.5,0.4 M 52.8,164.5 C 96.4,101.5 139.5,38.1 164.5,0.4 M 56.9,164.9 C 95.1,104.9 141.6,45.5 168.6,0.8 M 56.9,164.9 C 100,99.2 143.9,35 168.6,0.8 M 61.5,164.5 C 86.7,128.5 113.9,90 173.2,0.4 M 61.5,164.5 C 102.6,100.4 143.4,36.8 173.2,0.4 M 65.6,164.9 C 111.6,105.5 147.1,42.7 177.3,0.8 M 65.6,164.9 C 109.3,99.4 155.2,32.4 177.3,0.7 M 70.2,164.5 C 105.7,108.2 140.1,59.2 181.9,0.4 M 70.2,164.5 C 93.8,124.8 120.8,88.2 181.9,0.4 M 74.2,164.8 C 110.9,116.8 145.1,63.3 185.9,0.7 M 74.2,164.8 C 115.8,105.9 160.4,43 185.9,0.7 M 78.3,165.2 C 122.3,100.5 159.6,44.5 190.5,0.3 M 78.3,165.2 C 105.1,121 133.9,78.9 190.5,0.3 M 82.9,164.8 C 114,119.8 149.3,73.3 194.6,0.7 M 82.9,164.8 C 125.5,102 167.7,39.9 194.6,0.7 M 86.9,165.2 C 124,114.3 155.7,61.3 199.1,0.3 M 86.9,165.2 C 121.7,113.8 158.8,60.7 199.1,0.3 M 91.5,164.8 C 129.1,111.3 163.7,64.7 203.2,0.7 M 91.5,164.8 C 127.5,116.5 160,66.3 203.2,0.7 M 95.6,165.1 C 130.9,115.9 165,64.5 207.8,0.2 M 95.6,165.1 C 119.1,124.4 144.9,88.7 207.8,0.2 M 100.2,164.7 C 147.6,98.3 185.9,35.5 211.9,0.6 M 100.2,164.7 C 123.8,130.1 146.4,92.8 211.9,0.6 M 104.3,165.1 C 133.6,127 158.9,86.1 216,1 M 104.3,165.1 C 144,104.5 182.6,48.2 216,1 M 108.9,164.7 C 148.8,107.2 182.3,53.5 220.6,0.6 M 108.9,164.7 C 131.5,128.5 154.1,94.6 220.6,0.6 M 112.9,165.1 C 153.1,104.6 199.5,38.9 224.6,1 M 112.9,165.1 C 142.9,125.1 170,86.1 224.6,1 M 117.5,164.6 C 144.2,116.3 171.8,76.1 229.2,0.5 M 117.5,164.6 C 156.8,103 199.5,45.8 229.2,0.5 M 121.6,165 C 149,126.8 178.2,81.6 233.3,0.9 M 121.6,165 C 161.1,107.8 200.9,45.5 233.3,0.9 M 126.2,164.6 C 164,110.4 195.5,55 237.9,0.5 M 126.2,164.6 C 148.8,133.8 170.8,99.9 237.9,0.5 M 130.2,165 C 170.2,107.3 203.3,56 241.9,0.9 M 130.2,165 C 170.1,105.9 211.8,46.9 241.9,0.9 M 134.8,164.6 C 177.2,104.2 215,37.9 246.5,0.4 M 134.8,164.6 C 156.7,131.4 180.4,95.9 246.5,0.5 M 138.9,164.9 C 162.3,130.2 188.4,93.7 250.6,0.8 M 138.9,164.9 C 183.9,98.8 228.7,33.3 250.6,0.8 M 143.5,164.5 C 176.8,112.4 214,59.6 255.2,0.4 M 143.5,164.5 C 177.1,119.7 208.7,69.7 255.2,0.4 M 147.6,164.9 C 188.7,100.8 229.2,39.9 259.3,0.8 M 147.6,164.9 C 177,123.5 204.9,82 259.2,0.8 m -107,163.7 C 189.5,105.3 229.9,49.4 263.9,0.4 M 152.2,164.5 C 190.8,103.8 229.1,49.8 263.9,0.4 M 156.2,164.9 C 188.9,122.4 218.4,75.1 267.9,0.8 M 156.2,164.9 C 178.3,131.1 200.6,98.6 267.9,0.8 M 160.8,164.5 C 189.1,123.8 223.1,74.4 272.5,0.4 M 160.8,164.5 c 35,-52.2 71,-102.3 111.7,-164.1 M 164.9,164.8 C 195.9,124 223.2,83.7 276.6,0.7 M 164.9,164.8 C 202.8,108 239.6,53.4 276.6,0.7 M 168.9,165.2 C 201,118.2 232,71.6 281.2,0.3 M 168.9,165.2 C 201,117.2 237.5,66.1 281.1,0.3 M 173.5,164.8 C 217.5,99.6 256.4,35.4 285.2,0.7 M 173.5,164.8 C 200.2,128.2 221.6,94.2 285.2,0.7 M 177.6,165.2 C 213.3,116.6 249.7,61.9 289.8,0.3 M 177.6,165.2 C 202.1,127.4 230.3,87 289.8,0.3 M 182.2,164.8 c 27.3,-39 55.4,-82 111.7,-164.1 M 182.2,164.8 C 209.3,124.2 236.1,84.7 293.9,0.7 M 186.3,165.1 C 215.7,124.1 240.9,83 298.5,0.2 M 186.3,165.1 C 212.5,128.4 238,86.6 298.5,0.2 M 190.9,164.7 C 232,99.9 272.3,37.8 302.5,0.6 M 190.9,164.7 C 224.6,110.8 260.7,60.5 302.6,0.6 M 194.9,165.1 C 223.6,128.6 245.1,96.1 306.6,1 M 194.9,165.1 C 224.1,119.5 255.3,77.2 306.6,1 M 199.5,164.7 C 237.7,102.2 278.7,46.4 311.2,0.6 M 199.5,164.7 C 232.7,114.4 270.3,61.9 311.2,0.6 M 203.6,165.1 C 229.4,127.5 260,89.6 315.3,0.9 M 203.6,165.1 C 228.3,130.6 250.7,94.5 315.3,1 M 208.2,164.7 C 227.4,127.3 249.1,98.6 319.9,0.6 M 208.2,164.7 C 237,119.8 268.4,74.7 319.9,0.6 M 212.2,165 C 255.7,105.5 293.8,42.4 323.9,0.9 M 212.2,165 C 244,119.1 276.6,72.4 323.9,0.9 M 216.8,164.6 C 255,112.9 288.3,56.1 328.5,0.5 M 216.8,164.6 C 258.5,100.4 303.1,37.1 328.5,0.5 M 220.9,165 C 263.5,102.5 303.8,39.3 332.6,0.9 M 220.9,165 C 260.8,102.3 299.1,45.9 332.6,0.9 M 225.5,164.6 C 266.8,108.4 308.4,48.3 337.2,0.5 M 225.5,164.6 C 264.8,104.7 302.2,48.3 337.2,0.5 M 229.6,165 C 255.2,126.8 280,88.5 341.3,0.9 M 229.6,165 C 260.7,121.7 285.8,80.1 341.3,0.9 M 234.1,164.6 C 275,101.2 317.9,34.7 345.8,0.5 M 234.1,164.6 C 264.8,117.6 299,67.3 345.8,0.5 M 238.2,164.9 C 269.1,126.1 291.5,83 349.9,0.8 M 238.2,164.9 C 270.5,120.7 301.5,78.3 349.9,0.8 M 242.8,164.5 C 267.5,123.5 299.9,77.1 354.5,0.4 M 242.8,164.5 C 268.2,122.3 296.3,82.7 354.5,0.4 M 246.9,164.9 C 289.9,103.1 330.1,46.2 358.6,0.8 M 246.9,164.9 c 24.9,-33 49,-71.4 111.7,-164.1 M 251.5,164.5 C 283.7,114.1 320.3,65.2 363.2,0.4 M 251.5,164.5 C 277.7,129.2 304.1,88.4 363.2,0.4 M 255.5,164.9 c 29.3,-44.9 56,-82.4 112.3,-165 m -112.3,165 C 281.4,128.7 306.8,91.7 367.7,0 M 259.6,165.2 C 285.6,125 310,87.9 371.8,0.3 M 259.6,165.2 C 300.8,102.1 342.6,40.9 371.8,0.3 M 264.2,164.8 C 305.1,110.6 339.6,54.6 375.9,0.7 M 264.2,164.8 C 295.5,117 328.8,67.2 375.9,0.7 M 268.2,165.2 C 288.2,133.3 312.1,96.6 379.4,1.9 M 268.2,165.2 C 290.6,129.7 315.1,95.7 379.4,1.9 M 272.8,164.8 c 27.1,-40.7 52.6,-74.9 109.6,-161 m -109.6,161 C 315.4,102.4 358.2,41.1 382.4,3.8 M 276.9,165.2 C 315.7,107.7 354.1,51.4 385.4,5.8 M 276.9,165.2 C 319.5,103.4 361.7,41.2 385.4,5.8 M 281.5,164.7 C 319.5,108.5 362.7,48.9 387.8,8.4 M 281.5,164.7 C 311.6,120.2 338.8,80.1 387.8,8.4 M 285.6,165.1 C 317.8,116.9 349.5,74.7 389.3,12.8 M 285.6,165.1 C 322.1,110.7 359.9,54.3 389.3,12.8 m -99.1,151.9 c 27.7,-35.4 50.4,-70.1 101,-148.4 m -101,148.4 c 32.4,-52.4 69.5,-102.2 101,-148.4 m -97,148.8 c 26.6,-33.7 48.2,-65.3 98.3,-144.5 m -98.3,144.5 c 25.9,-37.8 52.9,-73.7 98.3,-144.5 m -93.7,144.1 c 19.5,-27.5 41.4,-61.1 95.1,-139.8 m -95.1,139.8 c 20.7,-31.9 43.5,-62.6 95.1,-139.8 M 302.9,165 C 333.7,123.1 369.6,74 393.7,31.5 M 302.9,165 c 24.9,-30.3 46.8,-64.5 90.8,-133.5 M 307.5,164.6 C 343.5,119 370.9,69.3 394.1,37.4 M 307.5,164.6 C 329.8,130.7 354.4,98.4 394.1,37.4 M 311.5,165 C 336.2,123.8 361.1,81.3 393.8,44.1 M 311.5,165 c 31.8,-45.4 63.1,-91.3 82.3,-120.9 m -77.7,120.5 c 16.8,-22.7 29,-47.8 77.5,-113.9 M 316.1,164.6 C 338,134.4 360.6,105.1 393.6,50.7 M 320.2,165 c 14.6,-19 35,-50.2 73.8,-108.4 M 320.2,165 C 344.6,125.5 369.8,90.6 394,56.6 m -69.2,108 c 24.1,-27.5 44.2,-63 68.9,-101.3 M 324.8,164.6 C 341.3,140.5 360.1,113 393.7,63.3 m -64.8,101.6 c 23.7,-31.9 42,-63.7 65.2,-95.8 m -65.2,95.8 c 17.1,-25.8 37.2,-50.4 65.2,-95.8 m -60.6,95.4 c 19.3,-33.6 41.2,-56.5 60.4,-88.7 m -60.4,88.7 c 15.5,-22.7 30.2,-42.7 60.4,-88.7 m -56.4,89.1 c 20.8,-24.4 36.8,-54.6 56.7,-83.2 m -56.7,83.2 c 21.1,-31.2 44.3,-60.5 56.7,-83.2 m -52.1,82.8 c 11.4,-14 24.5,-30.2 51.8,-76.2 m -51.8,76.2 c 13.5,-16 24.3,-35.4 51.8,-76.2 m -47.7,76.6 c 14.7,-21.7 35,-51.4 48.1,-70.7 m -48.1,70.7 c 14.8,-20.3 28.6,-42.7 48.1,-70.7 m -43.5,70.3 c 16.6,-21.7 33.7,-47.2 43.3,-63.6 m -43.3,63.6 c 9,-14.8 18.6,-30.6 43.3,-63.6 m -39.3,63.9 c 14.4,-22.9 31.8,-45.2 39,-57.3 m -39,57.3 c 12.3,-20.6 24.5,-40.1 39,-57.3 m -34.9,57.7 c 3.7,-9.1 12.8,-17.4 35.3,-51.8 m -35.3,51.8 c 9.7,-12.3 19.7,-27.6 35.3,-51.8 m -30.7,51.4 c 7,-12.4 16.3,-32.5 30.5,-44.8 m -30.5,44.8 c 8.8,-13.5 18.8,-24.6 30.5,-44.8 m -25.4,43.6 c 7,-12.3 16.3,-24.4 25.7,-37.7 m -25.7,37.7 c 10.5,-13.7 21.1,-28.9 25.7,-37.7 m -20.5,36.5 c 5.4,-5.3 7.6,-13.4 21.4,-31.4 m -21.4,31.4 c 7.6,-12.1 14.2,-22.2 21.4,-31.4 m -15.8,29.4 c 3.7,-9.3 11,-15.2 15,-22 m -15,22 c 4.9,-7.3 12,-15.5 15,-22"
   id="path17" />
	<path
   class="st1"
   d="m 20,-1.5 c 87.2,1.1 171,2.7 347,0 m -347,0 c 132,-2.9 264.1,-4 347,0 m 0,0 c 15.9,-1.7 27.8,15.2 26.1,33.3 M 367,-1.5 c 18.9,-0.3 27,13.7 26.1,33.3 m 0,0 c 0.2,22 3.9,45.2 0,97.1 m 0,-97.1 c -0.2,26.6 1.2,51.1 0,97.1 m 0,0 c -0.7,18.2 -8.9,31.4 -26.1,33.3 m 26.1,-33.3 c -0.7,23.5 -8.5,32.4 -26.1,33.3 m 0,0 c -72.2,3.6 -145.7,6.4 -347,0 m 347,0 c -103.3,-3.6 -208.3,-4.6 -347,0 m 0,0 C 0.5,161.9 -9.2,150.2 -6.1,128.9 M 20,162.2 C 2,165.3 -6.8,147.9 -6.1,128.9 m 0,0 c 2.8,-24.4 0.7,-47.1 0,-97.1 m 0,97.1 c 0.5,-24.5 1.4,-48.7 0,-97.1 m 0,0 C -6.8,8.7 2.7,2.1 20,-1.5 M -6.1,31.8 C -3.7,5.2 2.2,-1.1 20,-1.5"
   id="path19" />
</g>
</svg>
