<svg version="1.1" xmlns="http://www.w3.org/2000/svg" viewBox="0 0 529.3333129882812 136.66665649414062" width="529.3333129882812" height="136.66665649414062" filter="invert(93%) hue-rotate(180deg)">
  <!-- svg-source:excalidraw -->
  
  <defs>
    <style class="style-fonts">
      @font-face {
        font-family: "Virgil";
        src: url("https://excalidraw.com/Virgil.woff2");
      }
      @font-face {
        font-family: "Cascadia";
        src: url("https://excalidraw.com/Cascadia.woff2");
      }
    </style>
    
  </defs>
  <g stroke-linecap="round" transform="translate(10 10) rotate(0 254.66665649414062 58.33332824707031)"><path d="M7.11 7.5 C7.11 7.5, 7.11 7.5, 7.11 7.5 M7.11 7.5 C7.11 7.5, 7.11 7.5, 7.11 7.5 M3.57 17.67 C4.49 8.76, 11.03 9.41, 16.69 2.58 M3.57 17.67 C6 14.32, 9.42 10.2, 16.69 2.58 M2.65 24.83 C10.32 18.52, 12.57 10.61, 22.99 1.43 M2.65 24.83 C10.03 16.94, 15.48 8.13, 22.99 1.43 M2.39 31.23 C9.27 21.86, 17.38 17.06, 29.29 0.28 M2.39 31.23 C13.13 19.98, 20.33 11.64, 29.29 0.28 M2.78 36.87 C9.64 21.44, 21.45 9.69, 34.93 -0.11 M2.78 36.87 C7.14 28.1, 15.77 21.62, 34.93 -0.11 M2.52 43.27 C16.18 27.56, 30.21 10.92, 39.92 0.25 M2.52 43.27 C16.59 27.5, 31.14 9.47, 39.92 0.25 M2.91 48.91 C8.18 34.8, 18.67 30.9, 45.56 -0.15 M2.91 48.91 C13.55 35.39, 24.71 22.68, 45.56 -0.15 M3.31 54.55 C24.49 32.49, 35.04 14.81, 50.55 0.21 M3.31 54.55 C13.34 45.21, 21.65 33.52, 50.55 0.21 M3.05 60.95 C11.64 46.98, 22.17 34.37, 55.53 0.57 M3.05 60.95 C21.75 38.41, 42.48 14.53, 55.53 0.57 M3.44 66.59 C18.55 43.68, 34.37 26.29, 61.18 0.18 M3.44 66.59 C18.78 49.75, 30.41 38.04, 61.18 0.18 M3.18 72.99 C14.37 54.39, 32.79 43.68, 66.16 0.54 M3.18 72.99 C26.28 48.45, 46.72 22.17, 66.16 0.54 M3.58 78.63 C33.03 48.46, 58.79 20.91, 71.81 0.14 M3.58 78.63 C27.63 47.42, 54.25 18.15, 71.81 0.14 M3.97 84.28 C25.12 56.49, 43.75 34.92, 76.79 0.5 M3.97 84.28 C20.35 69.04, 33.93 49.54, 76.79 0.5 M3.71 90.67 C21.51 69.22, 34.97 53.67, 82.44 0.11 M3.71 90.67 C23.73 64.79, 48.3 40.2, 82.44 0.11 M4.1 96.32 C29.41 69.16, 48.57 51.29, 87.42 0.47 M4.1 96.32 C26.24 67.39, 51.11 38.56, 87.42 0.47 M4.5 101.96 C31.36 66.21, 57.21 41.3, 93.07 0.08 M4.5 101.96 C35.87 65.64, 70.29 30.23, 93.07 0.08 M6.2 106.09 C28.87 77.22, 51.52 51.11, 98.05 0.44 M6.2 106.09 C41.51 69.23, 72.2 28.23, 98.05 0.44 M7.91 110.23 C39.13 79.43, 59.51 48.63, 103.7 0.04 M7.91 110.23 C30.32 82.25, 52.11 58.53, 103.7 0.04 M11.59 112.1 C32.06 91.45, 47.83 68.77, 108.68 0.4 M11.59 112.1 C38.68 76.47, 70.59 40.71, 108.68 0.4 M15.92 113.21 C45.53 79, 74.24 45.67, 114.33 0.01 M15.92 113.21 C46.82 71.86, 80.94 36.18, 114.33 0.01 M19.59 115.08 C57.3 69.07, 94.36 28.77, 119.31 0.37 M19.59 115.08 C43.71 89.27, 67.66 62.62, 119.31 0.37 M23.27 116.95 C57.34 74.56, 88.12 39.14, 124.96 -0.03 M23.27 116.95 C41.22 94.13, 62.86 66.88, 124.96 -0.03 M28.25 117.31 C54.52 93.71, 75 66.36, 129.94 0.33 M28.25 117.31 C66.8 72.25, 104.53 31.39, 129.94 0.33 M33.9 116.92 C54.84 95.56, 79.4 65.79, 135.59 -0.06 M33.9 116.92 C63.73 82.54, 91.96 48.55, 135.59 -0.06 M38.88 117.28 C66.3 84.88, 97.45 53.1, 140.57 0.3 M38.88 117.28 C77.33 73.76, 114.86 31.71, 140.57 0.3 M44.53 116.88 C73.16 76.99, 107.6 39.14, 145.56 0.66 M44.53 116.88 C78.64 75.71, 110.14 37.27, 145.56 0.66 M49.51 117.24 C86.92 83.67, 116.32 42.83, 151.2 0.26 M49.51 117.24 C85.25 75.56, 123.26 31.36, 151.2 0.26 M55.16 116.85 C81.84 91.46, 102.49 63.5, 156.19 0.62 M55.16 116.85 C80.33 88.23, 103.27 60.61, 156.19 0.62 M60.14 117.21 C85.38 94.5, 108.78 67.3, 161.83 0.23 M60.14 117.21 C95.04 77.79, 131.13 33.01, 161.83 0.23 M65.79 116.81 C102.77 76.68, 146.16 27.36, 166.82 0.59 M65.79 116.81 C86.68 90.79, 108.43 66.53, 166.82 0.59 M70.77 117.17 C97.68 85.67, 126.23 60.82, 172.46 0.19 M70.77 117.17 C98.71 84.65, 128.29 51.75, 172.46 0.19 M76.42 116.78 C115.95 74.43, 151.58 23.32, 177.45 0.55 M76.42 116.78 C97.03 91.69, 118.17 66.12, 177.45 0.55 M81.4 117.14 C124.6 73.05, 160.76 33.81, 183.09 0.16 M81.4 117.14 C103.35 93.95, 123.02 69.49, 183.09 0.16 M87.05 116.74 C111.58 89.91, 133.85 56.58, 188.08 0.52 M87.05 116.74 C111.97 90.07, 138.35 60.1, 188.08 0.52 M92.03 117.1 C128.28 74.44, 167.96 31.47, 193.72 0.12 M92.03 117.1 C114.23 87.37, 138.72 60.34, 193.72 0.12 M97.68 116.71 C138.44 73.12, 168.47 29.9, 198.71 0.48 M97.68 116.71 C127.63 83.4, 156.38 49.99, 198.71 0.48 M102.66 117.07 C134.63 73.11, 172.22 38.82, 204.35 0.09 M102.66 117.07 C127.04 95.12, 147.89 66.93, 204.35 0.09 M107.65 117.43 C148.62 69.25, 189.22 29.58, 209.34 0.45 M107.65 117.43 C130.61 87.9, 158.23 57.92, 209.34 0.45 M113.29 117.04 C149.92 78.99, 184.72 36.99, 214.98 0.06 M113.29 117.04 C149.65 80.48, 180.83 42.54, 214.98 0.06 M118.28 117.4 C155.12 74.93, 191.83 39.05, 219.97 0.42 M118.28 117.4 C154.35 77.89, 190.65 36.62, 219.97 0.42 M123.92 117 C143.19 89.38, 163.41 63.05, 225.61 0.02 M123.92 117 C166 70.38, 206.27 27.47, 225.61 0.02 M128.91 117.36 C159.1 89.95, 188.51 55.6, 230.6 0.38 M128.91 117.36 C160.5 82.33, 188.38 49.68, 230.6 0.38 M134.55 116.97 C164.66 82.46, 198.68 42.42, 235.59 0.74 M134.55 116.97 C163.71 80.94, 197.64 44.41, 235.59 0.74 M139.54 117.33 C176.48 69.59, 219.75 24.18, 241.23 0.35 M139.54 117.33 C171.69 81.93, 201.92 44.96, 241.23 0.35 M145.18 116.93 C183.84 78.01, 220.1 32.79, 246.22 0.71 M145.18 116.93 C172.73 84.6, 202.79 52.83, 246.22 0.71 M150.17 117.29 C183.42 73.02, 220.81 35.43, 251.86 0.31 M150.17 117.29 C170.16 90.15, 192.57 68.03, 251.86 0.31 M155.81 116.9 C180.54 87.45, 209.91 54.09, 256.85 0.67 M155.81 116.9 C187.89 79.16, 218.58 42.72, 256.85 0.67 M160.8 117.26 C180.82 91.95, 201.77 65.04, 262.49 0.28 M160.8 117.26 C187.97 84.98, 218.37 49.28, 262.49 0.28 M166.45 116.86 C189.57 87.91, 218.26 58.38, 267.48 0.64 M166.45 116.86 C202.03 77.88, 234.98 39.15, 267.48 0.64 M171.43 117.22 C192.47 92.51, 219.49 67.3, 273.12 0.24 M171.43 117.22 C209.48 77.23, 240.84 36.85, 273.12 0.24 M177.08 116.83 C206.61 78.09, 242.43 43.99, 278.11 0.6 M177.08 116.83 C215.18 75.05, 250.31 33.24, 278.11 0.6 M182.06 117.19 C201.56 90.92, 226.95 60.73, 283.75 0.21 M182.06 117.19 C215.46 80.86, 244.23 45.17, 283.75 0.21 M187.71 116.79 C225.78 72.99, 266.52 30.61, 288.74 0.57 M187.71 116.79 C227.39 69.65, 265.95 25.41, 288.74 0.57 M192.69 117.15 C221.52 81.75, 255.28 46.36, 294.38 0.17 M192.69 117.15 C212.03 92.56, 234.28 66.11, 294.38 0.17 M197.68 117.51 C234.53 70.68, 274.68 30.19, 299.37 0.53 M197.68 117.51 C239.23 73.41, 277.02 28.83, 299.37 0.53 M203.32 117.12 C230.17 78.27, 265.03 42.67, 305.01 0.14 M203.32 117.12 C229.14 84.18, 258.87 53.82, 305.01 0.14 M208.31 117.48 C242.19 72.56, 280.74 32.71, 310 0.5 M208.31 117.48 C243.14 77.19, 276.76 37.34, 310 0.5 M213.95 117.09 C244.9 80.26, 280.24 42.77, 315.64 0.11 M213.95 117.09 C245.31 81.04, 281.92 41.47, 315.64 0.11 M218.94 117.45 C249.93 80.22, 289.67 44.93, 320.63 0.47 M218.94 117.45 C251.61 78.34, 280.45 43.31, 320.63 0.47 M224.58 117.05 C267.57 70.86, 302.54 30.83, 325.62 0.83 M224.58 117.05 C251.04 87.06, 277.2 55.5, 325.62 0.83 M229.57 117.41 C257.13 90.79, 284.65 58.51, 331.26 0.43 M229.57 117.41 C252.56 89.71, 273.32 62.92, 331.26 0.43 M235.21 117.02 C262.14 85.01, 283.44 60.13, 336.25 0.79 M235.21 117.02 C268.6 77.89, 303.46 41.55, 336.25 0.79 M240.2 117.38 C268.47 88.66, 297.04 62.49, 341.89 0.4 M240.2 117.38 C271.49 81.61, 299.71 43.31, 341.89 0.4 M245.84 116.98 C276.19 80.63, 307.65 45.99, 346.88 0.76 M245.84 116.98 C270.41 85.85, 298.3 54.9, 346.88 0.76 M250.83 117.34 C287.82 74.39, 329.64 27.2, 352.52 0.36 M250.83 117.34 C272.25 91.21, 296.39 65.36, 352.52 0.36 M256.47 116.95 C288.55 78.04, 330.09 38.49, 357.51 0.72 M256.47 116.95 C297 76.4, 332.37 32.86, 357.51 0.72 M261.46 117.31 C295.31 77.97, 327.35 40.65, 363.15 0.33 M261.46 117.31 C295.59 78.49, 331.25 43.42, 363.15 0.33 M267.1 116.91 C305.89 66.57, 343.3 25.51, 368.14 0.69 M267.1 116.91 C305.76 74.96, 346.56 28.82, 368.14 0.69 M272.09 117.27 C291.29 91.48, 320.58 63.9, 373.78 0.29 M272.09 117.27 C292.97 89.42, 316.62 64.09, 373.78 0.29 M277.73 116.88 C315.2 72.5, 351.51 26.76, 378.77 0.65 M277.73 116.88 C311.52 78.6, 343.53 43.46, 378.77 0.65 M282.72 117.24 C303.01 85.3, 333.16 61.76, 384.41 0.26 M282.72 117.24 C306.73 92.98, 329.98 63.69, 384.41 0.26 M287.71 117.6 C331.38 66.53, 368.7 22.09, 389.4 0.62 M287.71 117.6 C313.7 84.24, 344.9 48.28, 389.4 0.62 M293.35 117.2 C318.6 85.76, 341.74 59.55, 395.04 0.22 M293.35 117.2 C315.94 85.35, 343.88 57.18, 395.04 0.22 M298.34 117.56 C336.82 71.25, 374.89 31.06, 400.03 0.58 M298.34 117.56 C334.87 73.02, 370.83 33.65, 400.03 0.58 M303.98 117.17 C336.79 86.17, 368.37 51.59, 405.67 0.19 M303.98 117.17 C342.88 71.76, 379.37 25.47, 405.67 0.19 M308.97 117.53 C345.74 74.49, 388.4 29.51, 410.66 0.55 M308.97 117.53 C339.96 77.77, 374.03 42.89, 410.66 0.55 M314.61 117.13 C333.04 91.58, 355.7 72.7, 415.64 0.91 M314.61 117.13 C342.36 85.06, 368.2 56.74, 415.64 0.91 M319.6 117.5 C361.04 76.67, 391.2 33.15, 421.29 0.52 M319.6 117.5 C343.36 90.02, 368.96 61.63, 421.29 0.52 M325.24 117.1 C359.74 83.16, 391.1 40.65, 426.27 0.88 M325.24 117.1 C356.58 84.17, 384.28 47.37, 426.27 0.88 M330.23 117.46 C352.3 85.73, 381.34 56.53, 431.92 0.48 M330.23 117.46 C370.57 76.49, 407.52 33.74, 431.92 0.48 M335.87 117.07 C375.25 76.67, 411.03 31.38, 436.9 0.84 M335.87 117.07 C365.66 79.4, 397.04 44.47, 436.9 0.84 M340.86 117.43 C378.37 76.49, 418.36 29.86, 442.55 0.45 M340.86 117.43 C364.39 92.11, 381.68 71.69, 442.55 0.45 M346.5 117.03 C386.22 67.71, 423.33 23.4, 447.53 0.81 M346.5 117.03 C370.47 89.8, 390.05 64.65, 447.53 0.81 M351.49 117.39 C372.14 88.68, 395.89 65.17, 453.18 0.41 M351.49 117.39 C376.76 89.46, 400.26 59.08, 453.18 0.41 M357.13 117 C379.58 87.28, 400.28 58.95, 458.16 0.77 M357.13 117 C395.64 72.55, 434.12 24.74, 458.16 0.77 M362.12 117.36 C400.75 70.77, 439.08 29.85, 463.81 0.38 M362.12 117.36 C385.58 89.42, 408.8 64.16, 463.81 0.38 M367.76 116.96 C391.23 91.21, 422.2 52.81, 468.79 0.74 M367.76 116.96 C398.56 82.11, 428.94 48.15, 468.79 0.74 M372.75 117.32 C409.07 71.6, 450.47 23.93, 474.44 0.34 M372.75 117.32 C404.24 80.57, 431 46.57, 474.44 0.34 M377.73 117.68 C393.79 93.74, 418.07 68.82, 479.42 0.7 M377.73 117.68 C403.02 93.1, 424.61 65.91, 479.42 0.7 M383.38 117.29 C418.16 71.57, 457.42 28.42, 485.07 0.31 M383.38 117.29 C404.04 93.04, 423.96 69.07, 485.07 0.31 M388.36 117.65 C424 72.76, 463.24 27.14, 488.74 2.18 M388.36 117.65 C410.71 94.24, 429.18 71.5, 488.74 2.18 M394.01 117.25 C426.12 82.7, 452.6 55.49, 493.07 3.29 M394.01 117.25 C432.52 74.3, 467.03 33.16, 493.07 3.29 M398.99 117.61 C433.85 77.53, 468.65 33.4, 496.75 5.16 M398.99 117.61 C426.03 84.66, 449.01 56.77, 496.75 5.16 M404.64 117.22 C433.55 81.63, 456.52 52.49, 501.08 6.28 M404.64 117.22 C439.67 74.16, 478.63 28.91, 501.08 6.28 M409.63 117.58 C427.76 91.26, 453.79 64.77, 503.44 9.66 M409.63 117.58 C441.72 79.34, 475.19 38.38, 503.44 9.66 M415.27 117.18 C441.49 78.29, 477.16 49.16, 505.8 13.03 M415.27 117.18 C438.79 90.75, 462.5 59.23, 505.8 13.03 M420.26 117.54 C441.85 90.44, 471.53 61.84, 508.17 16.41 M420.26 117.54 C443.85 90.4, 469.36 63.22, 508.17 16.41 M425.9 117.15 C445.52 97.46, 457 79.5, 508.56 22.06 M425.9 117.15 C449.35 88.32, 475.08 58.66, 508.56 22.06 M430.89 117.51 C443.78 98.55, 464.02 78.91, 509.61 26.95 M430.89 117.51 C455.34 90.97, 474.97 63.05, 509.61 26.95 M436.53 117.12 C454.58 99.88, 470.29 75.91, 511.32 31.08 M436.53 117.12 C459.39 87.72, 482.09 63.78, 511.32 31.08 M441.52 117.48 C463.59 94.57, 486.7 68.13, 511.06 37.48 M441.52 117.48 C465.28 90.8, 487.81 61.35, 511.06 37.48 M447.16 117.08 C463.24 101.32, 478.28 75.69, 511.45 43.12 M447.16 117.08 C462.45 99.31, 475.92 82.22, 511.45 43.12 M452.15 117.44 C475.89 93.86, 503.78 66.9, 511.19 49.52 M452.15 117.44 C465.72 100.18, 480.33 84.87, 511.19 49.52 M457.13 117.8 C479.03 95.45, 497.09 71.96, 510.93 55.92 M457.13 117.8 C476.69 97.07, 491.82 79.26, 510.93 55.92 M462.78 117.41 C473.97 106.23, 482.71 90.11, 511.32 61.56 M462.78 117.41 C478.07 101.28, 491.4 83, 511.32 61.56 M467.76 117.77 C477.12 103.33, 493.85 90.47, 511.06 67.96 M467.76 117.77 C484.89 97.96, 498.97 79.17, 511.06 67.96 M473.41 117.37 C484.53 107.61, 495.28 89.74, 510.8 74.35 M473.41 117.37 C483.89 106.54, 491.41 96.49, 510.8 74.35 M478.39 117.73 C487.8 107.15, 497.97 96.72, 511.2 80 M478.39 117.73 C489.35 108.55, 494.87 96.64, 511.2 80 M482.72 118.85 C494.72 110.11, 500.93 101.69, 510.93 86.39 M482.72 118.85 C490.94 108.96, 499.64 100.68, 510.93 86.39 M489.02 117.7 C499.16 109.61, 503.09 105.87, 509.36 94.3 M489.02 117.7 C493.3 110.41, 499.66 106.39, 509.36 94.3 M495.32 116.55 C495.39 114.02, 500.02 109.86, 503.19 107.49 M495.32 116.55 C497.92 114.61, 501.1 111.55, 503.19 107.49" stroke="#b2f2bb" stroke-width="0.5" fill="none"></path><path d="M29.17 0 M29.17 0 C166.52 -2.75, 306.63 -1.26, 480.17 0 M29.17 0 C143.16 -0.74, 256.36 -1.31, 480.17 0 M480.17 0 C498.68 1.95, 507.13 8.5, 509.33 29.17 M480.17 0 C497.51 3.09, 506.12 12.52, 509.33 29.17 M509.33 29.17 C510.78 42.55, 512.51 67.41, 509.33 87.5 M509.33 29.17 C507.43 42.9, 507.79 58.69, 509.33 87.5 M509.33 87.5 C511.12 104.67, 498.67 117.93, 480.17 116.67 M509.33 87.5 C505.69 103.73, 502.18 119.81, 480.17 116.67 M480.17 116.67 C320.32 120.55, 159.16 120.93, 29.17 116.67 M480.17 116.67 C366.31 111.94, 254.98 111.76, 29.17 116.67 M29.17 116.67 C12.88 113.49, -1.24 107.04, 0 87.5 M29.17 116.67 C12.32 115.21, -2.84 108.94, 0 87.5 M0 87.5 C4.04 72.77, -1.43 61.24, 0 29.17 M0 87.5 C0.34 74.82, 0.6 60.02, 0 29.17 M0 29.17 C3.82 11.52, 13.62 -2.47, 29.17 0 M0 29.17 C0.77 12.44, 6.74 0.56, 29.17 0" stroke="#1e1e1e" stroke-width="1" fill="none"></path></g></svg>