<?xml version="1.0" encoding="utf-8"?>
<!-- Generator: Adobe Illustrator 24.2.0, SVG Export Plug-In . SVG Version: 6.00 Build 0)  -->
<svg version="1.1" id="Capa_1" xmlns="http://www.w3.org/2000/svg" xmlns:xlink="http://www.w3.org/1999/xlink" x="0px" y="0px"
	 viewBox="0 0 317.7 184.3" style="enable-background:new 0 0 317.7 184.3;" xml:space="preserve">
<style type="text/css">
	.st0{fill:none;stroke:#428B8E;stroke-width:0.5;stroke-linecap:round;}
	.st1{fill:none;stroke:#D1E7E8;stroke-linecap:round;}
</style>
<g transform="translate(10 10) rotate(0 254.00001525878906 90.66666412353516)">
	<path class="st0" d="M-4.2-0.7L-4.2-0.7 M-4.2-0.7L-4.2-0.7 M-7.6,11.7C-5.3,8-1,1.5,2.2-6.4 M-7.6,11.7c3.8-5,5.4-11.3,9.8-18.1
		 M-7.3,17.4C-3.7,7.4-0.7,5.2,6.1-7.5 M-7.3,17.4C-1.9,6.6,2.4-3.2,6.1-7.5 M-7.5,23.8C-4.8,12,3.5,7.7,10-8.7 M-7.5,23.8
		C-3.7,13.9,2.9,5.4,10-8.7 M-7.2,29.4C-0.7,20.3,6.6,3.6,12.3-6.8 M-7.2,29.4c5.9-8,9.1-17.1,19.5-36.2 M-7.4,35.8
		C-4.3,24.1,3.5,17.2,15.4-6.4 M-7.4,35.8C2,22.8,8.9,8.7,15.4-6.4 M-7.6,42.2c5.3-14.9,17-26.4,26.4-49.1 M-7.6,42.2
		C2.6,24.1,11,10,18.9-6.8 M-7.3,47.9C3.1,33.5,14.5,11.6,22-6.5 M-7.3,47.9C-0.6,35.7,5.3,24.8,22-6.5 M-7.5,54.3
		C-1.2,42.1,7.2,26.4,25.5-6.9 M-7.5,54.3C6,31.3,16.3,7.8,25.5-6.9 M-7.2,59.9C5.5,42.4,17.8,20.3,28.5-6.5 M-7.2,59.9
		C4.3,37.8,16.2,15.6,28.5-6.5 M-7.4,66.3C6.9,39,19.9,14.7,32-6.9 M-7.4,66.3C6.5,41,19.8,12.9,32-6.9 M-7.6,72.7
		C4.1,48.5,15.7,29.8,35.1-6.5 M-7.6,72.7C8.3,48.4,22,21,35.1-6.5 M-7.3,78.4C2.8,54.6,16.4,38.7,38.6-6.9 M-7.3,78.4
		C3.8,61.2,13,40.3,38.6-6.9 M-7.5,84.7C11.8,50,27,18.7,41.7-6.6 M-7.5,84.7C8.7,54.2,25.8,22.2,41.7-6.6 M-7.2,90.4
		C8.1,60.9,21.5,36.6,45.2-7 M-7.2,90.4C11.1,57.4,26.9,23.6,45.2-7 M-7.4,96.8C4,73.2,16.5,48.5,48.3-6.6 M-7.4,96.8
		C9.9,64.3,29.2,29.5,48.3-6.6 M-7.6,103.2C3.8,76.3,16,52.4,51.8-7 M-7.6,103.2C10.8,64.9,30.6,31.2,51.8-7 M-7.3,108.8
		C7.1,79.8,22.1,57.9,54.9-6.6 M-7.3,108.8C11.4,76.4,30.2,39.4,54.9-6.6 M-7.5,115.2C9.6,88.3,26.9,58.8,58.4-7 M-7.5,115.2
		C6.5,82.5,22.7,55,58.4-7 M-7.2,120.9C7.4,90.2,24.1,52.6,61.5-6.7 M-7.2,120.9C17.5,74.5,42,28.8,61.5-6.7 M-7.4,127.3
		C9.9,98.7,25,73.1,65-7.1 M-7.4,127.3C9.1,90.6,27.4,55.6,65-7.1 M-7.6,133.7C22.6,80.4,49.6,22.7,68.1-6.7 M-7.6,133.7
		C13,101.8,30.5,68.1,68.1-6.7 M-7.3,139.3C7.8,110.5,26.2,74.6,71.6-7.1 M-7.3,139.3c24.7-44.9,50.2-91,78.9-146.4 M-8.7,148
		C25.6,88.8,53.3,33,74.7-6.7 M-8.7,148C18,100.2,42.6,50.6,74.7-6.7 M-7.6,152.1C11.6,109.7,34,71.4,78.2-7.1 M-7.6,152.1
		C14.3,107.8,37.5,65.6,78.2-7.1 M-7,157C13.6,110.7,40.1,69.5,81.3-6.8 M-7,157c18-34.3,36.1-68.7,88.2-163.8 M-5.5,160.4
		C22.4,108.7,46.9,58,84.3-6.4 M-5.5,160.4C27.6,96.8,63.3,30.1,84.3-6.4 M-3.6,163C33,99.8,64.7,38.3,87.8-6.8 M-3.6,163
		C16.2,122.7,35.5,83.9,87.8-6.8 M-1.8,165.6C25.8,108.8,58,51.1,90.9-6.5 M-1.8,165.6c24.1-47.5,48-91.3,92.7-172.1 M0.1,168.2
		C39.2,102,73.6,33.3,94.4-6.8 M0.1,168.2C28.3,113.8,57,62.2,94.4-6.8 M2,170.9C27.1,122.6,51.4,77.7,97.5-6.5 M2,170.9
		c19-37.7,40.6-76.4,95.6-177.4 M5.1,171.2C41.9,99.1,82.3,30.9,101-6.9 M5.1,171.2C27.7,131.9,49,87.7,101-6.9 M8.1,171.6
		c32.1-61.8,62.3-120,96-178.1 M8.1,171.6c36.2-63.9,71.7-127.7,96-178.1 M10.8,172.7c23.1-49.3,49.4-97.2,96.8-179.6 M10.8,172.7
		C37.9,122,62.6,75.3,107.6-6.9 M14.3,172.3C34.4,132,56.6,91.5,110.7-6.6 M14.3,172.3c30.9-58.9,64-120.8,96.4-178.9 M17.4,172.7
		c25.8-49.9,56.7-100,96.8-179.6 M17.4,172.7C47.9,115.2,78.5,59.1,114.2-6.9 M20.9,172.3C53.5,114.7,85.9,54,117.3-6.6 M20.9,172.3
		C56.1,111,91.3,43.5,117.3-6.6 M24,172.6C57.4,107.3,92.1,45.2,120.8-7 M24,172.6C55.7,116.3,88.4,58.9,120.8-7 M27.5,172.2
		c39.4-64.4,75.4-130,96.4-178.9 M27.5,172.2c38.3-65.1,74.5-135,96.4-178.9 M30.6,172.6C62.1,114.5,90.6,61.4,127.4-7 M30.6,172.6
		C60.3,116.3,89,59.8,127.4-7 M33.7,173c33-62.6,67.7-121.6,96.8-179.6 M33.7,173C63.1,115,92.1,59.7,130.5-6.7 M37.2,172.6
		C59.8,130.8,83.6,86.2,134-7.1 M37.2,172.6C68.5,114.4,100.8,57.1,134-7.1 M40.3,172.9c29.5-62.1,62.2-119.4,96.8-179.6
		 M40.3,172.9c17.5-39.5,39.2-77.3,96.8-179.6 M43.8,172.5c23-37.5,40.8-78.2,96.8-179.6 M43.8,172.5C70.5,126,96.8,74,140.6-7.1
		 M46.9,172.9c31.9-62.3,67.2-118.6,96.8-179.6 M46.9,172.9c28.8-51.4,57.3-103.2,96.8-179.6 M50.4,172.5
		c30.5-51,56.1-106,96.8-179.6 M50.4,172.5c35.1-59.4,69.7-122.9,96.8-179.6 M53.4,172.9c25-41.8,48-84.7,96.8-179.6 M53.4,172.9
		c32.8-59,64.6-118.5,96.8-179.6 M57,172.5c33.6-61.3,65.9-122.6,96.8-179.6 M57,172.5c33.6-63.8,68.6-127.8,96.8-179.6 M60,172.8
		c22.8-42.9,46.7-83.4,96.8-179.6 M60,172.8c25.3-47,48.7-92.3,96.8-179.6 M63.5,172.4c21.6-35.6,42.7-78.3,96.4-178.9 M63.5,172.4
		c34.2-67.6,72.4-136.9,96.4-178.9 M66.6,172.8c36.3-72.3,73.4-136.6,96.8-179.6 M66.6,172.8c30.7-56.9,60.9-116.1,96.8-179.6
		 M70.1,172.4c33.5-61.1,67.9-127.6,96.4-178.9 M70.1,172.4c34.3-56.7,64.6-117.8,96.4-178.9 M73.2,172.8
		c29.1-49.9,52.9-98.9,96.8-179.6 M73.2,172.8C110.5,101.5,147.8,36.1,170-6.9 M76.7,172.4c23-44.4,47.5-87.4,96.4-178.9
		 M76.7,172.4c17.7-37,37.1-75.6,96.4-178.9 M79.8,172.7c38.1-72.1,76-138.8,96.8-179.6 M79.8,172.7
		c39.5-71.5,78.4-142.4,96.8-179.6 M83.3,172.3C115,114.6,143.8,56.7,179.7-6.5 M83.3,172.3c20.7-42.4,41.3-83.4,96.4-178.9
		 M86.4,172.7c26.5-52.3,58-103.5,96.8-179.6 M86.4,172.7C117,116.4,145.3,60.5,183.2-6.9 M89.9,172.3c20.7-37.4,39-80.6,96.4-178.9
		 M89.9,172.3c25.8-49.8,52.7-100.6,96.4-178.9 M93,172.7c27.3-49.8,53.3-94.2,96.8-179.6 M93,172.7c22.4-39,42.9-78.8,96.8-179.6
		 M96.5,172.3C131.4,104.4,165.6,41,192.9-6.6 M96.5,172.3c29.7-55.1,59.2-110,96.4-178.9 M99.6,172.6
		c25.6-47.4,50.1-91.5,96.8-179.6 M99.6,172.6c34.1-62.5,68.3-127,96.8-179.6 M103.1,172.2c23.4-40.5,46.8-87.5,96.4-178.9
		 M103.1,172.2C134,118.9,165.6,60.8,199.4-6.6 M106.2,172.6c30.7-60.8,63-122.5,96.8-179.6 M106.2,172.6
		C136.3,122,164.6,68,202.9-7 M109.3,172.9C135.8,128.8,158.1,78,206-6.7 M109.3,172.9C140.3,114.1,172.7,54.3,206-6.7 M112.7,172.5
		c27.5-50.6,51.6-95.1,96.8-179.6 M112.7,172.5c22.5-38.9,43-78.8,96.8-179.6 M115.8,172.9c27.6-43.1,51.4-89.8,96.8-179.6
		 M115.8,172.9c23-45,48.8-92.6,96.8-179.6 M119.3,172.5c31.6-54,60.1-112.8,96.8-179.6 M119.3,172.5
		c18.7-36.1,39.9-76.6,96.8-179.6 M122.4,172.9c23.5-40.3,44.8-85.8,96.8-179.6 M122.4,172.9c22.3-41.2,45.9-87.8,96.8-179.6
		 M125.9,172.5c20.3-35.7,39.6-73.3,96.8-179.6 M125.9,172.5c33.4-56.6,66-113.9,96.8-179.6 M129,172.8
		c27.8-52.2,54.3-99.8,96.8-179.6 M129,172.8c30.8-53.3,58.9-107.1,96.8-179.6 M132.5,172.4c20.2-38.1,40.5-77.5,96.4-178.9
		 M132.5,172.4c36-67.4,72.6-133.1,96.4-178.9 M135.6,172.8C173,104.1,209,34.9,232.4-6.8 M135.6,172.8
		C163.3,117.7,192.1,66,232.4-6.8 M139.1,172.4c27-49.6,55.2-94.6,96.4-178.9 M139.1,172.4c28.8-55.7,57.4-109.8,96.4-178.9
		 M142.2,172.8c34.5-64,68-124,96.8-179.6 M142.2,172.8C175.3,115.7,207.3,56.3,239-6.9 M145.7,172.4
		c24.4-44.7,48.1-85.3,96.4-178.9 M145.7,172.4c25.8-47.6,47.9-90.5,96.4-178.9 M148.8,172.7C166.9,134.1,190,92,245.6-6.9
		 M148.8,172.7c36.4-65.1,69.7-130.1,96.8-179.6 M152.3,172.3c22.7-46.3,44.8-87.6,96.4-178.9 M152.3,172.3
		c22.2-41,46.9-86.7,96.4-178.9 M155.4,172.7c36.4-73.8,74.2-145.6,96.8-179.6 M155.4,172.7c21.7-40.9,42.6-79.6,96.8-179.6
		 M158.9,172.3c32.3-53.4,63-114.6,96.4-178.9 M158.9,172.3C190,110.4,222.7,50.9,255.2-6.6 M162,172.7
		C191.7,118.4,223.2,63,258.7-7 M162,172.7C197.1,109.1,232.4,43.2,258.7-7 M165.5,172.3c20.2-38.6,42-81.6,96.4-178.9 M165.5,172.3
		c26.8-53.4,56.4-105.5,96.4-178.9 M168.5,172.6C202.3,112.4,234.3,50.9,265.3-7 M168.5,172.6C200.9,115.8,233.1,58.7,265.3-7
		 M172.1,172.2c38.7-64.7,75.4-135.8,96.4-178.9 M172.1,172.2c23.3-40.5,44.9-80.1,96.4-178.9 M175.1,172.6
		C206.4,120,233.9,59.4,271.9-7 M175.1,172.6C202.8,121.5,228.5,69.4,271.9-7 M178.2,173c27.4-57,59.1-108.7,96.8-179.6 M178.2,173
		c22.5-44.5,46.5-86,96.8-179.6 M181.7,172.6c18.2-34.6,41.1-76.3,96.8-179.6 M181.7,172.6c25-44.7,51.8-90.2,96.8-179.6
		 M184.8,172.9c22.5-41.4,42.3-79.6,96.8-179.6 M184.8,172.9C218,112.2,250.1,52.2,281.6-6.7 M188.3,172.5
		c27.2-43.7,51.3-89.9,97.6-181.1 M188.3,172.5C222.6,112.6,257,48.8,285.9-8.6 M191.4,172.9C216,124.6,243.3,74.2,289-8.2
		 M191.4,172.9c33-55.5,63.8-114.4,97.6-181.1 M194.9,172.5c22.3-43.5,46-81.8,96.8-179.6 M194.9,172.5
		c26.6-50.1,54.7-101.1,96.8-179.6 M198,172.9c22.6-43.3,46-91.6,96.8-179.6 M198,172.9c29-58.7,60.1-114,96.8-179.6 M201.5,172.5
		C233,119.3,264.1,60.9,297.1-4.9 M201.5,172.5c23.8-44,47.7-87.1,95.6-177.4 M204.6,172.8c24.2-48.5,53.6-98,94.3-175.1
		 M204.6,172.8C225.2,132,247,93.4,298.9-2.3 M208.1,172.4c34.2-60,64.6-116.7,93.1-172.8 M208.1,172.4
		c27.8-48.5,52.9-94.9,93.1-172.8 M211.2,172.8c37.2-65.1,70.3-134.5,91.1-169.1 M211.2,172.8c25.6-47.6,50.5-96.6,91.1-169.1
		 M214.7,172.4c23.2-39.4,46.8-83.5,88.6-164.5 M214.7,172.4c25.1-44.4,49.6-94.1,88.6-164.5 M217.8,172.8
		c27.3-45.5,50.3-88.5,87-161.5 M217.8,172.8c28.5-45.9,53.1-95.2,87-161.5 M221.3,172.4c23.6-39.6,44.2-80.7,84.2-156.2
		 M221.3,172.4c18.2-33,37-65.5,84.2-156.2 M224.4,172.7c30.8-54.3,61.3-112.4,81.3-150.9 M224.4,172.7
		c17.1-35,34.6-67.9,81.3-150.9 M227.8,172.3c26.2-43.1,51.4-90.4,77.7-144.1 M227.8,172.3c20.6-35.3,41.7-76.1,77.7-144.1
		 M230.9,172.7c26.1-42.9,49.5-94.2,74.8-138.9 M230.9,172.7c22.9-46.7,48.8-90.8,74.8-138.9 M234.4,172.3
		c16.9-31.6,34.1-57.7,71.2-132.1 M234.4,172.3c19.2-41.7,40.7-78.1,71.2-132.1 M237.5,172.6c23.3-51.5,50.2-95.1,68.3-126.8
		 M237.5,172.6c22-41.5,42.5-82,68.3-126.8 M241,172.3c22.5-36,40-78.8,64.7-120 M241,172.3c12.2-27.3,27.7-49.4,64.7-120
		 M244.1,172.6c12.4-30.1,29.9-55.6,61.8-114.7 M244.1,172.6c24.4-42.6,45.2-84.2,61.8-114.7 M247.2,173c15.6-28,28-49.8,58.6-108.7
		 M247.2,173c22.4-40.3,43.8-81.1,58.6-108.7 M250.7,172.6c12.5-27.6,28.5-49.2,54.9-101.9 M250.7,172.6
		c14.3-28.4,27.1-52.9,54.9-101.9 M253.8,172.9c15.8-24,29.4-52.3,52-96.6 M253.8,172.9c19.2-36.7,39.6-75.9,52-96.6 M257.3,172.5
		c16.4-32.4,32.2-68.4,48.4-89.8 M257.3,172.5c13-26,27.8-52.5,48.4-89.8 M260.4,172.9c13.7-20.1,22.1-43.8,45.5-84.5 M260.4,172.9
		c16.3-27.4,29.6-55.1,45.5-84.5 M263.9,172.5c16-22.9,26.9-48.9,41.9-77.7 M263.9,172.5c15.2-27.7,31.1-55.7,41.9-77.7 M267,172.9
		c13.4-20.2,21.6-41.1,39-72.5 M267,172.9c12-22.3,26.5-48.9,39-72.5 M270.5,172.5c10.3-13.5,14.7-28.2,35.4-65.7 M270.5,172.5
		c10.1-19.5,19-34.3,35.4-65.7 M273.6,172.8c14.6-26.2,25.4-43,32.1-59.6 M273.6,172.8c10.3-18.9,22.5-42.8,32.1-59.6 M277.1,172.4
		c4.8-17.5,11.9-23.7,28.9-53.6 M277.1,172.4c11.6-22.9,22.3-40,28.9-53.6 M280.2,172.8c8.1-13.3,11-26.8,25.6-47.5 M280.2,172.8
		c6.2-8.5,11.5-20.6,25.6-47.5 M283.6,172.4c4.2-8.3,10.4-19.5,22.4-41.5 M283.6,172.4c5.5-9.6,11.1-19.3,22.4-41.5 M286.3,173.5
		c2.6-8.3,8.7-17.5,19.5-36.2 M286.3,173.5c5.6-8.3,7.6-18,19.5-36.2 M290.6,171.6c2.4-7.2,8.2-20.9,16.3-30.2 M290.6,171.6
		c6.5-10.4,11-18.9,16.3-30.2 M294.6,170.5c5.7-10.3,10.3-13.1,11.4-21.1 M294.6,170.5c2.4-5.6,6.6-12.4,11.4-21.1"/>
	<path class="st1" d="M10.8-8.8c99,0.4,199.3,1.9,275.2,0 M10.8-8.8c80.3,3.6,161.4,2,275.2,0 M286-8.8c13.9,1.1,22.3,10.4,19.8,32
		 M286-8.8c15.7,1.1,18.2,6.1,19.8,32 M305.8,23.2c2.8,42.6,0.5,75.7,0,117.3 M305.8,23.2c0.7,28,0.6,55,0,117.3 M305.8,140.5
		c1.5,24-4.9,34.6-19.8,32 M305.8,140.5c1.9,17.8-7.9,30.6-19.8,32 M286,172.5c-57.6,1.4-117.3,2-275.2,0 M286,172.5
		c-93.6-3-188.1-3.5-275.2,0 M10.8,172.5c-14.8,0.6-20.6-9.4-19.8-32 M10.8,172.5c-11.1-0.1-18.3-14-19.8-32 M-9,140.5
		c0.4-42.2,3-81.2,0-117.3 M-9,140.5C-9.5,96.6-9.8,48.9-9,23.2 M-9,23.2c0.7-21.9,7.9-35.9,19.8-32 M-9,23.2
		c-1.3-24.8,6.6-27.6,19.8-32"/>
</g>
</svg>
