<svg version="1.1" xmlns="http://www.w3.org/2000/svg" viewBox="0 0 318 461.33331298828125" width="318" height="461.33331298828125" filter="invert(93%) hue-rotate(180deg)">
  <!-- svg-source:excalidraw -->
  
  <defs>
    <style class="style-fonts">
      @font-face {
        font-family: "Virgil";
        src: url("https://excalidraw.com/Virgil.woff2");
      }
      @font-face {
        font-family: "Cascadia";
        src: url("https://excalidraw.com/Cascadia.woff2");
      }
    </style>
    
  </defs>
  <g stroke-linecap="round" transform="translate(10 10) rotate(0 149 220.66665649414062)"><path d="M7.86 8.16 C7.86 8.16, 7.86 8.16, 7.86 8.16 M7.86 8.16 C7.86 8.16, 7.86 8.16, 7.86 8.16 M3.66 19.09 C4.91 18.55, 11.45 8.06, 18.1 2.48 M3.66 19.09 C7.97 15.54, 11.32 9.77, 18.1 2.48 M2.75 26.24 C3.69 22.05, 14.58 15.2, 24.4 1.33 M2.75 26.24 C6.61 21.64, 11.99 15.92, 24.4 1.33 M1.83 33.39 C10.34 26.32, 19.54 11.97, 30.7 0.18 M1.83 33.39 C10.27 23.75, 16.15 17.69, 30.7 0.18 M1.57 39.79 C11.82 29.54, 26.14 11.19, 34.37 2.05 M1.57 39.79 C9.22 29.08, 15.76 21.11, 34.37 2.05 M1.96 45.43 C15.45 31.66, 29.84 13, 39.36 2.41 M1.96 45.43 C14.76 27.9, 28.79 11.89, 39.36 2.41 M1.7 51.83 C15.82 35.57, 30.96 22.39, 45 2.02 M1.7 51.83 C15.15 33.68, 29.21 17.58, 45 2.02 M1.44 58.23 C9.54 48.08, 20.18 28.02, 49.99 2.38 M1.44 58.23 C13.54 43.8, 22.68 33.81, 49.99 2.38 M1.83 63.87 C15.65 48.86, 28.52 31.77, 55.63 1.98 M1.83 63.87 C17.21 49.25, 31.96 30.69, 55.63 1.98 M1.57 70.27 C26.11 45.27, 46.19 15.72, 60.62 2.34 M1.57 70.27 C16.7 53.13, 31.29 36.03, 60.62 2.34 M1.97 75.91 C17.33 50.8, 38.17 29.79, 66.26 1.95 M1.97 75.91 C14.69 59.42, 32.25 42.56, 66.26 1.95 M1.71 82.31 C15.72 63.61, 27.47 50.85, 71.25 2.31 M1.71 82.31 C22.97 60.05, 42.66 38.83, 71.25 2.31 M1.44 88.71 C23.75 68.75, 40.26 41.63, 76.89 1.91 M1.44 88.71 C17.54 69.96, 34.98 48.85, 76.89 1.91 M1.84 94.35 C22.5 67.93, 47.24 44.29, 81.88 2.27 M1.84 94.35 C24.87 67.61, 47.8 43.88, 81.88 2.27 M1.58 100.75 C24.1 70.85, 50.37 46.08, 87.52 1.88 M1.58 100.75 C23.47 76.2, 42.89 52.22, 87.52 1.88 M1.97 106.39 C27.9 79.44, 51.7 46.78, 92.51 2.24 M1.97 106.39 C23.27 83.2, 47.93 55.5, 92.51 2.24 M1.71 112.79 C29.83 84.29, 47.79 54.62, 98.15 1.85 M1.71 112.79 C33.69 77.96, 62.47 43.97, 98.15 1.85 M1.45 119.19 C31.19 85.93, 65.4 40.67, 103.14 2.21 M1.45 119.19 C24.08 92.68, 45.67 66.75, 103.14 2.21 M1.84 124.83 C31.23 91.1, 58.1 67.47, 108.78 1.81 M1.84 124.83 C25.74 96.94, 51.1 69.21, 108.78 1.81 M1.58 131.23 C41.01 85.92, 87.63 33.99, 113.77 2.17 M1.58 131.23 C36.86 93.77, 65.47 55.84, 113.77 2.17 M1.98 136.87 C34.32 104.71, 62.63 65.16, 119.41 1.78 M1.98 136.87 C26.87 107.9, 53.67 83.07, 119.41 1.78 M1.72 143.27 C26.71 109.45, 56.03 73.87, 124.4 2.14 M1.72 143.27 C31.14 108.25, 58.16 75.55, 124.4 2.14 M1.45 149.67 C47.36 100.41, 81.76 56.87, 130.04 1.74 M1.45 149.67 C38.85 106.88, 74.24 62.85, 130.04 1.74 M1.85 155.31 C32.28 124.55, 64.78 87.19, 135.03 2.1 M1.85 155.31 C35.37 116.32, 69.06 78.69, 135.03 2.1 M1.59 161.71 C48.29 104.6, 103.95 49.01, 140.67 1.71 M1.59 161.71 C39.89 119.5, 75.88 74.3, 140.67 1.71 M1.98 167.35 C36.47 122.1, 73.37 83.61, 145.66 2.07 M1.98 167.35 C33.38 128.95, 67.08 90.36, 145.66 2.07 M1.72 173.75 C53.44 116.48, 105.78 58.76, 150.65 2.43 M1.72 173.75 C33.9 135.4, 63.89 100.22, 150.65 2.43 M1.46 180.14 C39.24 132.95, 84.75 83.72, 156.29 2.03 M1.46 180.14 C39.27 138.51, 74.85 96.77, 156.29 2.03 M1.85 185.79 C56.9 123.83, 113.76 66.6, 161.28 2.39 M1.85 185.79 C52.77 127.97, 105.68 70.83, 161.28 2.39 M1.59 192.19 C29.71 155.76, 64.97 116.94, 166.92 2 M1.59 192.19 C55.19 133.29, 106.93 70.87, 166.92 2 M1.99 197.83 C47.25 147.5, 94.02 96.82, 171.91 2.36 M1.99 197.83 C44.81 150.32, 89.85 97.63, 171.91 2.36 M1.72 204.23 C48.46 151.43, 92.11 100.56, 177.55 1.96 M1.72 204.23 C42.6 153.8, 85.38 104.55, 177.55 1.96 M1.46 210.62 C67.67 137.12, 129.91 65.41, 182.54 2.32 M1.46 210.62 C49.72 155.77, 98.45 100.15, 182.54 2.32 M1.86 216.27 C71.86 134.49, 146.36 56.74, 188.18 1.93 M1.86 216.27 C64.14 145.08, 125.3 73.35, 188.18 1.93 M1.6 222.66 C37.74 174.01, 80.28 128.76, 193.17 2.29 M1.6 222.66 C73.63 138.91, 147.36 54.91, 193.17 2.29 M1.99 228.31 C49.31 178.48, 97.83 122.94, 198.81 1.9 M1.99 228.31 C60.94 156.11, 121.37 87.17, 198.81 1.9 M1.73 234.71 C45.02 184.66, 92.43 130.34, 203.8 2.26 M1.73 234.71 C57.39 174.21, 112.37 112.67, 203.8 2.26 M1.47 241.1 C51 188.1, 96.39 135.82, 209.44 1.86 M1.47 241.1 C82.01 149.08, 162.03 57.03, 209.44 1.86 M1.86 246.75 C77.14 156.53, 161.49 66.22, 214.43 2.22 M1.86 246.75 C84.64 148.83, 168.21 52.88, 214.43 2.22 M1.6 253.14 C52.62 195.72, 105.21 136.35, 220.07 1.83 M1.6 253.14 C82.1 155.66, 163.47 59.34, 220.07 1.83 M2 258.79 C89.8 166, 166.67 69.86, 225.06 2.19 M2 258.79 C90.45 156.18, 180.72 52.59, 225.06 2.19 M1.73 265.19 C74.93 178.31, 145.9 97.77, 230.7 1.79 M1.73 265.19 C51.34 203.22, 104.63 143.97, 230.7 1.79 M1.47 271.58 C76.34 189.11, 150.12 102, 235.69 2.15 M1.47 271.58 C89.78 172.75, 180.57 70.2, 235.69 2.15 M1.87 277.23 C92.97 171.85, 178.24 72.95, 241.33 1.76 M1.87 277.23 C61.25 204.14, 122.74 133.48, 241.33 1.76 M1.61 283.62 C70.99 205.4, 142.94 126.2, 246.32 2.12 M1.61 283.62 C95.31 177.14, 188.03 70.47, 246.32 2.12 M2 289.27 C81.8 200.74, 157.11 109.89, 251.96 1.72 M2 289.27 C80.12 199.34, 159.64 108.81, 251.96 1.72 M1.74 295.66 C83.97 202.31, 163 114.07, 256.95 2.08 M1.74 295.66 C82.39 207.79, 158.68 118.41, 256.95 2.08 M1.48 302.06 C80.99 212.04, 158.7 121.86, 262.59 1.69 M1.48 302.06 C58.72 230.73, 118.51 163.35, 262.59 1.69 M1.87 307.71 C109.85 186.81, 210.25 67.34, 268.23 1.29 M1.87 307.71 C58.35 242.25, 113.49 176.4, 268.23 1.29 M1.61 314.1 C70.33 238.56, 135.86 160.85, 272.56 2.41 M1.61 314.1 C97.85 200.92, 193.78 90.86, 272.56 2.41 M2.01 319.75 C97.1 210.74, 186.85 104.87, 277.55 2.77 M2.01 319.75 C57.79 252.18, 114.71 186.39, 277.55 2.77 M1.74 326.14 C106.84 203.93, 216.03 79.7, 281.88 3.88 M1.74 326.14 C73.98 247.37, 143.5 167.86, 281.88 3.88 M1.48 332.54 C72.87 242.16, 146.47 157.67, 284.9 6.51 M1.48 332.54 C103.28 212.04, 208.4 94.12, 284.9 6.51 M1.88 338.19 C73.51 256.05, 147.86 169.31, 288.57 8.38 M1.88 338.19 C104.29 220.06, 207.88 98.75, 288.57 8.38 M1.62 344.58 C95.84 235.38, 186.23 126.44, 291.59 11 M1.62 344.58 C60.67 278.71, 119.87 209.73, 291.59 11 M2.01 350.23 C101.56 236.89, 195.37 127.57, 294.61 13.63 M2.01 350.23 C106.82 229.86, 212.6 109.43, 294.61 13.63 M1.75 356.62 C111.53 228.91, 219.28 99.23, 295.66 18.51 M1.75 356.62 C61.34 287.49, 121.92 217.48, 295.66 18.51 M1.49 363.02 C63.24 291.74, 125.88 220.71, 296.71 23.4 M1.49 363.02 C119.58 226.48, 237.45 91.16, 296.71 23.4 M1.88 368.66 C93.86 261.37, 187.75 154.41, 297.76 28.29 M1.88 368.66 C89.35 272.51, 174.51 172.7, 297.76 28.29 M1.62 375.06 C112.28 246.86, 221.47 120.52, 298.82 33.18 M1.62 375.06 C78.56 288.52, 154.46 200.98, 298.82 33.18 M2.02 380.71 C103.23 262.42, 204.87 147.28, 299.21 38.82 M2.02 380.71 C104.59 258.74, 207.7 141.37, 299.21 38.82 M1.75 387.1 C86.3 295.28, 167.37 199.97, 298.95 45.22 M1.75 387.1 C61.41 316.69, 122.78 246.22, 298.95 45.22 M1.49 393.5 C81.45 302.43, 165.35 206.26, 299.34 50.86 M1.49 393.5 C95.78 285.11, 191.39 176.62, 299.34 50.86 M1.89 399.14 C78.8 315.13, 152.71 230.07, 299.08 57.26 M1.89 399.14 C100.87 282.96, 199.65 169.1, 299.08 57.26 M1.63 405.54 C84.99 310.32, 166.67 215.8, 298.82 63.66 M1.63 405.54 C89.74 303.46, 181.01 199.78, 298.82 63.66 M2.02 411.18 C116.17 278.61, 228.01 146.29, 299.21 69.3 M2.02 411.18 C68.78 336.58, 131.06 263.67, 299.21 69.3 M3.07 416.07 C95.4 312.31, 186.84 206.38, 298.95 75.7 M3.07 416.07 C71 336.63, 142.77 254.57, 298.95 75.7 M4.12 420.96 C75.61 338.04, 149.15 252.54, 299.35 81.34 M4.12 420.96 C75.54 338.04, 147.36 255.37, 299.35 81.34 M5.17 425.85 C80.48 342.6, 152.11 258.02, 299.09 87.74 M5.17 425.85 C74.39 347.49, 144 265.12, 299.09 87.74 M6.22 430.74 C114.03 302.73, 222.12 176.81, 298.82 94.14 M6.22 430.74 C96.07 322.48, 188.62 217.43, 298.82 94.14 M9.9 432.61 C77.8 359.24, 139.67 287.57, 299.22 99.78 M9.9 432.61 C86.05 342.71, 163.1 255.97, 299.22 99.78 M12.92 435.23 C114.75 314.36, 219.25 196.59, 298.96 106.18 M12.92 435.23 C101.93 331.42, 195.54 225.3, 298.96 106.18 M15.94 437.86 C84.52 360.71, 156.42 282, 299.35 111.82 M15.94 437.86 C77.8 367.76, 138.12 296.59, 299.35 111.82 M18.95 440.48 C71.46 372.83, 127.05 310.68, 299.09 118.22 M18.95 440.48 C93.19 351.05, 170.85 262.26, 299.09 118.22 M23.94 440.84 C128.57 324.79, 228.14 206.12, 298.83 124.62 M23.94 440.84 C101.7 352.51, 178.91 264.38, 298.83 124.62 M28.27 441.96 C117.06 341.85, 202.97 238.39, 299.22 130.26 M28.27 441.96 C130.86 321.82, 235.31 203, 299.22 130.26 M33.26 442.32 C132.16 327.7, 229.17 213.66, 298.96 136.66 M33.26 442.32 C127.83 328.7, 222.06 220.15, 298.96 136.66 M38.25 442.68 C132.86 336.53, 227.39 228.45, 299.36 142.3 M38.25 442.68 C129.33 335.42, 218.71 231.66, 299.36 142.3 M43.89 442.28 C99.84 374.46, 156.65 307.9, 299.1 148.7 M43.89 442.28 C111.47 366.71, 172.59 293.39, 299.1 148.7 M48.88 442.64 C143.06 331.86, 238.55 219.72, 298.83 155.1 M48.88 442.64 C119.98 359.11, 194.69 273.07, 298.83 155.1 M54.52 442.25 C118.34 373.6, 174.51 302.25, 299.23 160.74 M54.52 442.25 C123.78 366.78, 190.71 291.92, 299.23 160.74 M59.51 442.61 C115.98 372.73, 180.58 299.31, 298.97 167.14 M59.51 442.61 C116.02 372.6, 175.57 305.23, 298.97 167.14 M65.15 442.21 C152.69 342.48, 238.53 245.21, 299.36 172.78 M65.15 442.21 C117.09 386.01, 167.67 325.76, 299.36 172.78 M70.14 442.57 C138.29 362.74, 210.83 282.71, 299.1 179.18 M70.14 442.57 C123.87 384.13, 177.05 321.53, 299.1 179.18 M75.78 442.18 C131.94 375.62, 185.72 315.01, 298.84 185.58 M75.78 442.18 C126.46 385.16, 176.97 327.36, 298.84 185.58 M80.77 442.54 C131.48 381.62, 181.07 323.69, 299.23 191.22 M80.77 442.54 C160.69 346.63, 242.12 253.1, 299.23 191.22 M86.41 442.14 C161.78 361.2, 230.3 278.38, 298.97 197.62 M86.41 442.14 C146.58 370.75, 209.79 297.43, 298.97 197.62 M91.4 442.5 C131.4 394.21, 175.35 342.45, 299.37 203.26 M91.4 442.5 C134.1 390.5, 179.45 339.91, 299.37 203.26 M97.04 442.11 C145.76 384.41, 193.31 332.24, 299.11 209.66 M97.04 442.11 C175.62 352.47, 253.37 264.27, 299.11 209.66 M102.03 442.47 C172.22 360.44, 242.42 279.78, 298.84 216.06 M102.03 442.47 C179.34 354.07, 256.58 265.21, 298.84 216.06 M107.67 442.07 C177.06 362.83, 250.68 280.88, 299.24 221.7 M107.67 442.07 C161.19 380.43, 212.19 321.66, 299.24 221.7 M112.66 442.43 C169.46 375.93, 226.24 313.74, 298.98 228.1 M112.66 442.43 C178.65 365.79, 246.22 287.35, 298.98 228.1 M118.3 442.04 C165.62 392.53, 207.4 343.42, 299.37 233.74 M118.3 442.04 C178.38 368.81, 243.79 297.15, 299.37 233.74 M123.29 442.4 C167.56 395.91, 206.03 351.74, 299.11 240.14 M123.29 442.4 C170.06 389.53, 217.3 338.13, 299.11 240.14 M128.93 442.01 C165.27 402.18, 203.51 357.08, 298.85 246.54 M128.93 442.01 C166.55 397.8, 206 354.6, 298.85 246.54 M133.92 442.37 C191.48 380.04, 253.44 311.57, 299.24 252.18 M133.92 442.37 C177.75 397.93, 218.34 349.74, 299.24 252.18 M138.9 442.73 C202.82 375.77, 257.69 305.12, 298.98 258.58 M138.9 442.73 C180.73 393.79, 224.13 346.9, 298.98 258.58 M144.55 442.33 C191.98 382.52, 239.9 322.55, 298.72 264.97 M144.55 442.33 C204.22 375.43, 263.5 307.33, 298.72 264.97 M149.53 442.69 C179.94 409.19, 206.46 372.74, 299.12 270.62 M149.53 442.69 C191.75 397.11, 234.25 351.41, 299.12 270.62 M155.18 442.3 C185.81 410.65, 222.01 367.94, 298.85 277.01 M155.18 442.3 C203.77 383.29, 252.9 328.55, 298.85 277.01 M160.16 442.66 C206.55 396.85, 248.09 343.95, 299.25 282.66 M160.16 442.66 C194.85 403.14, 232.02 360.51, 299.25 282.66 M165.81 442.26 C211.68 392.15, 250.91 342.81, 298.99 289.06 M165.81 442.26 C202.08 401.08, 241.31 360.27, 298.99 289.06 M170.79 442.62 C212.41 389.31, 256.95 347.03, 298.73 295.45 M170.79 442.62 C202.63 404.91, 233.94 370.33, 298.73 295.45 M176.44 442.23 C219.1 398.49, 255.73 349.93, 299.12 301.1 M176.44 442.23 C222.8 389.3, 270.85 338.65, 299.12 301.1 M181.42 442.59 C207.84 415.77, 235.59 386.84, 298.86 307.49 M181.42 442.59 C210.55 413.67, 235.74 381.27, 298.86 307.49 M187.07 442.19 C223.8 400.64, 267.14 350.87, 299.25 313.14 M187.07 442.19 C220.63 404.9, 253.31 365.29, 299.25 313.14 M192.05 442.55 C231.88 401.11, 271.46 355.1, 298.99 319.54 M192.05 442.55 C214.8 413.58, 238.95 384.15, 298.99 319.54 M197.7 442.16 C236.11 398.43, 277.04 354.48, 298.73 325.93 M197.7 442.16 C230.22 401.37, 263.31 361.9, 298.73 325.93 M202.68 442.52 C217.78 421.91, 240.07 401.12, 299.13 331.58 M202.68 442.52 C229.25 414.57, 255.66 383.65, 299.13 331.58 M208.33 442.12 C233.51 410.86, 262.02 371.84, 298.86 337.97 M208.33 442.12 C234.87 411.43, 262.48 382.98, 298.86 337.97 M213.31 442.48 C240.65 411.09, 269.73 379.19, 299.26 343.62 M213.31 442.48 C248.09 405.1, 282.05 366.4, 299.26 343.62 M218.96 442.09 C237.79 422.54, 252.35 401.16, 299 350.01 M218.96 442.09 C245.89 409.42, 272.23 378.8, 299 350.01 M223.94 442.45 C247.82 413.82, 274.78 387.35, 298.74 356.41 M223.94 442.45 C253.2 410.64, 284.04 377.24, 298.74 356.41 M229.59 442.05 C250.26 419.36, 263.39 402.61, 299.13 362.06 M229.59 442.05 C253.78 411.84, 279.75 379.45, 299.13 362.06 M234.57 442.42 C255.51 424.51, 267.81 404.98, 298.87 368.45 M234.57 442.42 C258.73 414.5, 280.23 390.55, 298.87 368.45 M240.22 442.02 C251.82 421.01, 272.99 407.36, 299.26 374.1 M240.22 442.02 C259.36 420.38, 278.13 399.97, 299.26 374.1 M245.2 442.38 C260.63 428.33, 279.51 404.29, 299 380.49 M245.2 442.38 C260.71 423.17, 276.25 407.67, 299 380.49 M250.19 442.74 C263.27 425, 275.34 413.75, 298.74 386.89 M250.19 442.74 C266.87 421.93, 285.79 403.79, 298.74 386.89 M255.83 442.35 C264.87 429.99, 275.81 418.12, 299.13 392.54 M255.83 442.35 C265.37 430.02, 276.83 419.58, 299.13 392.54 M260.82 442.71 C275.82 426.99, 286.79 414.28, 298.87 398.93 M260.82 442.71 C272.55 426.39, 284.47 413.67, 298.87 398.93 M266.46 442.31 C275.36 429.94, 281.18 427.09, 299.27 404.58 M266.46 442.31 C274.84 432.59, 285.1 419.63, 299.27 404.58 M273.42 440.41 C279.75 435.54, 284.68 422.83, 299.66 410.22 M273.42 440.41 C282.5 429.97, 288.63 421.36, 299.66 410.22 M279.72 439.26 C286.93 433.68, 295.8 421.71, 298.09 418.13 M279.72 439.26 C283.3 431.92, 289.9 427.85, 298.09 418.13" stroke="#4dabf7" stroke-width="0.5" fill="none"></path><path d="M32 0 M32 0 C120.16 0.8, 208.03 -1.87, 266 0 M32 0 C92.52 2.66, 150.4 2.03, 266 0 M266 0 C289.2 -3.78, 301.59 14.59, 298 32 M266 0 C284.99 -2.23, 298.58 7.59, 298 32 M298 32 C296.84 128.86, 295.19 229.24, 298 409.33 M298 32 C295.63 115.96, 295.11 199.48, 298 409.33 M298 409.33 C297.37 432.3, 283.33 443.74, 266 441.33 M298 409.33 C295.73 434.53, 282.75 437.37, 266 441.33 M266 441.33 C208.1 436.28, 143.83 439.03, 32 441.33 M266 441.33 C183.33 437.24, 98.43 439.19, 32 441.33 M32 441.33 C14.17 438.4, -1.97 427.99, 0 409.33 M32 441.33 C7.46 441.1, -2.24 431.32, 0 409.33 M0 409.33 C1.08 283.1, 1.12 153.2, 0 32 M0 409.33 C-2.55 288.88, -3.22 170.61, 0 32 M0 32 C2.61 9.04, 14.04 -3.86, 32 0 M0 32 C-0.36 9.89, 8.8 3.03, 32 0" stroke="#1e1e1e" stroke-width="1" fill="none"></path></g></svg>