<?xml version="1.0" encoding="utf-8"?>
<!-- Generator: Adobe Illustrator 24.2.0, SVG Export Plug-In . SVG Version: 6.00 Build 0)  -->
<svg version="1.1" id="Capa_1" xmlns="http://www.w3.org/2000/svg" xmlns:xlink="http://www.w3.org/1999/xlink" x="0px" y="0px"
	 viewBox="0 0 450.2 285" style="enable-background:new 0 0 450.2 285;" xml:space="preserve">
<style type="text/css">
	.st0{fill:none;stroke:#5C8F91;stroke-width:0.202;stroke-linecap:round;stroke-miterlimit:1.6158;}
	.st1{fill:none;stroke:#C4DAE8;stroke-width:0.4039;stroke-linecap:round;stroke-miterlimit:1.6158;}
</style>
<g transform="translate(10 10) rotate(0 109.00001525878906 175.66666412353516)">
	<path class="st0" d="M2.4,258.8L2.4,258.8 M2.4,258.8L2.4,258.8 M18.1,265.8c-4.7-4.7-13-13.3-22.9-19.9 M18.1,265.8
		c-6.3-7.8-14.2-11.1-22.9-19.9 M25.3,265.2c-12.6-7.4-15.4-13.5-31.5-27.3 M25.3,265.2c-13.6-11.2-26-19.7-31.5-27.3 M33.3,265.6
		c-14.9-5.6-20.3-22.5-41-35.6 M33.3,265.6c-12.5-7.7-23.2-21.2-41-35.6 M40.5,265.1c-11.6-13.3-32.6-28.2-45.8-39.8 M40.5,265.1
		c-10.1-12-21.6-18.6-45.8-39.8 M48.5,265.4C33.7,259.1,25,243.1-4.8,219 M48.5,265.4C32,246.3,14.3,232.2-4.8,219 M56.6,265.7
		C37.9,254.8,23.2,231-5.3,211.9 M56.6,265.7C33.8,245,15.9,227.9-5.3,211.9 M63.7,265.2C45.6,244,18,220.8-4.9,205.6 M63.7,265.2
		c-15.4-13.7-29.1-25.7-68.6-59.7 M71.8,265.6c-15.3-12.8-35.2-30-77.2-67.1 M71.8,265.6c-29-27.6-58.7-48.5-77.2-67.1 M79,265.1
		c-22.1-26-50-51.1-83.9-72.9 M79,265.1c-28-23.6-56-47.8-83.9-72.9 M87,265.4C52.5,236.3,21.9,209.8-5.4,185 M87,265.4
		c-32-28.3-67.5-55.5-92.5-80.4 M95.1,265.7c-30.6-23.8-54.2-47.4-100.1-87 M95.1,265.7c-30.7-32.4-65.3-60.3-100.1-87 M102.2,265.2
		c-30-20.7-50.1-48.3-107.7-93.6 M102.2,265.2c-21.6-22.6-48-41.5-107.7-93.6 M110.3,265.6C66.5,226.3,26.9,195.4-5,165.3
		 M110.3,265.6C71.8,232.5,31.3,197.7-5,165.3 M118.4,265.9C80.8,234.4,50,206.9-5.5,158.2 M118.4,265.9
		c-41.9-37.6-84.9-70-123.9-107.7 M125.5,265.4C95.8,242.1,64.6,216.7-5.1,151.9 M125.5,265.4c-41.1-35.3-85-74.6-130.6-113.5
		 M133.6,265.7C99.8,242.9,69.8,218-4.6,145.6 M133.6,265.7C85.5,228.6,43.3,188.5-4.6,145.6 M140.7,265.2
		c-36.7-29.5-64.3-59.9-145.8-126.8 M140.7,265.2C99.8,227,53.1,188.8-5.1,138.5 M148.8,265.6C115,231,78,195.9-4.6,132.2
		 M148.8,265.6c-41-28.3-75.5-61.2-153.4-133.4 M156.9,265.9c-39-30.1-86.7-64.3-162-140.9 M156.9,265.9
		C97.9,215.2,39.9,165-5.1,125 M164,265.4c-35.8-35-67.9-65.6-168.7-146.7 M164,265.4C118,232,74,194.9-4.7,118.7 M172.1,265.7
		C104.8,204.3,32,149.2-5.2,111.6 M172.1,265.7c-40.2-41.9-82.8-77.6-177.3-154.1 M180.2,266.1c-36.4-30.7-81.7-68.3-184.9-160.7
		 M180.2,266.1C123.4,215.8,65.3,163.7-4.7,105.3 M187.3,265.6C113.6,196.5,44.2,141.1-5.2,98.2 M187.3,265.6
		C127.9,212,66.1,162.5-5.2,98.2 M195.4,265.9c-53.2-39-101.4-84.3-200.2-174 M195.4,265.9c-55.6-44.5-108.7-91.6-200.2-174
		 M202.5,265.4c-58.7-42.2-111-96.4-207.8-180.6 M202.5,265.4c-43.5-36.9-87.2-74-207.8-180.6 M210.6,265.7
		C143.9,207.6,78.5,156.4-4.8,78.5 M210.6,265.7C128.4,196.6,42.3,122.3-4.8,78.5 M218.7,266.1c-83-77.4-163.9-145-223-193.9
		 M218.7,266.1c-52.9-42-103.8-83.1-223-193.9 M225.8,265.6C149.5,205.5,72.3,136.2-4.9,65 M225.8,265.6
		C162.3,213.6,103.4,161.8-4.9,65 M233.9,265.9C143.6,180.5,50.1,104.3-4.4,58.7 M233.9,265.9c-74-62.1-144.2-125-238.3-207.1
		 M241,265.4C174.1,209.1,111.2,154.2-4.9,51.6 M241,265.4C188.6,222.8,135,174.7-4.9,51.6 M249.1,265.7
		C146.7,180.4,49.2,88.9-4.4,45.3 M249.1,265.7c-56.4-51.8-118.6-101-253.5-220.4 M257.2,266C166.7,189.8,80.8,117.2-5,38.2
		 M257.2,266C163.2,180.4,69.3,96.6-5,38.2 M264.3,265.6c-73-56.7-144.7-120.1-268.8-233.7 M264.3,265.6
		C188.8,200.5,118.4,140.1-4.5,31.9 M272.4,265.9C209.8,214.3,147.2,159.3-6.9,23.1 M272.4,265.9C179.9,187.1,83.7,104-6.9,23.1
		 M280.5,266.2c-79.8-67.5-160.6-144.7-285-247.7 M280.5,266.2c-91-78.3-180.2-156.7-285-247.7 M287.6,265.7
		C193.6,180.3,95.6,95.5-3.1,13 M287.6,265.7C186.7,173.9,78.5,81.7-3.1,13 M295.7,266C189.2,176.4,86.3,84.7-0.8,8.4 M295.7,266
		C202.1,181.4,106.9,95.4-0.8,8.4 M302.8,265.5C193.7,161,82.4,63.2,2.5,4.5 M302.8,265.5C192.2,162.5,75.8,63.8,2.5,4.5
		 M310.9,265.9C213.3,180.6,121.5,101.2,5.9,0.7 M310.9,265.9c-95.3-81-190-160.3-305-265.1 M318.9,266.2
		C211.2,172.9,107.2,77.6,9.2-3.1 M318.9,266.2C219.9,184,124.4,102.4,9.2-3.1 M326.1,265.7C252.7,201.6,176.3,135.5,15.4-4.4
		 M326.1,265.7C226.1,178.2,127.4,89.7,15.4-4.4 M334.1,266C227.6,180.7,125.4,88.9,21.5-5.7 M334.1,266
		c-68-51-133.3-110-312.6-271.8 M341.3,265.5C274.9,202.9,205.1,149.2,27.7-7.1 M341.3,265.5C258.6,190,169.6,115.5,27.7-7.1
		 M349.4,265.9C241.3,173.9,138.9,76.6,33.9-8.4 M349.4,265.9c-90.8-81.5-182.1-162-315.5-274.3 M357.4,266.2
		C266.4,181.9,171,105.8,41.9-8.1 M357.4,266.2C251.6,167.1,140.6,69.9,41.9-8.1 M364.6,265.7C290,196.3,214.2,130.6,49.1-8.6
		 M364.6,265.7C260.3,173.1,155.8,82.5,49.1-8.6 M372.6,266C265.2,172,157.1,79.2,57.2-8.2 M372.6,266
		C260.2,169.8,147.4,71,57.2-8.2 M380.7,266.4C306.5,202,235,136.5,65.2-7.9 M380.7,266.4c-82-70.9-161.4-138.2-315.5-274.3
		 M387.8,265.9c-65-61.7-137.4-121.4-315.5-274.2 M387.8,265.9C268.5,166.8,147.6,60.2,72.4-8.4 M396.9,267
		C272.1,163.7,156,58.8,80.4-8.1 M396.9,267C296.1,180.2,192.9,93.1,80.4-8.1 M403.1,265.7C292.7,168.9,175.8,69.6,87.6-8.6
		 M403.1,265.7C301.8,169.8,195.2,81.6,87.6-8.6 M409.2,264.4C322.4,185,236.8,114.9,95.6-8.2 M409.2,264.4
		C286.5,159.8,170.8,55.8,95.6-8.2 M415.4,263C337.5,197.1,261,128.5,103.7-7.9 M415.4,263C350.7,212.2,285.1,157.5,103.7-7.9
		 M421.6,261.7C297.6,156.1,180.2,50.8,110.9-8.4 M421.6,261.7C297.6,152.2,175,44.3,110.9-8.4 M424.9,257.9
		c-98.5-86.3-196.9-167.7-306-266 M424.9,257.9c-71.7-57-141.2-114.8-306-266 M427.3,253.3C339,179.9,252.1,97.8,126.1-8.6
		 M427.3,253.3C332.4,171.2,238.7,92.8,126.1-8.6 M430.6,249.4c-62.9-55.3-131.3-106-296.4-257.7 M430.6,249.4
		C348,179.7,264.1,107.6,134.1-8.2 M433.9,245.6C354.7,175.5,281.2,107.9,142.2-7.9 M433.9,245.6C370.4,188,306.3,134,142.2-7.9
		 M434.3,239.3C327.1,149.5,224.6,60.2,149.3-8.4 M434.3,239.3c-88-76.6-176-153-285-247.7 M435.7,233.9
		C363.4,170.2,294.5,109,157.4-8.1 M435.7,233.9c-97-85.1-196-170-278.3-241.9 M436.2,227.6C374,170.1,304.1,113,164.6-8.6
		 M436.2,227.6C354.5,151.6,267,75.1,164.6-8.6 M436.6,221.3c-89.4-73.2-179.7-150-264-229.5 M436.6,221.3
		c-75-71.1-154.2-138.4-264-229.5 M436.2,214.1C373,153.6,301.9,101.6,180.7-7.9 M436.2,214.1c-83.8-71.4-168.6-145.3-255.4-222
		 M436.6,207.8C366.9,147,304.7,92.5,187.8-8.4 M436.6,207.8c-54.2-50-109.3-96.2-248.8-216.2 M436.1,200.7
		C378.4,141.6,316.2,90.2,195.9-8.1 M436.1,200.7C375.8,150.9,312.3,95.5,195.9-8.1 M436.6,194.4C366.3,128.2,290.1,68.3,203-8.6
		 M436.6,194.4c-47-39.3-99.5-83.7-233.5-203 M436.1,187.3C385.7,139.8,328.6,96.8,211.1-8.2 M436.1,187.3
		c-51.6-45-110-92.6-224.9-195.5 M436.5,181c-43.1-39.6-88.8-77.2-217.3-188.9 M436.5,181C368.1,115.8,298.9,51.9,219.2-7.9
		 M436,173.9c-61.2-52.3-116.4-102-209.7-182.3 M436,173.9C373.9,115.7,311.2,63.1,226.3-8.4 M436.5,167.6
		c-43.1-36.9-87.9-73.8-202.1-175.6 M436.5,167.6C360.2,102,286.1,35.2,234.4-8.1 M436,160.4C361.4,95.1,286,32.3,241.5-8.6
		 M436,160.4C375.9,112.3,320.4,62,241.5-8.6 M436.4,154.1C384,108.5,338.7,59.5,249.6-8.2 M436.4,154.1
		c-58.5-48.6-114.8-96-186.8-162.4 M435.9,147C372,90.5,313.6,37.2,257.7-7.9 M435.9,147C379.4,93.5,320,41.9,257.7-7.9
		 M436.4,140.7C392.7,102,354.9,64.6,264.8-8.4 M436.4,140.7c-47-41.1-87.8-74-171.6-149.1 M435.9,133.6
		c-34.6-24.4-74.7-60.3-163-141.7 M435.9,133.6C376.6,79.4,317.3,32.2,272.9-8.1 M436.3,127.3C394.9,95.5,360.3,65.9,280-8.6
		 M436.3,127.3C401.7,96.7,361,61,280-8.6 M436.8,121c-62.4-47.3-122-97-148.7-129.3 M436.8,121C401.9,92.2,369.7,64.1,288.1-8.3
		 M436.3,113.9C397,71.9,347.5,34.3,296.2-7.9 M436.3,113.9C386.9,75.4,341.6,34.5,296.2-7.9 M436.8,107.6
		c-41-35.5-83.1-76.1-133.4-116 M436.8,107.6C389.6,66,340,23.3,303.3-8.4 M436.3,100.4C409.8,78.8,378.3,54.7,311.4-8.1
		 M436.3,100.4C399.2,70.6,363.5,36,311.4-8.1 M436.7,94.1C395.7,58.4,354.1,25,318.5-8.6 M436.7,94.1
		c-37-33.6-73.6-68.9-118.2-102.7 M436.2,87C398.9,47.3,352,10.6,326.6-8.3 M436.2,87C411,62.8,388.9,43.1,326.6-8.3 M436.7,80.7
		c-26.8-29.3-66.9-51.4-102-88.7 M436.7,80.7c-27.8-26.5-58.8-47.7-102-88.7 M436.2,73.6c-31.7-20.8-57-52.2-94.4-82 M436.2,73.6
		c-23.6-18.5-44-40.4-94.4-82 M436.6,67.3c-14.3-13.2-38.3-35.2-86.7-75.4 M436.6,67.3C415,49,394.7,25.7,349.9-8.1 M436.1,60.2
		C417.5,42.9,401.8,31.2,357-8.6 M436.1,60.2C409.5,35.8,384,14,357-8.6 M436.6,53.9C422,34.6,403.7,20.7,365.1-8.3 M436.6,53.9
		c-21.7-22.7-47.7-45.2-71.5-62.1 M436.1,46.7C421,35.5,399.9,16.9,373.2-7.9 M436.1,46.7C417,26.8,395,10,373.2-7.9 M436.5,40.5
		c-16.1-12.3-24.5-27.1-56.2-48.9 M436.5,40.5c-14.2-12.2-31.4-28.8-56.2-48.9 M436,33.3c-9-7-27-16.2-47.7-41.4 M436,33.3
		C419,20.9,406.3,6.9,388.4-8.1 M434.6,25.4C427,14.9,414.6,5,396.5-7.8 M434.6,25.4c-8.4-8.1-18.3-18.2-38.1-33.1 M432.2,16.6
		c-3.9-1.8-10.5-14-26.7-23.2 M432.2,16.6c-8.3-5.4-13.1-12-26.7-23.2"/>
	<path class="st1" d="M-7.9,228.3c-0.8-69.6,3.2-132.5,0-194.5 M-7.9,228.3c-0.8-56,1.7-108.1,0-194.5 M-7.9,33.8
		C-5.8,1.9,9.7-5,32.5-6.6 M-7.9,33.8C-11.7,4.6,4.9-5.1,32.5-6.6 M32.5-6.6c131.2,2.2,265.2,3.1,362.9,0 M32.5-6.6
		c101.1-2.8,200.7-1.9,362.9,0 M395.4-6.6C419.2-7,439,7.3,435.8,33.8 M395.4-6.6c21.7,5,34.6,14.1,40.4,40.4 M435.8,33.8
		c3.9,49.6-4.5,91.3,0,194.5 M435.8,33.8c0.7,41.7-0.7,81.5,0,194.5 M435.8,228.3c2.1,28.3-13.3,41.1-40.4,40.4 M435.8,228.3
		c-5,29.7-14.8,40.8-40.4,40.4 M395.4,268.7c-109.3-2.3-222.2-1.2-362.9,0 M395.4,268.7c-133.2,3.2-261.8,1.2-362.9,0 M32.5,268.7
		c-28.9-3.2-43.4-16.5-40.4-40.4 M32.5,268.7c-26.8-0.9-36.3-8.9-40.4-40.4"/>
</g>
</svg>
