<?xml version="1.0" encoding="UTF-8" standalone="no"?>
<svg
   version="1.1"
   viewBox="0 0 302.75369 263.42041"
   width="302.75369"
   height="263.42041"
   filter="invert(93%) hue-rotate(180deg)"
   id="svg232"
   preserveAspectRatio="none"
   sodipodi:docname="container3.svg"
   inkscape:version="1.2.1 (9c6d41e410, 2022-07-14)"
   xmlns:inkscape="http://www.inkscape.org/namespaces/inkscape"
   xmlns:sodipodi="http://sodipodi.sourceforge.net/DTD/sodipodi-0.dtd"
   xmlns="http://www.w3.org/2000/svg"
   xmlns:svg="http://www.w3.org/2000/svg"
   xmlns:rdf="http://www.w3.org/1999/02/22-rdf-syntax-ns#"
   xmlns:cc="http://creativecommons.org/ns#">
  <sodipodi:namedview
     id="namedview234"
     pagecolor="#ffffff"
     bordercolor="#000000"
     borderopacity="0.25"
     inkscape:showpageshadow="2"
     inkscape:pageopacity="0.0"
     inkscape:pagecheckerboard="0"
     inkscape:deskcolor="#d1d1d1"
     showgrid="false"
     inkscape:zoom="1.8381504"
     inkscape:cx="-2.7201256"
     inkscape:cy="102.27672"
     inkscape:window-width="1920"
     inkscape:window-height="1046"
     inkscape:window-x="-11"
     inkscape:window-y="-11"
     inkscape:window-maximized="1"
     inkscape:current-layer="g230" />
  <!-- svg-source:excalidraw -->
  <defs
     id="defs224">
    <style
       class="style-fonts"
       id="style222">
      @font-face {
        font-family: &quot;Virgil&quot;;
        src: url(&quot;https://excalidraw.com/Virgil.woff2&quot;);
      }
      @font-face {
        font-family: &quot;Cascadia&quot;;
        src: url(&quot;https://excalidraw.com/Cascadia.woff2&quot;);
      }
    </style>
  </defs>
  <g
     stroke-linecap="round"
     transform="matrix(1.0005708,0,0,0.5930625,2.6725064,0.69963956)"
     id="g230">
    <path
       d="m 7.86,8.16 c 0,0 0,0 0,0 m 0,0 c 0,0 0,0 0,0 M 3.66,19.09 C 4.91,18.55 11.45,8.06 18.1,2.48 M 3.66,19.09 C 7.97,15.54 11.32,9.77 18.1,2.48 M 2.75,26.24 C 3.69,22.05 14.58,15.2 24.4,1.33 M 2.75,26.24 C 6.61,21.64 11.99,15.92 24.4,1.33 M 1.83,33.39 C 10.34,26.32 19.54,11.97 30.7,0.18 M 1.83,33.39 C 10.27,23.75 16.15,17.69 30.7,0.18 M 1.57,39.79 C 11.82,29.54 26.14,11.19 34.37,2.05 M 1.57,39.79 C 9.22,29.08 15.76,21.11 34.37,2.05 M 1.96,45.43 C 15.45,31.66 29.84,13 39.36,2.41 M 1.96,45.43 C 14.76,27.9 28.79,11.89 39.36,2.41 M 1.7,51.83 C 15.82,35.57 30.96,22.39 45,2.02 M 1.7,51.83 C 15.15,33.68 29.21,17.58 45,2.02 M 1.44,58.23 C 9.54,48.08 20.18,28.02 49.99,2.38 M 1.44,58.23 C 13.54,43.8 22.68,33.81 49.99,2.38 M 1.83,63.87 C 15.65,48.86 28.52,31.77 55.63,1.98 M 1.83,63.87 C 17.21,49.25 31.96,30.69 55.63,1.98 M 1.57,70.27 C 26.11,45.27 46.19,15.72 60.62,2.34 M 1.57,70.27 C 16.7,53.13 31.29,36.03 60.62,2.34 M 1.97,75.91 C 17.33,50.8 38.17,29.79 66.26,1.95 M 1.97,75.91 C 14.69,59.42 32.25,42.56 66.26,1.95 M 1.71,82.31 c 14.01,-18.7 25.76,-31.46 69.54,-80 m -69.54,80 C 22.97,60.05 42.66,38.83 71.25,2.31 M 1.44,88.71 C 23.75,68.75 40.26,41.63 76.89,1.91 M 1.44,88.71 C 17.54,69.96 34.98,48.85 76.89,1.91 M 1.84,94.35 C 22.5,67.93 47.24,44.29 81.88,2.27 M 1.84,94.35 C 24.87,67.61 47.8,43.88 81.88,2.27 M 1.58,100.75 C 24.1,70.85 50.37,46.08 87.52,1.88 M 1.58,100.75 C 23.47,76.2 42.89,52.22 87.52,1.88 M 1.97,106.39 C 27.9,79.44 51.7,46.78 92.51,2.24 M 1.97,106.39 C 23.27,83.2 47.93,55.5 92.51,2.24 M 1.71,112.79 C 29.83,84.29 47.79,54.62 98.15,1.85 M 1.71,112.79 C 33.69,77.96 62.47,43.97 98.15,1.85 M 1.45,119.19 C 31.19,85.93 65.4,40.67 103.14,2.21 M 1.45,119.19 C 24.08,92.68 45.67,66.75 103.14,2.21 M 1.84,124.83 C 31.23,91.1 58.1,67.47 108.78,1.81 M 1.84,124.83 C 25.74,96.94 51.1,69.21 108.78,1.81 M 1.58,131.23 C 41.01,85.92 87.63,33.99 113.77,2.17 M 1.58,131.23 C 36.86,93.77 65.47,55.84 113.77,2.17 M 1.98,136.87 C 34.32,104.71 62.63,65.16 119.41,1.78 M 1.98,136.87 C 26.87,107.9 53.67,83.07 119.41,1.78 M 1.72,143.27 C 26.71,109.45 56.03,73.87 124.4,2.14 M 1.72,143.27 C 31.14,108.25 58.16,75.55 124.4,2.14 M 1.45,149.67 C 47.36,100.41 81.76,56.87 130.04,1.74 M 1.45,149.67 C 38.85,106.88 74.24,62.85 130.04,1.74 M 1.85,155.31 C 32.28,124.55 64.78,87.19 135.03,2.1 M 1.85,155.31 C 35.37,116.32 69.06,78.69 135.03,2.1 M 1.59,161.71 C 48.29,104.6 103.95,49.01 140.67,1.71 M 1.59,161.71 C 39.89,119.5 75.88,74.3 140.67,1.71 M 1.98,167.35 C 36.47,122.1 73.37,83.61 145.66,2.07 M 1.98,167.35 C 33.38,128.95 67.08,90.36 145.66,2.07 M 1.72,173.75 C 53.44,116.48 105.78,58.76 150.65,2.43 M 1.72,173.75 C 33.9,135.4 63.89,100.22 150.65,2.43 M 1.46,180.14 C 39.24,132.95 84.75,83.72 156.29,2.03 M 1.46,180.14 C 39.27,138.51 74.85,96.77 156.29,2.03 M 1.85,185.79 C 56.9,123.83 113.76,66.6 161.28,2.39 M 1.85,185.79 C 52.77,127.97 105.68,70.83 161.28,2.39 M 1.59,192.19 C 29.71,155.76 64.97,116.94 166.92,2 M 1.59,192.19 C 55.19,133.29 106.93,70.87 166.92,2 M 1.99,197.83 C 47.25,147.5 94.02,96.82 171.91,2.36 M 1.99,197.83 C 44.81,150.32 89.85,97.63 171.91,2.36 M 1.72,204.23 C 48.46,151.43 92.11,100.56 177.55,1.96 M 1.72,204.23 C 42.6,153.8 85.38,104.55 177.55,1.96 M 1.46,210.62 C 67.67,137.12 129.91,65.41 182.54,2.32 M 1.46,210.62 C 49.72,155.77 98.45,100.15 182.54,2.32 M 1.86,216.27 C 71.86,134.49 146.36,56.74 188.18,1.93 M 1.86,216.27 C 64.14,145.08 125.3,73.35 188.18,1.93 M 1.6,222.66 C 37.74,174.01 80.28,128.76 193.17,2.29 M 1.6,222.66 C 73.63,138.91 147.36,54.91 193.17,2.29 M 1.99,228.31 C 49.31,178.48 97.83,122.94 198.81,1.9 M 1.99,228.31 C 60.94,156.11 121.37,87.17 198.81,1.9 M 1.73,234.71 C 45.02,184.66 92.43,130.34 203.8,2.26 M 1.73,234.71 C 57.39,174.21 112.37,112.67 203.8,2.26 M 1.47,241.1 C 51,188.1 96.39,135.82 209.44,1.86 M 1.47,241.1 C 82.01,149.08 162.03,57.03 209.44,1.86 M 1.86,246.75 C 77.14,156.53 161.49,66.22 214.43,2.22 M 1.86,246.75 C 84.64,148.83 168.21,52.88 214.43,2.22 M 1.6,253.14 C 52.62,195.72 105.21,136.35 220.07,1.83 M 1.6,253.14 C 82.1,155.66 163.47,59.34 220.07,1.83 M 2,258.79 C 89.8,166 166.67,69.86 225.06,2.19 M 2,258.79 C 90.45,156.18 180.72,52.59 225.06,2.19 M 1.73,265.19 C 74.93,178.31 145.9,97.77 230.7,1.79 M 1.73,265.19 C 51.34,203.22 104.63,143.97 230.7,1.79 M 1.47,271.58 C 76.34,189.11 150.12,102 235.69,2.15 M 1.47,271.58 C 89.78,172.75 180.57,70.2 235.69,2.15 M 1.87,277.23 C 92.97,171.85 178.24,72.95 241.33,1.76 M 1.87,277.23 C 61.25,204.14 122.74,133.48 241.33,1.76 M 1.61,283.62 C 70.99,205.4 142.94,126.2 246.32,2.12 M 1.61,283.62 C 95.31,177.14 188.03,70.47 246.32,2.12 M 2,289.27 C 81.8,200.74 157.11,109.89 251.96,1.72 M 2,289.27 C 80.12,199.34 159.64,108.81 251.96,1.72 M 1.74,295.66 C 83.97,202.31 163,114.07 256.95,2.08 M 1.74,295.66 C 82.39,207.79 158.68,118.41 256.95,2.08 M 1.48,302.06 C 80.99,212.04 158.7,121.86 262.59,1.69 M 1.48,302.06 C 58.72,230.73 118.51,163.35 262.59,1.69 M 1.87,307.71 C 109.85,186.81 210.25,67.34 268.23,1.29 M 1.87,307.71 C 58.35,242.25 113.49,176.4 268.23,1.29 M 1.61,314.1 C 70.33,238.56 135.86,160.85 272.56,2.41 M 1.61,314.1 C 97.85,200.92 193.78,90.86 272.56,2.41 M 2.01,319.75 C 97.1,210.74 186.85,104.87 277.55,2.77 M 2.01,319.75 C 57.79,252.18 114.71,186.39 277.55,2.77 M 1.74,326.14 C 106.84,203.93 216.03,79.7 281.88,3.88 M 1.74,326.14 C 73.98,247.37 143.5,167.86 281.88,3.88 M 1.48,332.54 C 72.87,242.16 146.47,157.67 284.9,6.51 M 1.48,332.54 C 103.28,212.04 208.4,94.12 284.9,6.51 M 1.88,338.19 C 73.51,256.05 147.86,169.31 288.57,8.38 M 1.88,338.19 C 104.29,220.06 207.88,98.75 288.57,8.38 M 1.62,344.58 C 95.84,235.38 186.23,126.44 291.59,11 M 1.62,344.58 C 60.67,278.71 119.87,209.73 291.59,11 M 2.01,350.23 C 101.56,236.89 195.37,127.57 294.61,13.63 M 2.01,350.23 C 106.82,229.86 212.6,109.43 294.61,13.63 M 1.75,356.62 C 111.53,228.91 219.28,99.23 295.66,18.51 M 1.75,356.62 C 61.34,287.49 121.92,217.48 295.66,18.51 M 1.49,363.02 C 63.24,291.74 125.88,220.71 296.71,23.4 M 1.49,363.02 C 119.58,226.48 237.45,91.16 296.71,23.4 M 1.88,368.66 C 93.86,261.37 187.75,154.41 297.76,28.29 M 1.88,368.66 C 89.35,272.51 174.51,172.7 297.76,28.29 M 1.62,375.06 C 112.28,246.86 221.47,120.52 298.82,33.18 M 1.62,375.06 C 78.56,288.52 154.46,200.98 298.82,33.18 M 2.02,380.71 C 103.23,262.42 204.87,147.28 299.21,38.82 M 2.02,380.71 C 104.59,258.74 207.7,141.37 299.21,38.82 M 1.75,387.1 C 86.3,295.28 167.37,199.97 298.95,45.22 M 1.75,387.1 C 61.41,316.69 122.78,246.22 298.95,45.22 M 1.49,393.5 C 81.45,302.43 165.35,206.26 299.34,50.86 M 1.49,393.5 C 95.78,285.11 191.39,176.62 299.34,50.86 M 1.89,399.14 C 78.8,315.13 152.71,230.07 299.08,57.26 M 1.89,399.14 C 100.87,282.96 199.65,169.1 299.08,57.26 M 1.63,405.54 C 84.99,310.32 166.67,215.8 298.82,63.66 M 1.63,405.54 C 89.74,303.46 181.01,199.78 298.82,63.66 M 2.02,411.18 C 116.17,278.61 228.01,146.29 299.21,69.3 M 2.02,411.18 C 68.78,336.58 131.06,263.67 299.21,69.3 M 3.07,416.07 C 95.4,312.31 186.84,206.38 298.95,75.7 M 3.07,416.07 C 71,336.63 142.77,254.57 298.95,75.7 M 4.12,420.96 C 75.61,338.04 149.15,252.54 299.35,81.34 M 4.12,420.96 C 75.54,338.04 147.36,255.37 299.35,81.34 M 5.17,425.85 C 80.48,342.6 152.11,258.02 299.09,87.74 M 5.17,425.85 C 74.39,347.49 144,265.12 299.09,87.74 M 6.22,430.74 C 114.03,302.73 222.12,176.81 298.82,94.14 M 6.22,430.74 C 96.07,322.48 188.62,217.43 298.82,94.14 M 9.9,432.61 C 77.8,359.24 139.67,287.57 299.22,99.78 M 9.9,432.61 C 86.05,342.71 163.1,255.97 299.22,99.78 M 12.92,435.23 C 114.75,314.36 219.25,196.59 298.96,106.18 M 12.92,435.23 C 101.93,331.42 195.54,225.3 298.96,106.18 M 15.94,437.86 C 84.52,360.71 156.42,282 299.35,111.82 M 15.94,437.86 C 77.8,367.76 138.12,296.59 299.35,111.82 M 18.95,440.48 C 71.46,372.83 127.05,310.68 299.09,118.22 M 18.95,440.48 C 93.19,351.05 170.85,262.26 299.09,118.22 M 23.94,440.84 C 128.57,324.79 228.14,206.12 298.83,124.62 M 23.94,440.84 C 101.7,352.51 178.91,264.38 298.83,124.62 M 28.27,441.96 C 117.06,341.85 202.97,238.39 299.22,130.26 M 28.27,441.96 C 130.86,321.82 235.31,203 299.22,130.26 M 33.26,442.32 C 132.16,327.7 229.17,213.66 298.96,136.66 M 33.26,442.32 C 127.83,328.7 222.06,220.15 298.96,136.66 M 38.25,442.68 C 132.86,336.53 227.39,228.45 299.36,142.3 M 38.25,442.68 C 129.33,335.42 218.71,231.66 299.36,142.3 M 43.89,442.28 C 99.84,374.46 156.65,307.9 299.1,148.7 M 43.89,442.28 C 111.47,366.71 172.59,293.39 299.1,148.7 M 48.88,442.64 C 143.06,331.86 238.55,219.72 298.83,155.1 M 48.88,442.64 C 119.98,359.11 194.69,273.07 298.83,155.1 M 54.52,442.25 c 63.82,-68.65 119.99,-140 244.71,-281.51 M 54.52,442.25 C 123.78,366.78 190.71,291.92 299.23,160.74 M 59.51,442.61 C 115.98,372.73 180.58,299.31 298.97,167.14 M 59.51,442.61 C 116.02,372.6 175.57,305.23 298.97,167.14 M 65.15,442.21 c 87.54,-99.73 173.38,-197 234.21,-269.43 M 65.15,442.21 C 117.09,386.01 167.67,325.76 299.36,172.78 M 70.14,442.57 C 138.29,362.74 210.83,282.71 299.1,179.18 M 70.14,442.57 C 123.87,384.13 177.05,321.53 299.1,179.18 m -223.32,263 C 131.94,375.62 185.72,315.01 298.84,185.58 M 75.78,442.18 C 126.46,385.16 176.97,327.36 298.84,185.58 M 80.77,442.54 C 131.48,381.62 181.07,323.69 299.23,191.22 M 80.77,442.54 C 160.69,346.63 242.12,253.1 299.23,191.22 M 86.41,442.14 C 161.78,361.2 230.3,278.38 298.97,197.62 M 86.41,442.14 C 146.58,370.75 209.79,297.43 298.97,197.62 M 91.4,442.5 c 40,-48.29 83.95,-100.05 207.97,-239.24 M 91.4,442.5 c 42.7,-52 88.05,-102.59 207.97,-239.24 M 97.04,442.11 c 48.72,-57.7 96.27,-109.87 202.07,-232.45 M 97.04,442.11 C 175.62,352.47 253.37,264.27 299.11,209.66 M 102.03,442.47 C 172.22,360.44 242.42,279.78 298.84,216.06 M 102.03,442.47 C 179.34,354.07 256.58,265.21 298.84,216.06 M 107.67,442.07 C 177.06,362.83 250.68,280.88 299.24,221.7 M 107.67,442.07 C 161.19,380.43 212.19,321.66 299.24,221.7 M 112.66,442.43 C 169.46,375.93 226.24,313.74 298.98,228.1 M 112.66,442.43 C 178.65,365.79 246.22,287.35 298.98,228.1 M 118.3,442.04 c 47.32,-49.51 89.1,-98.62 181.07,-208.3 M 118.3,442.04 C 178.38,368.81 243.79,297.15 299.37,233.74 M 123.29,442.4 c 44.27,-46.49 82.74,-90.66 175.82,-202.26 M 123.29,442.4 C 170.06,389.53 217.3,338.13 299.11,240.14 M 128.93,442.01 c 36.34,-39.83 74.58,-84.93 169.92,-195.47 M 128.93,442.01 C 166.55,397.8 206,354.6 298.85,246.54 M 133.92,442.37 C 191.48,380.04 253.44,311.57 299.24,252.18 M 133.92,442.37 c 43.83,-44.44 84.42,-92.63 165.32,-190.19 M 138.9,442.73 C 202.82,375.77 257.69,305.12 298.98,258.58 M 138.9,442.73 C 180.73,393.79 224.13,346.9 298.98,258.58 M 144.55,442.33 C 191.98,382.52 239.9,322.55 298.72,264.97 M 144.55,442.33 c 59.67,-66.9 118.95,-135 154.17,-177.36 M 149.53,442.69 c 30.41,-33.5 56.93,-69.95 149.59,-172.07 M 149.53,442.69 c 42.22,-45.58 84.72,-91.28 149.59,-172.07 M 155.18,442.3 c 30.63,-31.65 66.83,-74.36 143.67,-165.29 M 155.18,442.3 C 203.77,383.29 252.9,328.55 298.85,277.01 M 160.16,442.66 c 46.39,-45.81 87.93,-98.71 139.09,-160 m -139.09,160 c 34.69,-39.52 71.86,-82.15 139.09,-160 m -133.44,159.6 c 45.87,-50.11 85.1,-99.45 133.18,-153.2 m -133.18,153.2 c 36.27,-41.18 75.5,-81.99 133.18,-153.2 m -128.2,153.56 c 41.62,-53.31 86.16,-95.59 127.94,-147.17 M 170.79,442.62 c 31.84,-37.71 63.15,-72.29 127.94,-147.17 M 176.44,442.23 C 219.1,398.49 255.73,349.93 299.12,301.1 M 176.44,442.23 C 222.8,389.3 270.85,338.65 299.12,301.1 m -117.7,141.49 c 26.42,-26.82 54.17,-55.75 117.44,-135.1 m -117.44,135.1 c 29.13,-28.92 54.32,-61.32 117.44,-135.1 M 187.07,442.19 C 223.8,400.64 267.14,350.87 299.25,313.14 M 187.07,442.19 c 33.56,-37.29 66.24,-76.9 112.18,-129.05 M 192.05,442.55 C 231.88,401.11 271.46,355.1 298.99,319.54 M 192.05,442.55 c 22.75,-28.97 46.9,-58.4 106.94,-123.01 M 197.7,442.16 c 38.41,-43.73 79.34,-87.68 101.03,-116.23 M 197.7,442.16 c 32.52,-40.79 65.61,-80.26 101.03,-116.23 m -96.05,116.59 c 15.1,-20.61 37.39,-41.4 96.45,-110.94 m -96.45,110.94 c 26.57,-27.95 52.98,-58.87 96.45,-110.94 m -90.8,110.54 c 25.18,-31.26 53.69,-70.28 90.53,-104.15 m -90.53,104.15 c 26.54,-30.69 54.15,-59.14 90.53,-104.15 m -85.55,104.51 c 27.34,-31.39 56.42,-63.29 85.95,-98.86 m -85.95,98.86 c 34.78,-37.38 68.74,-76.08 85.95,-98.86 m -80.3,98.47 c 18.83,-19.55 33.39,-40.93 80.04,-92.08 m -80.04,92.08 C 245.89,409.42 272.23,378.8 299,350.01 m -75.06,92.44 c 23.88,-28.63 50.84,-55.1 74.8,-86.04 m -74.8,86.04 c 29.26,-31.81 60.1,-65.21 74.8,-86.04 m -69.15,85.64 c 20.67,-22.69 33.8,-39.44 69.54,-79.99 m -69.54,79.99 c 24.19,-30.21 50.16,-62.6 69.54,-79.99 m -64.56,80.36 c 20.94,-17.91 33.24,-37.44 64.3,-73.97 m -64.3,73.97 c 24.16,-27.92 45.66,-51.87 64.3,-73.97 m -58.65,73.57 c 11.6,-21.01 32.77,-34.66 59.04,-67.92 m -59.04,67.92 c 19.14,-21.64 37.91,-42.05 59.04,-67.92 m -54.06,68.28 c 15.43,-14.05 34.31,-38.09 53.8,-61.89 m -53.8,61.89 c 15.51,-19.21 31.05,-34.71 53.8,-61.89 m -48.81,62.25 c 13.08,-17.74 25.15,-28.99 48.55,-55.85 m -48.55,55.85 c 16.68,-20.81 35.6,-38.95 48.55,-55.85 m -42.91,55.46 c 9.04,-12.36 19.98,-24.23 43.3,-49.81 m -43.3,49.81 c 9.54,-12.33 21,-22.77 43.3,-49.81 m -38.31,50.17 c 15,-15.72 25.97,-28.43 38.05,-43.78 m -38.05,43.78 c 11.73,-16.32 23.65,-29.04 38.05,-43.78 m -32.41,43.38 c 8.9,-12.37 14.72,-15.22 32.81,-37.73 m -32.81,37.73 c 8.38,-9.72 18.64,-22.68 32.81,-37.73 m -25.85,35.83 c 6.33,-4.87 11.26,-17.58 26.24,-30.19 m -26.24,30.19 c 9.08,-10.44 15.21,-19.05 26.24,-30.19 m -19.94,29.04 c 7.21,-5.58 16.08,-17.55 18.37,-21.13 m -18.37,21.13 c 3.58,-7.34 10.18,-11.41 18.37,-21.13"
       stroke="#4dabf7"
       stroke-width="0.5"
       fill="none"
       id="path226"
       style="stroke:#4dabf7;stroke-opacity:0.39211136" />
    <path
       d="m 32,0 m 0,0 c 88.16,0.8 176.03,-1.87 234,0 M 32,0 c 60.52,2.66 118.4,2.03 234,0 m 0,0 c 23.2,-3.78 35.59,14.59 32,32 M 266,0 c 18.99,-2.23 32.58,7.59 32,32 m 0,0 c -1.16,96.86 -2.81,197.24 0,377.33 M 298,32 c -2.37,83.96 -2.89,167.48 0,377.33 m 0,0 c -0.63,22.97 -14.67,34.41 -32,32 m 32,-32 c -2.27,25.2 -15.25,28.04 -32,32 m 0,0 c -57.9,-5.05 -122.17,-2.3 -234,0 m 234,0 c -82.67,-4.09 -167.57,-2.14 -234,0 m 0,0 C 14.17,438.4 -1.97,427.99 0,409.33 m 32,32 C 7.46,441.1 -2.24,431.32 0,409.33 m 0,0 C 1.08,283.1 1.12,153.2 0,32 M 0,409.33 C -2.55,288.88 -3.22,170.61 0,32 m 0,0 C 2.61,9.04 14.04,-3.86 32,0 M 0,32 C -0.36,9.89 8.8,3.03 32,0"
       stroke="#1e1e1e"
       stroke-width="1"
       fill="none"
       id="path228" />
  </g>
  <metadata
     id="metadata236">
    <rdf:RDF>
      <cc:Work
         rdf:about="">
        <cc:license
           rdf:resource="http://creativecommons.org/licenses/by-nc-nd/4.0/" />
      </cc:Work>
      <cc:License
         rdf:about="http://creativecommons.org/licenses/by-nc-nd/4.0/">
        <cc:permits
           rdf:resource="http://creativecommons.org/ns#Reproduction" />
        <cc:permits
           rdf:resource="http://creativecommons.org/ns#Distribution" />
        <cc:requires
           rdf:resource="http://creativecommons.org/ns#Notice" />
        <cc:requires
           rdf:resource="http://creativecommons.org/ns#Attribution" />
        <cc:prohibits
           rdf:resource="http://creativecommons.org/ns#CommercialUse" />
      </cc:License>
    </rdf:RDF>
  </metadata>
</svg>
