<?xml version="1.0" encoding="UTF-8" standalone="no"?>
<!-- Uploaded to: SVG Repo, www.svgrepo.com, Generator: SVG Repo Mixer Tools -->

<svg
   width="800px"
   height="800px"
   viewBox="0 0 100 100"
   version="1.1"
   id="svg480"
   sodipodi:docname="favicon.svg"
   inkscape:export-filename="..\Desktop\Coding\martinez\webMartinez\src\img\bitmap.svg"
   inkscape:export-xdpi="1.3683501"
   inkscape:export-ydpi="1.3683501"
   inkscape:version="1.2.1 (9c6d41e410, 2022-07-14)"
   xmlns:inkscape="http://www.inkscape.org/namespaces/inkscape"
   xmlns:sodipodi="http://sodipodi.sourceforge.net/DTD/sodipodi-0.dtd"
   xmlns="http://www.w3.org/2000/svg"
   xmlns:svg="http://www.w3.org/2000/svg">
  <defs
     id="defs484" />
  <sodipodi:namedview
     id="namedview482"
     pagecolor="#ffffff"
     bordercolor="#000000"
     borderopacity="0.25"
     inkscape:showpageshadow="2"
     inkscape:pageopacity="0.0"
     inkscape:pagecheckerboard="0"
     inkscape:deskcolor="#d1d1d1"
     showgrid="false"
     inkscape:zoom="1.0175"
     inkscape:cx="356.26536"
     inkscape:cy="903.1941"
     inkscape:window-width="1920"
     inkscape:window-height="1046"
     inkscape:window-x="-11"
     inkscape:window-y="-11"
     inkscape:window-maximized="1"
     inkscape:current-layer="g478" />
  <circle
     fill="#33495F"
     cx="50"
     cy="50"
     r="50"
     id="circle453" />
  <clipPath
     id="a">
    <path
       d="M100 50c0 27.614-22.387 50-50 50-27.614 0-50-22.386-50-50S22.386 0 50 0h50v50z"
       id="path455" />
  </clipPath>
  <g
     clip-path="url(#a )"
     fill="#ffffff"
     id="g462">
    <path
       opacity=".2"
       clip-path="url(#a)"
       d="M31 19.5c2.55-.45 4.051-1.95 4.5-4.5.45 2.55 1.951 4.05 4.5 4.5-2.549.451-4.05 1.95-4.5 4.5-.449-2.55-1.95-4.049-4.5-4.5z"
       id="path458" />
    <path
       opacity=".1"
       clip-path="url(#a)"
       d="M71 74.5c2.55-.45 4.051-1.95 4.5-4.5.45 2.55 1.951 4.05 4.5 4.5-2.549.451-4.05 1.95-4.5 4.5-.449-2.55-1.95-4.049-4.5-4.5zm-60-10c2.55-.45 4.051-1.95 4.5-4.5.45 2.55 1.951 4.05 4.5 4.5-2.549.451-4.05 1.95-4.5 4.5-.449-2.55-1.95-4.049-4.5-4.5z"
       id="path460" />
  </g>
  <g
     clip-path="url(#a)"
     id="g478"
     transform="matrix(1.2327106,0,0,1.2327106,-24.376703,3.0027944)">
    <path
       fill="#e94b35"
       d="M 100,0.1 C 99.844,0.118 99.883,0.158 99.9,0 76.584,2.979 63.361,12.281 55.865,22.035 a 50.75,50.75 0 0 0 -0.782,1.047 l -0.008,0.01 C 47.015,34.196 46.087,45.812 46,49 h -1 l -1,3 4,4 3,-1 v -1 a 39.77,39.77 0 0 0 7.066,-0.773 l 0.002,0.002 C 58.797,53.047 59,53.305 59,57 v 9 c 0,1.809 0.943,2.497 1.945,1.494 2.423,-2.428 3.003,-3.023 8.5,-8.528 4.16,-4.167 4.676,-6.595 2.957,-11.059 C 83.953,41.369 96.432,27.888 100,0.1 Z"
       id="path464" />
    <path
       fill="#c23824"
       d="m 48,56 -4,-4 1,-3 h 2 l 4,4 v 2 z m 4,-28 c -1.718,-0.69 -2,-1 -4,-1 -2,0 -4.183,1.38 -6.861,4.063 -4.254,4.259 -4.85,4.839 -8.516,8.508 C 31.425,40.771 33.263,41 36,41 41.233,41 45.297,40.875 46.791,42.42 48.764,44.46 52,28 52,28 Z M 100,0 C 99.361,4.973 98.434,9.579 97.279,13.678 96.23,11.708 94.717,9.314 92.779,7.406 90.628,5.286 87.967,3.774 85.953,2.821 91.979,1.091 96.783,0.412 100,0 Z"
       id="path466" />
    <path
       opacity="0.3"
       fill="#ffffff"
       d="m 72.402,47.907 c 1.719,4.463 1.312,6.788 -2.854,10.954 -0.844,0.844 -7.828,7.859 -8.604,8.633 C 59.941,68.496 59.033,67.809 59,66 v -0.652 c 3,-3 9.689,-8.938 11,-11.348 0.768,-1.411 0.352,-3.654 0,-5 -3.312,1.76 -11.516,4.094 -11.932,4.229 C 54.906,53.875 52.467,53.943 51,54 V 53.344 C 51,53.344 80.975,43.681 100,0 96.406,28.047 83.953,41.369 72.402,47.907 Z"
       id="path468" />
    <path
       fill="#ffffff"
       d="M 77.5,28 C 73.916,28 71,25.084 71,21.5 71,17.916 73.916,15 77.5,15 c 3.584,0 6.5,2.916 6.5,6.5 0,3.584 -2.916,6.5 -6.5,6.5 z"
       id="path470" />
    <path
       fill="#c23824"
       d="m 77.5,16 a 5.5,5.5 0 1 1 0,11 5.5,5.5 0 0 1 0,-11 m 0,-2 C 73.363,14 70,17.364 70,21.5 70,25.636 73.363,29 77.5,29 81.637,29 85,25.636 85,21.5 85,17.364 81.637,14 77.5,14 Z"
       id="path472" />
    <path
       fill="#d7dcde"
       d="m 44.806432,52.79378 2.3963,2.535019 -20.967621,22.815178 -3.594448,-3.802531 z"
       id="path474"
       style="stroke-width:0.616171" />
    <path
       fill="#f7f7f7"
       d="M 44.731547,52.79378 45.929698,54.061292 22.940199,77.8271 21.142975,75.925835 Z"
       id="path476"
       style="stroke-width:0.616171" />
  </g>
</svg>
