<?xml version="1.0" encoding="UTF-8" standalone="no"?>
<!-- Created with Inkscape (http://www.inkscape.org/) -->

<svg
   width="217.79878mm"
   height="102.97064mm"
   viewBox="0 0 217.79878 102.97064"
   version="1.1"
   id="svg5"
   inkscape:version="1.2.1 (9c6d41e410, 2022-07-14)"
   sodipodi:docname="glovo.svg"
   xmlns:inkscape="http://www.inkscape.org/namespaces/inkscape"
   xmlns:sodipodi="http://sodipodi.sourceforge.net/DTD/sodipodi-0.dtd"
   xmlns="http://www.w3.org/2000/svg"
   xmlns:svg="http://www.w3.org/2000/svg">
  <sodipodi:namedview
     id="namedview7"
     pagecolor="#ffffff"
     bordercolor="#000000"
     borderopacity="0.25"
     inkscape:showpageshadow="2"
     inkscape:pageopacity="0.0"
     inkscape:pagecheckerboard="0"
     inkscape:deskcolor="#d1d1d1"
     inkscape:document-units="mm"
     showgrid="false"
     inkscape:zoom="1.5108866"
     inkscape:cx="268.71639"
     inkscape:cy="148.25732"
     inkscape:window-width="1773"
     inkscape:window-height="1024"
     inkscape:window-x="127"
     inkscape:window-y="63"
     inkscape:window-maximized="0"
     inkscape:current-layer="path803" />
  <defs
     id="defs2" />
  <g
     inkscape:label="Capa 1"
     inkscape:groupmode="layer"
     id="layer1"
     transform="translate(3.5643917,0.02935278)">
    <g
       id="path803"
       transform="matrix(0,-0.81584589,-1.322441,0,265.70176,157.08961)">
      <path
         style="color:#000000;fill:#0000ff;fill-opacity:0;stroke-width:1.03188;stroke-linecap:round"
         d="m 105.42099,52.885612 c 28.49361,34.998537 43.27246,73.598998 48.33255,114.527118 2.89538,23.41909 -11.53584,43.70876 -45.53067,27.3184 C 48.412673,148.93089 35.154748,94.608494 37.475236,70.047169 43.887281,2.1785605 135.68844,83.463777 171.61557,108.92335"
         id="path4569" />
      <path
         style="color:#000000;fill:#ffff00;stroke-linecap:round"
         d="m 105.22017,39.144345 c -1.34697,-0.169776 -2.68393,-0.246431 -4.0074,-0.221167 -5.293878,0.10106 -10.396765,1.855851 -15.059077,5.667102 -4.662311,3.811252 -8.879729,9.645591 -12.555744,17.899983 C 62.923427,86.459625 58.564862,138.62595 100.72258,194.00635 l 0.0289,0.0377 0.0386,-1.17333 c 7.48795,12.18024 27.69836,12.35088 36.22445,6.68953 10.10918,-6.71252 15.86717,-15.01656 18.43255,-26.77603 7.3514,-33.69815 7.49977,-66.69338 -1.70263,-98.579914 15.00113,16.01696 28.20346,34.802574 37.4733,45.113154 0.67097,-0.78899 0.76853,-1.03277 1.36637,-1.82056 -9.5522,-10.62463 -23.84753,-29.273043 -39.52806,-45.763454 -1.78201,-5.850465 -3.18856,-12.459628 -5.63244,-18.230443 -0.55158,0.46162 -0.81471,0.700503 -1.58909,1.317623 2.11374,4.991241 3.93729,10.017729 5.55218,15.067889 -5.51284,-5.698953 -11.18415,-11.087622 -16.88391,-15.71852 -9.89388,-8.038518 -19.85392,-13.836903 -29.28262,-15.02565 z m -0.34647,1.014847 c 9.11323,1.166057 19.49902,6.532702 29.33607,14.525052 6.21901,5.052769 11.87119,11.377173 17.86529,17.675117 9.84906,32.446229 10.55259,66.143789 3.0548,100.512959 -2.51266,11.51775 -9.66898,21.54939 -18.77238,26.2829 -9.09532,4.72931 -26.08133,7.65872 -35.69545,-6.38959 C 64.614785,140.09283 64.116711,86.189885 74.56976,62.717838 c 3.622513,-8.13426 7.740311,-13.786459 12.178374,-17.414396 4.438063,-3.627938 9.200707,-5.264583 14.270536,-5.361366 1.26745,-0.0242 2.55314,0.05054 3.85503,0.217116 z"
         id="path4571"
         sodipodi:nodetypes="sssscccsscccccccscsscssssssss" />
    </g>
    <ellipse
       id="path4565"
       style="fill:#0000ff;stroke:#ffff00;stroke-width:0.274824"
       cx="181.11743"
       cy="112.58407"
       rx="0.085066311"
       ry="0.052479468" />
  </g>
</svg>
