<?xml version="1.0" encoding="UTF-8" standalone="no"?>
<!-- Uploaded to: SVG Repo, www.svgrepo.com, Generator: SVG Repo Mixer Tools -->

<svg
   height="919.62891"
   width="362.86444"
   version="1.1"
   id="Layer_1"
   viewBox="0 0 232.2337 588.56365"
   xml:space="preserve"
   sodipodi:docname="paperClip.svg"
   inkscape:version="1.2.1 (9c6d41e410, 2022-07-14)"
   xmlns:inkscape="http://www.inkscape.org/namespaces/inkscape"
   xmlns:sodipodi="http://sodipodi.sourceforge.net/DTD/sodipodi-0.dtd"
   xmlns="http://www.w3.org/2000/svg"
   xmlns:svg="http://www.w3.org/2000/svg"><defs
   id="defs14" /><sodipodi:namedview
   id="namedview12"
   pagecolor="#ffffff"
   bordercolor="#000000"
   borderopacity="0.25"
   inkscape:showpageshadow="2"
   inkscape:pageopacity="0.0"
   inkscape:pagecheckerboard="0"
   inkscape:deskcolor="#d1d1d1"
   showgrid="false"
   inkscape:zoom="1.4990664"
   inkscape:cx="170.77296"
   inkscape:cy="723.78383"
   inkscape:window-width="1920"
   inkscape:window-height="1046"
   inkscape:window-x="-11"
   inkscape:window-y="-11"
   inkscape:window-maximized="1"
   inkscape:current-layer="Layer_1" />
<path
   style="fill:#808080"
   d="M 232.23369,51.778137 208.65967,489.76747 c -1.49893,27.84656 -13.75221,53.44305 -34.50344,72.0744 -20.75124,18.63134 -47.51441,28.06549 -75.361722,26.56723 C 41.309338,585.31478 -2.9414322,536.02911 0.15288783,478.54394 L 17.089888,163.89429 c 0.36411,-6.76429 6.14347,-11.95325 12.9085,-11.58981 6.76504,0.36344 11.95325,6.14347 11.58981,12.90851 l -16.937,314.64965 c -2.36724,43.97777 31.48557,81.68239 75.463342,84.04963 21.30399,1.14676 41.77863,-6.07096 57.65308,-20.32372 15.87445,-14.25276 25.24981,-33.83564 26.39656,-55.13963 L 207.7382,50.459591 c 0.80978,-15.043838 -4.28661,-29.502021 -14.35253,-40.7132521 0,0 32.5985,-39.9879979 38.84802,42.0317981 z"
   id="path9"
   sodipodi:nodetypes="ccscssscssscccc" />
<path
   style="fill:#ffffff;fill-opacity:0;stroke:#f7f7f7;stroke-width:1.86368366;stroke-linecap:round;stroke-dasharray:none"
   d="M 24.150991,166.03806 7.2452975,487.24624"
   id="path899" /><path
   style="fill:#ffffff;fill-opacity:0;stroke:#f7f7f7;stroke-width:2.11968416;stroke-linecap:round;stroke-dasharray:none"
   d="m 204.07408,11.100264 c 0,0 12.808,5.977066 11.95413,30.739193 -0.85386,24.762127 -24.76212,457.672433 -24.76212,457.672433 0,0 -5.55014,56.78212 -73.85945,72.15172"
   id="path901"
   sodipodi:nodetypes="cscc" /></svg>
