<svg id="Capa_1" data-name="Capa 1" xmlns="http://www.w3.org/2000/svg" viewBox="0 0 369.76 184.29"><defs><style>.cls-1,.cls-2{fill:none;stroke-linecap:round;}.cls-1{stroke:#99e9f2;stroke-width:0.5px;}.cls-2{stroke:#d1e7e8;}</style></defs><path class="cls-1" d="M6.72,9.32h0m0,0h0m-4,12.43C5.42,18,10.37,11.47,14.11,3.64M2.75,21.75c4.46-5,6.31-11.28,11.36-18.11M3,27.4c4.25-10,7.7-12.21,15.63-24.91M3,27.4C9.41,16.6,14.3,6.78,18.66,2.49M2.84,33.8C6,22,15.67,17.7,23.21,1.34M2.84,33.8c4.38-9.88,12.1-18.4,20.37-32.46M3.13,39.44c7.58-9.15,16.09-25.79,22.73-36.23M3.13,39.44c6.87-8,10.6-17.09,22.73-36.23M2.94,45.84C6.53,34.06,15.68,27.21,29.46,3.57M2.94,45.84c10.93-13.08,19-27.1,26.52-42.27M2.75,52.23C9,37.38,22.59,25.8,33.53,3.18M2.75,52.23C14.58,34.13,24.38,20,33.53,3.18M3,57.88C15.2,43.54,28.45,21.63,37.13,3.54M3,57.88c7.81-12.2,14.7-23,34.1-54.34M2.85,64.27C10.14,52.12,20,36.37,41.2,3.14M2.85,64.27C18.59,41.34,30.55,17.76,41.2,3.14M3.13,69.92C18,52.43,32.31,30.29,44.8,3.5M3.13,69.92C16.6,47.78,30.42,25.6,44.8,3.5M2.94,76.32C19.6,49,34.72,24.73,48.87,3.11M2.94,76.32C19.11,51,34.67,22.9,48.87,3.11M2.75,82.71c13.62-24.25,27.1-42.9,49.72-79.24M2.75,82.71C21.26,58.43,37.2,31,52.47,3.47M3,88.36C14.88,64.64,30.67,48.71,56.54,3.07M3,88.36C16,71.23,26.75,50.35,56.54,3.07M2.85,94.75C25.3,60.05,43,28.7,60.14,3.43M2.85,94.75C21.74,64.23,41.62,32.17,60.14,3.43m-57,97C21,70.87,36.62,46.65,64.21,3M3.14,100.4C24.47,67.45,42.83,33.64,64.21,3M3,106.8C16.27,83.24,30.81,58.54,67.82,3.4M3,106.8C23.11,74.28,45.57,39.46,67.82,3.4M2.76,113.19C15.94,86.28,30.21,62.37,71.89,3M2.76,113.19C24.12,74.88,47.19,41.22,71.89,3M3,118.84C19.88,89.8,37.26,67.9,75.49,3.37M3,118.84C24.87,86.4,46.72,49.42,75.49,3.37M2.85,125.23C22.72,98.28,42.9,68.81,79.56,3M2.85,125.23C19.12,92.54,38,65,79.56,3M3.14,130.88c17.07-30.7,36.52-68.29,80-127.55m-80,127.55C32,84.48,60.43,38.77,83.16,3.33M3,137.27C23,108.72,40.66,83.15,87.23,2.94M3,137.27C22.15,100.64,43.48,65.63,87.23,2.94M2.76,143.67C37.86,90.39,69.35,32.75,90.83,3.3M2.76,143.67C26.69,111.82,47.11,78.14,90.83,3.3m-87.78,146C20.59,120.52,42.1,84.65,94.9,2.9M3.05,149.32C31.79,104.39,61.56,58.32,94.9,2.9M1.44,158C41.41,98.8,73.65,43,98.5,3.26M1.44,158C32.5,110.22,61.2,60.58,98.5,3.26M2.67,162.11C25.1,119.75,51.11,81.43,102.57,2.87M2.67,162.11c25.55-44.26,52.57-86.52,99.9-159.24M3.42,167c24-46.26,54.88-87.47,102.75-163.77M3.42,167c21-34.27,42.07-68.7,102.75-163.77M5.13,170.38C37.66,118.72,66.18,68,109.78,3.59M5.13,170.38C43.74,106.77,85.25,40.12,109.78,3.59M7.31,173C50,109.79,87,48.32,113.85,3.19M7.31,173C30.38,132.69,52.91,93.86,113.85,3.19M9.49,175.63C41.6,118.8,79.1,61.15,117.45,3.55M9.49,175.63c28-47.45,55.87-91.32,108-172.08M11.67,178.25C57.16,112,97.28,43.31,121.52,3.16M11.67,178.25C44.55,123.78,78,72.22,121.52,3.16M13.85,180.88C43.13,132.59,71.46,87.7,125.12,3.52M13.85,180.88C35.92,143.19,61.11,104.51,125.12,3.52M17.45,181.24c43-72.18,89.89-140.38,111.74-178.12M17.45,181.24C43.84,141.93,68.57,97.7,129.19,3.12M21.05,181.6c37.41-61.82,72.59-120,111.74-178.12M21.05,181.6C63.18,117.74,104.51,53.93,132.79,3.48M24.17,182.71C51.05,133.44,81.75,85.53,136.86,3.09M24.17,182.71C55.71,132,84.47,85.34,136.86,3.09M28.24,182.32c23.42-40.27,49.25-80.8,112.22-178.87M28.24,182.32c36-58.86,74.56-120.77,112.22-178.87M31.85,182.68c30.07-49.88,66-100,112.68-179.62M31.85,182.68C67.3,125.18,103,69.15,144.53,3.06M35.92,182.28C73.83,124.7,111.56,64,148.14,3.42M35.92,182.28C76.86,121,117.9,53.54,148.14,3.42M39.52,182.64C78.36,117.26,118.78,55.17,152.21,3M39.52,182.64C76.36,126.3,114.53,68.94,152.21,3M43.59,182.25c45.86-64.39,87.79-130,112.22-178.87M43.59,182.25c44.54-65.06,86.75-135,112.22-178.87M47.19,182.61C83.88,124.49,117,71.39,159.88,3M47.19,182.61C81.82,126.3,115.17,69.78,159.88,3M50.78,183C89.26,120.38,129.61,61.4,163.48,3.35M50.78,183c34.3-58,68-113.27,112.7-179.62M54.86,182.57C81.16,140.78,108.91,96.18,167.55,3M54.86,182.57C91.28,124.41,129,67.15,167.55,3m-109.09,180C92.78,120.84,130.83,63.54,171.15,3.31M58.46,182.93c20.38-39.49,45.61-77.28,112.69-179.62M62.53,182.54C89.32,145.09,110,104.39,175.22,2.92M62.53,182.54C93.68,136,124.23,84,175.22,2.92M66.13,182.9C103.32,120.64,144.41,64.34,178.82,3.28M66.13,182.9C99.64,131.52,132.89,79.71,178.82,3.28M70.2,182.5c35.56-51,65.29-106,112.69-179.62M70.2,182.5C111.07,123.06,151.42,59.59,182.89,2.88M73.8,182.86C102.88,141,129.71,98.16,186.49,3.24M73.8,182.86C112,123.85,149.05,64.39,186.49,3.24M77.88,182.47C117,121.18,154.65,59.84,190.56,2.85M77.88,182.47C117,118.71,157.75,54.71,190.56,2.85m-109.09,180C108,140,135.8,99.39,194.17,3.21M81.47,182.83c29.45-47,56.68-92.32,112.7-179.62M85.55,182.43c25.19-35.59,49.71-78.33,112.21-178.86M85.55,182.43C125.36,114.84,169.86,45.57,197.76,3.57M89.14,182.79c42.22-72.29,85.5-136.64,112.7-179.62M89.14,182.79c35.71-56.89,70.91-116,112.7-179.62M93.22,182.4c39-61.1,79.09-127.58,112.21-178.87M93.22,182.4C133.14,125.75,168.39,64.6,205.43,3.53M96.81,182.76c33.87-49.94,61.62-98.9,112.7-179.62M96.81,182.76c43.42-71.3,86.8-136.65,112.7-179.62M100.89,182.37C127.73,137.94,156.16,95,213.1,3.5M100.89,182.37C121.5,145.39,144,106.81,213.1,3.5M104.49,182.73C148.86,110.65,193,43.92,217.18,3.1M104.49,182.73c46-71.47,91.3-142.35,112.69-179.63M108.56,182.33C145.44,124.6,179,66.67,220.78,3.46M108.56,182.33C132.7,139.9,156.64,98.92,220.78,3.46M112.16,182.69C143.06,130.44,179.68,79.2,224.85,3.07M112.16,182.69C147.82,126.43,180.78,70.51,224.85,3.07M116.24,182.3c24.12-37.38,45.41-80.64,112.21-178.87M116.24,182.3c30-49.78,61.39-100.58,112.21-178.87M119.83,182.66C151.56,132.91,182,88.43,232.53,3M119.83,182.66c26.09-39,50-78.8,112.7-179.62M123.91,182.26C164.58,114.4,204.43,51,236.12,3.4M123.91,182.26c34.55-55.1,68.94-110,112.21-178.86M127.5,182.62C157.35,135.22,185.84,91.14,240.2,3M127.5,182.62C167.23,120.13,207,55.6,240.2,3M131.58,182.23C158.85,141.74,186,94.71,243.79,3.36M131.58,182.23c36-53.29,72.79-111.41,112.21-178.87M135.17,182.59C170.88,121.79,208.57,60.13,247.87,3M135.17,182.59C170.3,132,203.17,78,247.87,3M138.77,183C169.66,138.84,195.61,88,251.46,3.33M138.77,183Q193.08,94.74,251.46,3.33M142.85,182.55C174.85,131.9,203,87.5,255.54,2.93M142.85,182.55c26.18-39,50.08-78.79,112.69-179.62m-109.09,180c32.14-43.08,59.89-89.79,112.68-179.62M146.45,182.91c26.79-45,56.82-92.6,112.68-179.62M150.52,182.52c36.78-54,70-112.82,112.69-179.62M150.52,182.52C172.31,146.44,197,106,263.21,2.9m-109.09,180c27.33-40.25,52.19-85.82,112.69-179.62M154.12,182.88c25.95-41.22,53.41-87.83,112.69-179.62M158.2,182.48c23.62-35.65,46.08-73.28,112.68-179.62M158.2,182.48c38.85-56.6,76.89-113.92,112.68-179.62m-109.09,180C194.19,130.62,225,83,274.48,3.22M161.79,182.84C197.63,129.58,230.41,75.72,274.48,3.22M165.87,182.45C189.41,144.3,213,105,278.08,3.58M165.87,182.45C207.81,115,250.36,49.32,278.08,3.58M169.46,182.81C213,114.14,255,44.94,282.15,3.19M169.46,182.81C201.69,127.66,235.22,76,282.15,3.19M173.54,182.42c31.39-49.56,64.28-94.63,112.21-178.87M173.54,182.42c33.53-55.7,66.81-109.84,112.21-178.87M177.13,182.78c40.23-64,79.16-124,112.69-179.63M177.13,182.78C215.63,125.68,252.9,66.3,289.82,3.15M181.21,182.38c28.42-44.74,56-85.29,112.21-178.87M181.21,182.38c30.06-47.57,55.73-90.47,112.21-178.87M184.81,182.74c21.06-38.64,48-80.77,112.68-179.62M184.81,182.74C227.24,117.66,265.93,52.59,297.49,3.12M188.88,182.35C215.36,136.07,241,94.77,301.1,3.48M188.88,182.35c25.85-41,54.66-86.68,112.22-178.87M192.48,182.71C234.83,108.94,278.85,37.16,305.17,3.09M192.48,182.71c25.22-41,49.54-79.63,112.69-179.62M196.56,182.31C234.17,128.87,270,67.68,308.77,3.45M196.56,182.31C232.79,120.39,270.83,60.92,308.77,3.45M200.15,182.67C234.81,128.38,271.46,73,312.84,3.05M200.15,182.67c40.93-63.56,82-129.42,112.69-179.62M204.23,182.28c23.53-38.56,49-81.59,112.21-178.87M204.23,182.28C235.48,128.9,269.86,76.77,316.44,3.41M207.82,182.64C247.15,122.4,284.41,60.86,320.51,3M207.82,182.64C245.5,125.85,283,68.71,320.51,3M211.9,182.24c45-64.67,87.74-135.8,112.21-178.86M211.9,182.24c27.16-40.47,52.24-80.1,112.21-178.86M215.49,182.6C251.89,130,283.86,69.39,328.18,3M215.49,182.6C247.67,131.5,277.6,79.43,328.18,3M219.09,183C251,125.92,288,74.25,331.78,3.34M219.09,183c26.17-44.51,54.19-86,112.69-179.62M223.16,182.57C244.38,148,271.07,106.26,335.85,3M223.16,182.57C252.31,137.84,283.49,92.42,335.85,3m-109.08,180C253,141.54,276,103.33,339.45,3.31M226.77,182.93q58-91.12,112.68-179.62M230.84,182.53C262.53,138.87,290.58,92.66,344.48,1.4M230.84,182.53C270.78,122.61,310.77,58.82,344.48,1.4m-110,181.49c28.68-48.26,60.44-98.66,113.63-181.13M234.44,182.89C272.89,127.37,308.75,68.44,348.07,1.76M238.51,182.5C264.47,139,292.1,100.72,351.2,2.88M238.51,182.5C269.46,132.35,302.23,81.4,351.2,2.88m-109.09,180C268.42,139.54,295.65,91.29,354.8,3.24M242.11,182.86c33.82-58.72,69.94-114,112.69-179.62M246.18,182.46C282.86,129.29,319.05,70.92,357.45,5.11M246.18,182.46c27.76-44,55.56-87.07,111.27-177.35M249.78,182.82c28.21-48.53,62.38-98,109.85-175.09M249.78,182.82c24-40.85,49.41-79.43,109.85-175.09M253.85,182.43C293.68,122.45,329,65.73,362.28,9.6M253.85,182.43C286.21,133.89,315.39,87.57,362.28,9.6M257.45,182.79c43.33-65,81.89-134.54,106.07-169m-106.07,169c29.82-47.61,58.85-96.62,106.07-169m-102,168.66c27-39.42,54.54-83.46,103.22-164.53M261.52,182.4C290.76,138,319.3,88.26,364.74,17.87M265.13,182.76C297,137.23,323.66,94.29,366.45,21.25M265.13,182.76C298.37,136.91,327,87.56,366.45,21.25M269.2,182.36c27.42-39.65,51.42-80.71,98-156.22m-98,156.22c21.21-33,43.07-65.47,98-156.22M272.8,182.72c35.82-54.31,71.33-112.38,94.69-150.94M272.8,182.72c19.85-35,40.27-67.93,94.69-150.94M276.87,182.33c30.53-43.15,59.89-90.43,90.44-144.15M276.87,182.33c23.93-35.31,48.55-76.1,90.44-144.15M280.47,182.69c30.38-42.88,57.69-94.23,87.12-138.87M280.47,182.69C307.09,136,337.32,91.91,367.59,43.82m-83,138.47c19.62-31.57,39.75-57.67,82.86-132.07M284.54,182.29c22.36-41.71,47.37-78,82.86-132.07M288.14,182.65c27.13-51.51,58.44-95.09,79.55-126.79M288.14,182.65c25.66-41.51,49.43-82,79.55-126.79m-75.48,126.4c26.26-36,46.55-78.75,75.29-120m-75.29,120c14.2-27.25,32.22-49.35,75.29-120M295.81,182.62c14.41-30.11,34.87-55.63,72-114.72m-72,114.72c28.42-42.55,52.58-84.17,72-114.72M299.41,183C317.63,155,332,133.23,367.59,74.3M299.41,183c26-40.28,51-81,68.18-108.68M303.48,182.58C318,154.93,336.7,133.37,367.41,80.7M303.48,182.58C320.11,154.2,335,129.67,367.41,80.7M307.09,182.94c18.37-24,34.2-52.33,60.6-96.6m-60.6,96.6c22.3-36.66,46.08-75.88,60.6-96.6m-56.53,96.21c19.14-32.36,37.47-68.39,56.34-89.81m-56.34,89.81c15.18-26,32.34-52.53,56.34-89.81m-52.74,90.17c15.9-20.09,25.76-43.75,53-84.53m-53,84.53c19-27.41,34.43-55.06,53-84.53m-49,84.13c18.63-22.89,31.31-48.94,48.77-77.73m-48.77,77.73c17.71-27.72,36.25-55.72,48.77-77.73m-45.17,78.09c15.57-20.16,25.19-41.06,45.45-72.45m-45.45,72.45c14-22.28,30.9-48.94,45.45-72.45M326.5,182.48c12-13.49,17.08-28.2,41.19-65.66M326.5,182.48c11.71-19.46,22.13-34.27,41.19-65.66m-37.59,66c17-26.18,29.63-43,37.41-59.62M330.1,182.84c12-18.89,26.21-42.79,37.41-59.62m-33.34,59.23c5.59-17.55,13.91-23.71,33.62-53.59m-33.62,53.59c13.54-22.94,26-40,33.62-53.59m-30,53.95c9.41-13.29,12.76-26.79,29.83-47.55m-29.83,47.55c7.23-8.52,13.45-20.6,29.83-47.55m-25.76,47.15c4.85-8.31,12.08-19.52,26-41.51m-26,41.51c6.37-9.64,12.94-19.32,26-41.51M345,183.53c3-8.26,10.09-17.55,22.72-36.23M345,183.53c6.52-8.28,8.81-18,22.72-36.23M350,181.62c2.77-7.23,9.55-20.85,18.94-30.19M350,181.62a248.87,248.87,0,0,0,18.94-30.19m-14.39,29c6.65-10.29,12-13.1,13.26-21.13m-13.26,21.13c2.81-5.64,7.68-12.42,13.26-21.13"/><path class="cls-2" d="M24.14,1.16c115.3.38,232.07,2,320.45,0m-320.45,0c93.52,3.64,188,2,320.45,0m0,0c16.19,1.08,26,10.39,23.09,32m-23.09-32c18.33,1.09,21.22,6.09,23.09,32m0,0c3.26,42.6.56,75.72,0,117.33m0-117.33c.87,28,.73,55,0,117.33m0,0c1.74,24-5.75,34.55-23.09,32m23.09-32c2.22,17.79-9.23,30.59-23.09,32m0,0c-67.1,1.43-136.61,2-320.45,0m320.45,0c-109-3-219.08-3.49-320.45,0m0,0c-17.22.63-24-9.39-23.09-32m23.09,32c-12.94-.06-21.35-14-23.09-32m0,0c.46-42.21,3.46-81.2,0-117.33m0,117.33c-.51-43.87-.93-91.57,0-117.33m0,0c.87-21.85,9.2-35.94,23.09-32m-23.09,32C-.42,8.34,8.79,5.59,24.14,1.16"/></svg>